<svg xmlns="http://www.w3.org/2000/svg" xmlns:xlink="http://www.w3.org/1999/xlink" width="500" zoomAndPan="magnify" viewBox="0 0 375 374.999991" height="500" preserveAspectRatio="xMidYMid meet" version="1.0"><path fill="#ffffff" d="M 152.15625 39.34375 C 140.609375 58.882812 141.488281 83.027344 147.847656 104.160156 C 154.960938 127.800781 169.019531 148.515625 180.445312 170.191406 C 189.777344 187.890625 195.71875 206.804688 199.691406 226.386719 C 203.960938 247.394531 206.054688 268.816406 206.679688 290.199219 C 207.308594 312.753906 206.261719 335.433594 203.164062 357.820312 C 202.746094 360.707031 207.140625 362.003906 207.601562 359.035156 C 210.65625 339.492188 211.578125 319.65625 211.367188 299.90625 C 211.117188 278.484375 209.359375 257.015625 205.71875 235.925781 C 202.328125 216.46875 197.308594 197.097656 188.980469 179.144531 C 178.769531 157.09375 164.167969 137.34375 154.753906 114.871094 C 145.003906 91.605469 140.609375 63.277344 153.746094 40.347656 C 154.332031 39.257812 152.742188 38.339844 152.15625 39.34375 Z M 152.15625 39.34375 " fill-opacity="1" fill-rule="nonzero"/><path fill="#ffffff" d="M 131.359375 98.886719 C 130.566406 104.117188 134.960938 108.429688 138.265625 111.902344 C 140.191406 113.953125 142.242188 115.875 144.582031 117.464844 C 146.46875 118.722656 149.523438 120.648438 151.824219 119.894531 C 152.867188 119.558594 153.289062 118.21875 152.449219 117.425781 C 151.027344 116.042969 148.644531 115.710938 146.886719 114.746094 C 144.75 113.574219 142.828125 112.109375 141.027344 110.519531 C 137.722656 107.632812 132.492188 103.910156 132.742188 99.054688 C 132.785156 98.261719 131.488281 98.09375 131.359375 98.886719 Z M 131.359375 98.886719 " fill-opacity="1" fill-rule="nonzero"/><path fill="#ffffff" d="M 166.050781 96.167969 C 161.363281 103.742188 157.890625 113.199219 158.644531 122.238281 C 158.8125 124.453125 162.117188 124.539062 162.117188 122.238281 C 162.160156 117.84375 162.199219 113.617188 163.039062 109.308594 C 163.875 104.953125 165.253906 100.855469 167.304688 96.921875 C 167.808594 96.085938 166.550781 95.332031 166.050781 96.167969 Z M 166.050781 96.167969 " fill-opacity="1" fill-rule="nonzero"/><path fill="#ffffff" d="M 169.273438 203.917969 C 181.53125 209.691406 191.699219 218.351562 200.320312 228.730469 C 201.742188 230.488281 204.171875 227.976562 202.789062 226.261719 C 194.253906 215.632812 182.371094 207.722656 169.691406 202.953125 C 169.144531 202.746094 168.726562 203.664062 169.273438 203.917969 Z M 169.273438 203.917969 " fill-opacity="1" fill-rule="nonzero"/><path fill="#ffffff" d="M 200.65625 176.550781 C 199.066406 183.707031 196.554688 190.652344 195.339844 197.890625 C 195.046875 199.648438 197.558594 200.402344 198.0625 198.644531 C 199.945312 191.53125 200.488281 184.125 201.996094 176.925781 C 202.160156 176.046875 200.863281 175.714844 200.65625 176.550781 Z M 200.65625 176.550781 " fill-opacity="1" fill-rule="nonzero"/><path fill="#ffffff" d="M 208.648438 257.6875 C 208.101562 249.066406 209.945312 241.03125 213.792969 233.332031 C 217.519531 225.84375 222.582031 219.191406 226.808594 211.992188 C 235.050781 198.015625 239.234375 182.410156 241.535156 166.464844 C 242.835938 157.46875 243.585938 148.390625 244.339844 139.308594 C 243.292969 139.769531 242.207031 140.1875 241.160156 140.648438 C 253.839844 153.953125 255.890625 174.542969 255.804688 192.074219 C 255.722656 209.941406 251.453125 229.691406 236.222656 240.863281 C 228.773438 246.304688 219.484375 249.277344 210.320312 247.015625 C 207.265625 246.261719 205.925781 250.992188 209.023438 251.746094 C 227.5625 256.304688 245.636719 243.375 253.335938 227.097656 C 257.773438 217.726562 259.613281 207.390625 259.949219 197.097656 C 260.324219 187.054688 259.570312 176.757812 257.605469 166.882812 C 255.472656 156.296875 251.414062 145.921875 243.839844 138.011719 C 242.625 136.757812 240.785156 137.804688 240.660156 139.351562 C 239.402344 155.710938 238.0625 172.199219 233.585938 188.015625 C 231.328125 196.007812 228.1875 203.625 224.046875 210.820312 C 219.820312 218.144531 215.050781 225.171875 211.660156 232.914062 C 208.3125 240.53125 205.84375 249.527344 208.144531 257.769531 C 208.144531 258.0625 208.648438 258.019531 208.648438 257.6875 Z M 208.648438 257.6875 " fill-opacity="1" fill-rule="nonzero"/><path fill="#ffffff" d="M 248.777344 175.128906 C 249.488281 189.984375 245.972656 204.921875 237.855469 217.433594 C 234.214844 223.082031 229.695312 228.0625 224.464844 232.285156 C 219.148438 236.597656 213.167969 239.441406 207.140625 242.539062 C 205.089844 243.585938 206.511719 246.722656 208.6875 246.179688 C 219.234375 243.375 229.027344 235.339844 235.847656 227.054688 C 243.335938 217.933594 248.316406 206.804688 249.90625 195.085938 C 250.828125 188.351562 250.699219 181.738281 249.402344 175.042969 C 249.363281 174.710938 248.777344 174.75 248.777344 175.128906 Z M 248.777344 175.128906 " fill-opacity="1" fill-rule="nonzero"/><path fill="#ffffff" d="M 243 194 C 239.445312 205.128906 231.871094 214.125 224.089844 222.621094 C 220.40625 226.636719 216.472656 230.445312 213.207031 234.796875 C 210.152344 238.898438 207.140625 244.210938 207.351562 249.484375 C 207.433594 251.617188 210.992188 252.371094 211.324219 250.027344 C 211.742188 247.308594 212.121094 244.796875 213.332031 242.246094 C 214.503906 239.734375 216.09375 237.433594 217.8125 235.300781 C 221.285156 230.988281 225.09375 226.972656 228.605469 222.664062 C 235.46875 214.253906 241.371094 204.921875 243.796875 194.207031 C 243.921875 193.707031 243.167969 193.496094 243 194 Z M 243 194 " fill-opacity="1" fill-rule="nonzero"/><path fill="#ffffff" d="M 186.007812 187.347656 C 184.167969 174.917969 174.167969 166.507812 163.039062 161.988281 C 148.601562 156.128906 132.449219 156.257812 118.222656 149.644531 C 110.730469 146.171875 103.953125 141.441406 98.09375 135.625 C 97.050781 134.582031 95.542969 135.207031 95.082031 136.421875 C 92.070312 144.164062 93.367188 152.992188 97.300781 160.1875 C 101.191406 167.34375 107.550781 172.828125 114.289062 177.179688 C 128.347656 186.214844 145.085938 190.988281 161.78125 191.027344 C 170.902344 191.070312 181.238281 190.109375 189.566406 186.175781 C 191.699219 185.171875 190.109375 182.117188 188.019531 182.535156 C 184.167969 183.289062 180.445312 184.460938 176.59375 185.171875 C 172.828125 185.882812 169.019531 186.300781 165.214844 186.507812 C 157.472656 186.886719 149.6875 186.175781 142.15625 184.460938 C 134.667969 182.742188 127.46875 180.066406 120.734375 176.382812 C 114.121094 172.785156 107.71875 168.308594 103.117188 162.238281 C 97.761719 155.167969 95.25 145.878906 98.554688 137.382812 C 97.550781 137.636719 96.546875 137.929688 95.542969 138.179688 C 105.753906 148.136719 118.304688 154.707031 132.15625 157.847656 C 146.132812 161.027344 160.988281 161.78125 173.039062 170.398438 C 178.8125 174.542969 183.707031 180.441406 185.296875 187.472656 C 185.425781 188.015625 186.09375 187.808594 186.007812 187.347656 Z M 186.007812 187.347656 " fill-opacity="1" fill-rule="nonzero"/><path fill="#ffffff" d="M 106.546875 146.964844 C 107.382812 158.097656 117.425781 164.792969 127.261719 167.636719 C 138.976562 171.070312 151.320312 171.78125 163.164062 174.917969 C 166.46875 175.796875 169.730469 176.800781 172.914062 178.097656 C 176.300781 179.4375 179.316406 181.363281 182.535156 182.996094 C 184.546875 184 187.097656 181.238281 185.089844 179.6875 C 179.355469 175.210938 171.574219 172.828125 164.585938 171.109375 C 157.472656 169.394531 150.148438 168.390625 142.867188 167.386719 C 129.226562 165.585938 110.398438 163.203125 106.882812 146.925781 C 106.839844 146.714844 106.503906 146.757812 106.546875 146.964844 Z M 106.546875 146.964844 " fill-opacity="1" fill-rule="nonzero"/><path fill="#ffffff" d="M 131.195312 174.960938 C 140.066406 176.96875 148.976562 178.9375 157.890625 180.691406 C 162.242188 181.53125 166.59375 182.367188 170.902344 183.160156 C 175.382812 184 179.984375 185.253906 184.546875 185.464844 C 186.804688 185.589844 187.179688 182.199219 185.089844 181.570312 C 180.777344 180.316406 176.007812 180.023438 171.574219 179.355469 C 167.054688 178.644531 162.492188 178.015625 157.972656 177.386719 C 149.101562 176.132812 140.230469 175.128906 131.320312 174.125 C 130.816406 174.082031 130.691406 174.875 131.195312 174.960938 Z M 131.195312 174.960938 " fill-opacity="1" fill-rule="nonzero"/><path fill="#ffffff" d="M 207.476562 315.515625 C 204.085938 301.371094 200.445312 286.9375 190.363281 275.890625 C 184.839844 269.863281 177.851562 265.425781 171.113281 260.910156 C 163.75 255.972656 156.382812 250.992188 149.019531 246.054688 C 146.507812 244.339844 142.785156 240.65625 139.394531 241.578125 C 136.003906 242.496094 136.296875 246.515625 136.425781 249.277344 C 136.71875 255.886719 138.097656 262.414062 140.441406 268.609375 C 145.128906 281.160156 153.371094 292.25 163.664062 300.785156 C 169.566406 305.640625 176.09375 309.78125 183.164062 312.710938 C 190.78125 315.890625 199.816406 317.523438 207.351562 313.253906 C 209.902344 311.792969 207.644531 308.023438 205.046875 309.363281 C 193.457031 315.347656 179.023438 306.894531 169.648438 300.117188 C 159.941406 293.085938 151.863281 283.753906 146.507812 273.042969 C 143.832031 267.605469 141.90625 261.828125 140.859375 255.84375 C 140.359375 252.875 140.023438 249.820312 140.066406 246.847656 C 140.066406 246.011719 140.023438 245.21875 141.109375 245.34375 C 141.78125 245.425781 142.617188 246.179688 143.160156 246.515625 C 144.875 247.644531 146.550781 248.773438 148.265625 249.902344 C 154.835938 254.296875 161.445312 258.691406 168.015625 263.085938 C 174.167969 267.183594 180.652344 271.078125 186.175781 276.054688 C 197.390625 286.222656 202.789062 301.582031 206.972656 315.722656 C 207.015625 316.058594 207.558594 315.890625 207.476562 315.515625 Z M 207.476562 315.515625 " fill-opacity="1" fill-rule="nonzero"/><path fill="#ffffff" d="M 148.390625 263.085938 C 153.621094 274.84375 160.777344 285.386719 170.023438 294.34375 C 174.585938 298.734375 179.609375 302.628906 184.964844 306.015625 C 187.640625 307.730469 190.445312 309.28125 193.289062 310.703125 C 194.628906 311.371094 195.96875 311.957031 197.347656 312.542969 C 198.773438 313.128906 200.195312 314.050781 201.742188 313.464844 C 202.707031 313.089844 203.164062 312.125 202.664062 311.207031 C 201.953125 309.824219 200.53125 309.488281 199.148438 308.945312 C 197.683594 308.316406 196.21875 307.648438 194.753906 306.980469 C 192.078125 305.722656 189.441406 304.300781 186.886719 302.792969 C 181.617188 299.65625 176.636719 296.015625 172.035156 291.957031 C 162.703125 283.796875 154.625 273.839844 149.019531 262.75 C 148.808594 262.289062 148.222656 262.664062 148.390625 263.085938 Z M 148.390625 263.085938 " fill-opacity="1" fill-rule="nonzero"/><path fill="#ffffff" d="M 171.40625 274.425781 C 176.175781 282.289062 181.28125 289.738281 187.472656 296.558594 C 193.457031 303.171875 200.613281 309.824219 208.355469 314.300781 C 210.53125 315.558594 212.164062 312.460938 210.28125 311.039062 C 206.804688 308.359375 203.125 305.976562 199.652344 303.214844 C 196.179688 300.453125 192.871094 297.4375 189.609375 294.382812 C 183.164062 288.234375 177.011719 281.453125 172.035156 274.046875 C 171.824219 273.628906 171.15625 274.003906 171.40625 274.425781 Z M 171.40625 274.425781 " fill-opacity="1" fill-rule="nonzero"/><path fill="#ffffff" d="M 226.304688 298.066406 C 223.460938 300.746094 220.574219 303.339844 217.6875 305.976562 C 215.007812 308.402344 211.410156 310.660156 209.359375 313.632812 C 208.355469 315.097656 210.28125 316.644531 211.660156 315.933594 C 213.375 315.011719 214.714844 313.464844 216.09375 312.085938 C 217.394531 310.828125 218.691406 309.53125 219.945312 308.234375 C 222.664062 305.429688 225.257812 302.542969 227.855469 299.613281 C 228.773438 298.566406 227.351562 297.105469 226.304688 298.066406 Z M 226.304688 298.066406 " fill-opacity="1" fill-rule="nonzero"/><path fill="#ffffff" d="M 144.542969 89.136719 C 138.015625 78.214844 128.726562 64.992188 135.421875 52.023438 C 138.140625 46.792969 142.28125 42.523438 146.175781 38.128906 C 150.191406 33.570312 153.832031 28.757812 156.71875 23.359375 C 160.148438 17 162.578125 10.136719 163.914062 3.0625 C 162.703125 3.230469 161.488281 3.398438 160.277344 3.523438 C 166.175781 14.109375 164.921875 26.707031 161.613281 37.921875 C 158.097656 49.886719 151.863281 60.851562 147.804688 72.652344 C 145.503906 79.304688 143.832031 86.375 143.914062 93.449219 C 143.957031 96.378906 148.390625 96.378906 148.476562 93.449219 C 149.269531 67.628906 168.519531 46.625 168.519531 20.640625 C 168.519531 13.945312 167.054688 7.375 163.75 1.515625 C 162.953125 0.09375 160.402344 0.261719 160.109375 1.976562 C 158.894531 8.628906 156.800781 15.117188 153.707031 21.140625 C 150.734375 27.042969 146.84375 32.1875 142.535156 37.125 C 138.640625 41.644531 134.542969 46.246094 132.113281 51.769531 C 129.476562 57.796875 129.6875 64.15625 131.78125 70.308594 C 134.164062 77.335938 138.097656 84.746094 143.496094 89.890625 C 144 90.476562 144.960938 89.808594 144.542969 89.136719 Z M 144.542969 89.136719 " fill-opacity="1" fill-rule="nonzero"/><path fill="#ffffff" d="M 144 45.453125 C 141.152344 48.464844 139.5625 53.109375 138.433594 57 C 137.136719 61.351562 136.589844 65.957031 136.550781 70.476562 C 136.507812 74.953125 137.136719 79.429688 138.308594 83.738281 C 138.933594 86 139.730469 88.175781 140.652344 90.308594 C 141.445312 92.152344 142.449219 93.90625 144.542969 94.410156 C 145.714844 94.660156 146.675781 94.074219 147.09375 92.945312 C 147.636719 91.523438 146.132812 90.8125 145.546875 90.269531 C 144.164062 88.96875 143.496094 86.335938 142.867188 84.617188 C 141.402344 80.390625 140.523438 76 140.230469 71.523438 C 139.9375 67.128906 140.230469 62.734375 141.027344 58.425781 C 141.820312 54.074219 143.707031 50.140625 144.75 45.871094 C 144.792969 45.496094 144.289062 45.160156 144 45.453125 Z M 144 45.453125 " fill-opacity="1" fill-rule="nonzero"/><path fill="#ffffff" d="M 171.40625 144.414062 C 171.742188 136.253906 172.703125 128.386719 176.261719 120.898438 C 179.648438 113.742188 185.003906 107.96875 190.027344 101.902344 C 194.839844 96.042969 198.648438 89.808594 201.03125 82.570312 C 203.457031 75.246094 204.464844 67.546875 205.214844 59.890625 C 204.128906 60.347656 203.082031 60.765625 201.996094 61.226562 C 213.375 70.476562 216.554688 86.082031 215.089844 100.058594 C 214.296875 107.714844 212.164062 115.792969 207.519531 122.027344 C 203.082031 127.96875 196.304688 131.066406 189.609375 133.742188 C 182.117188 136.757812 174.417969 139.558594 168.601562 145.335938 C 166.511719 147.386719 169.730469 150.605469 171.78125 148.515625 C 177.265625 143.074219 184.671875 140.566406 191.660156 137.761719 C 198.8125 134.875 205.800781 131.484375 210.65625 125.292969 C 215.761719 118.761719 218.1875 110.605469 219.191406 102.484375 C 220.195312 94.746094 219.820312 86.753906 217.726562 79.261719 C 215.511719 71.230469 211.242188 63.738281 204.628906 58.550781 C 203.332031 57.503906 201.535156 58.171875 201.410156 59.890625 C 200.363281 72.066406 198.480469 84.578125 191.660156 95.039062 C 188.3125 100.183594 184.167969 104.746094 180.570312 109.683594 C 177.097656 114.453125 174.335938 119.601562 172.578125 125.25 C 170.695312 131.359375 169.691406 138.136719 170.777344 144.496094 C 170.863281 144.832031 171.40625 144.75 171.40625 144.414062 Z M 171.40625 144.414062 " fill-opacity="1" fill-rule="nonzero"/><path fill="#ffffff" d="M 208.5625 82.777344 C 201.660156 106.753906 178.730469 120.773438 168.351562 142.824219 C 167.261719 145.125 170.695312 147.132812 171.78125 144.832031 C 181.949219 122.949219 206.261719 108.175781 209.023438 82.859375 C 209.066406 82.570312 208.605469 82.527344 208.5625 82.777344 Z M 208.5625 82.777344 " fill-opacity="1" fill-rule="nonzero"/><path fill="#ffffff" d="M 207.183594 106.878906 C 204.964844 115.667969 196.511719 120.773438 189.316406 125.207031 C 185.714844 127.382812 182.117188 129.558594 178.8125 132.238281 C 175.714844 134.707031 172.199219 138.011719 170.863281 141.820312 C 170.277344 143.453125 172.785156 145 173.875 143.578125 C 175.214844 141.863281 176.21875 140.019531 177.683594 138.386719 C 179.1875 136.757812 180.863281 135.292969 182.621094 133.953125 C 186.175781 131.234375 190.070312 128.972656 193.75 126.464844 C 200.570312 121.777344 206.640625 115.582031 208.1875 107.171875 C 208.3125 106.546875 207.351562 106.253906 207.183594 106.878906 Z M 207.183594 106.878906 " fill-opacity="1" fill-rule="nonzero"/><path fill="#ffffff" d="M 147.050781 140.398438 C 150.316406 142.15625 153.496094 143.953125 156.84375 145.542969 C 159.941406 147.007812 163.371094 148.851562 166.71875 149.5625 C 168.980469 150.019531 169.773438 146.925781 167.640625 146.171875 C 164.460938 145 160.945312 144.457031 157.679688 143.453125 C 154.207031 142.363281 150.777344 141.148438 147.511719 139.558594 C 146.96875 139.265625 146.46875 140.105469 147.050781 140.398438 Z M 147.050781 140.398438 " fill-opacity="1" fill-rule="nonzero"/><path fill="#ffffff" d="M 188.144531 246.386719 C 193.25 249.734375 198.0625 253.796875 203.375 256.808594 C 205.046875 257.726562 206.429688 255.300781 204.839844 254.296875 C 199.777344 250.90625 194 248.480469 188.6875 245.425781 C 188.058594 245.007812 187.515625 246.011719 188.144531 246.386719 Z M 188.144531 246.386719 " fill-opacity="1" fill-rule="nonzero"/><path fill="#ffffff" d="M 221.410156 267.5625 C 216.179688 271.453125 210.699219 276.433594 207.851562 282.375 C 207.015625 284.132812 209.273438 285.429688 210.40625 283.882812 C 212.328125 281.246094 213.917969 278.359375 216.011719 275.804688 C 217.980469 273.335938 220.027344 270.949219 222.289062 268.734375 C 222.917969 268.1875 222.121094 267.058594 221.410156 267.5625 Z M 221.410156 267.5625 " fill-opacity="1" fill-rule="nonzero"/><path fill="#ffffff" d="M 188.058594 332.878906 C 191.367188 335.222656 194.714844 337.441406 198.226562 339.492188 C 201.242188 341.25 204.839844 343.761719 208.3125 344.179688 C 209.191406 344.304688 209.777344 342.882812 209.066406 342.335938 C 207.601562 341.164062 205.761719 340.621094 204.085938 339.910156 C 202.328125 339.15625 200.613281 338.402344 198.898438 337.609375 C 195.339844 335.933594 191.910156 334.09375 188.519531 332.085938 C 188.019531 331.75 187.601562 332.546875 188.058594 332.878906 Z M 188.058594 332.878906 " fill-opacity="1" fill-rule="nonzero"/><path fill="#ffffff" d="M 206.304688 346.269531 C 209.234375 333.300781 218.773438 322.710938 230.324219 316.519531 C 236.347656 313.296875 243.085938 312.125 249.195312 309.238281 C 255.554688 306.308594 259.363281 300.996094 262 294.675781 C 265.472656 286.265625 267.730469 277.269531 269.28125 268.316406 C 268.359375 268.566406 267.4375 268.816406 266.519531 269.027344 C 278.777344 281.996094 280.035156 301.875 275.179688 318.320312 C 272.585938 327.148438 267.941406 335.515625 260.910156 341.542969 C 254.300781 347.191406 245.34375 350.371094 236.640625 349.492188 C 230.992188 348.90625 226.515625 346.019531 221.578125 343.550781 C 216.933594 341.25 211.828125 339.992188 206.933594 342.210938 C 204.921875 343.132812 206.679688 346.0625 208.648438 345.140625 C 214.128906 342.671875 219.820312 346.480469 224.464844 348.992188 C 228.605469 351.207031 232.875 352.671875 237.605469 352.964844 C 246.683594 353.550781 255.890625 350.164062 262.835938 344.386719 C 277.019531 332.628906 282.921875 311.707031 280.871094 293.839844 C 279.699219 283.753906 275.933594 274.089844 268.859375 266.683594 C 268.066406 265.847656 266.308594 266.179688 266.097656 267.394531 C 264.71875 275.386719 262.753906 283.296875 259.992188 290.910156 C 257.394531 298.148438 253.589844 304.050781 246.347656 307.1875 C 240.199219 309.867188 233.753906 311.371094 227.9375 314.804688 C 222.582031 317.984375 217.851562 322.085938 214.003906 326.980469 C 209.695312 332.546875 206.804688 339.03125 205.71875 345.976562 C 205.71875 346.480469 206.21875 346.648438 206.304688 346.269531 Z M 206.304688 346.269531 " fill-opacity="1" fill-rule="nonzero"/><path fill="#ffffff" d="M 265.054688 298.316406 C 264.382812 305.347656 259.824219 310.535156 254.84375 315.136719 C 249.863281 319.742188 244.589844 323.132812 237.855469 324.386719 C 231.660156 325.558594 225.175781 325.390625 219.277344 327.859375 C 214.632812 329.785156 210.027344 333.300781 209.023438 338.53125 C 208.648438 340.496094 211.285156 341.207031 211.996094 339.367188 C 217.015625 326.226562 234.800781 330.285156 245.21875 325.808594 C 251.035156 323.296875 255.972656 318.820312 259.992188 313.96875 C 263.503906 309.699219 267.1875 304.007812 265.347656 298.277344 C 265.261719 298.109375 265.054688 298.148438 265.054688 298.316406 Z M 265.054688 298.316406 " fill-opacity="1" fill-rule="nonzero"/><path fill="#ffffff" d="M 273.378906 293.003906 C 272.375 295.972656 271.957031 299.152344 271.164062 302.167969 C 270.285156 305.390625 269.320312 308.570312 268.023438 311.664062 C 265.597656 317.523438 262.332031 323.089844 257.855469 327.566406 C 253.546875 331.875 248.230469 335.265625 242.375 337.023438 C 239.527344 337.859375 236.640625 338.277344 233.671875 338.238281 C 230.449219 338.195312 227.476562 337.359375 224.339844 336.605469 C 218.566406 335.183594 211.324219 335.222656 208.648438 341.585938 C 207.894531 343.382812 210.949219 344.679688 211.828125 342.921875 C 215.050781 336.605469 223.585938 340.414062 228.734375 341.332031 C 234.550781 342.378906 240.574219 341.625 246.097656 339.492188 C 257.480469 335.015625 265.765625 325.515625 270.117188 314.261719 C 271.414062 310.914062 272.417969 307.398438 273.128906 303.839844 C 273.800781 300.410156 274.550781 296.644531 274.175781 293.171875 C 274.132812 292.667969 273.546875 292.542969 273.378906 293.003906 Z M 273.378906 293.003906 " fill-opacity="1" fill-rule="nonzero"/></svg>