<svg width="357" height="357" viewBox="0 0 357 357" fill="none" xmlns="http://www.w3.org/2000/svg">
<g clip-path="url(#clip0_1239_345)">
<path d="M139.786 39.1102C158.606 49.723 169.375 70.0474 174.191 90.4976C179.579 113.374 177.849 137.145 178.746 160.454C179.477 179.488 183.582 197.91 189.628 215.946C196.107 235.298 204.578 253.956 214.241 271.883C224.458 290.777 236.117 308.977 249.327 325.96C251.046 328.141 248.04 331.302 246.247 329.074C234.426 314.415 224.224 298.5 214.997 282.117C205.006 264.337 196.236 245.8 189.199 226.679C182.733 209.024 177.651 190.664 175.971 171.898C173.893 148.858 176.531 125.624 173.595 102.616C170.559 78.7931 160.698 53.346 138.953 40.6946C137.951 40.075 138.825 38.5614 139.786 39.1102Z" fill="white" fill-opacity="0.1"/>
<path d="M185.274 78.3015C188.418 82.2363 186.848 87.8836 185.776 92.3196C185.164 94.9271 184.388 97.4878 183.216 99.9123C182.259 101.847 180.658 104.889 178.402 105.363C177.382 105.582 176.396 104.678 176.711 103.625C177.225 101.808 179.032 100.4 180.022 98.7678C181.226 96.7846 182.113 94.6621 182.841 92.4942C184.191 88.5411 186.732 82.9823 184.214 79.0982C183.801 78.4648 184.791 77.709 185.274 78.3015Z" fill="white" fill-opacity="0.1"/>
<path d="M155.379 92.5731C162.849 96.5865 170.213 102.73 173.894 110.542C174.81 112.448 172.126 114.091 171.031 112.195C168.904 108.592 166.86 105.126 164.117 101.973C161.354 98.7804 158.267 96.0584 154.704 93.7915C153.89 93.3422 154.569 92.1219 155.379 92.5731Z" fill="white" fill-opacity="0.1"/>
<path d="M204.011 182.942C196.653 193.537 192.392 205.517 190.225 218.177C189.889 220.303 186.69 219.389 187.014 217.317C188.992 204.491 195.023 192.313 203.207 182.346C203.559 181.915 204.341 182.473 204.011 182.942Z" fill="white" fill-opacity="0.1"/>
<path d="M165.11 175.317C169.827 180.461 175.204 184.991 179.651 190.381C180.729 191.69 179.018 193.507 177.765 192.298C172.827 187.33 168.854 181.482 164.184 176.264C163.631 175.618 164.542 174.727 165.11 175.317Z" fill="white" fill-opacity="0.1"/>
<path d="M197.142 246.015C193.489 238.647 188.145 232.9 181.308 228.384C174.671 223.984 167.33 220.909 160.419 216.986C146.971 209.386 136.093 198.511 126.607 186.46C121.252 179.663 116.312 172.535 111.368 165.406C112.45 165.288 113.545 165.116 114.627 164.997C110.506 182.002 118.616 199.954 127.032 214.366C135.604 229.058 148.525 243.309 166.4 245.27C175.132 246.21 184.205 244.239 190.684 238.013C192.844 235.937 196.2 239.199 194.005 241.295C180.89 253.878 159.834 251.822 145.739 242.067C137.619 236.453 131.183 228.807 126.006 220.481C120.917 212.379 116.637 203.531 113.556 194.454C110.276 184.712 108.683 174.226 111.163 164.099C111.567 162.487 113.583 162.474 114.422 163.69C123.246 176.579 132.199 189.535 143.418 200.444C149.084 205.959 155.299 210.744 162.138 214.705C169.109 218.732 176.386 222.255 182.867 227.024C189.253 231.711 195.57 237.953 197.597 245.843C197.736 246.085 197.3 246.289 197.142 246.015Z" fill="white" fill-opacity="0.1"/>
<path d="M124.76 197.051C131.245 209.637 141.254 220.279 153.901 226.73C159.592 229.654 165.688 231.609 172.011 232.601C178.447 233.626 184.731 233.123 191.175 232.808C193.364 232.695 193.685 235.958 191.632 236.546C181.602 239.254 169.703 237.291 160.136 233.707C149.621 229.751 140.217 222.947 133.329 214.042C129.363 208.928 126.321 203.415 124.204 197.277C124.078 196.985 124.579 196.738 124.76 197.051Z" fill="white" fill-opacity="0.1"/>
<path d="M138.506 209.859C146.734 217.342 157.26 221.154 167.72 224.455C172.668 226.012 177.724 227.28 182.488 229.313C186.959 231.24 191.97 234.187 194.307 238.635C195.254 240.432 192.679 242.748 191.29 240.974C189.651 238.931 188.143 237.041 185.931 235.514C183.769 234.001 181.363 232.861 178.931 231.921C174.015 230.018 168.963 228.52 164.017 226.64C154.356 222.973 145.047 218.088 137.947 210.409C137.606 210.056 138.127 209.524 138.506 209.859Z" fill="white" fill-opacity="0.1"/>
<path d="M182.327 177.246C177.927 166.123 182.168 154.429 189.192 145.405C198.306 133.702 211.685 126.12 220.266 113.896C224.79 107.467 228.126 100.341 230.188 92.7561C230.551 91.3998 232.092 91.1973 233.05 91.9795C239.219 96.929 242.352 104.825 242.533 112.629C242.732 120.381 240.1 127.93 236.616 134.725C229.326 148.866 217.798 160.769 204.052 168.748C196.552 173.125 187.573 177.253 178.835 177.974C176.599 178.162 176.455 174.886 178.377 174.236C181.912 173.024 185.539 172.219 189.052 170.971C192.495 169.765 195.834 168.297 199.07 166.656C205.633 163.284 211.713 158.992 217.106 153.993C222.462 149.012 227.124 143.379 230.922 137.136C234.662 131.022 237.81 124.284 238.714 117.089C239.764 108.71 237.413 99.8564 230.645 94.4248C231.593 94.1562 232.56 93.9199 233.507 93.6482C229.828 106.718 222.608 118.109 212.683 127.291C202.673 136.566 190.784 144.259 184.951 157.099C182.164 163.264 180.936 170.457 182.972 177.011C183.124 177.52 182.475 177.667 182.327 177.246Z" fill="white" fill-opacity="0.1"/>
<path d="M228.616 106.129C233.226 115.705 228.133 126.006 221.378 133.032C213.354 141.439 203.515 147.901 195.244 156.125C192.938 158.423 190.726 160.803 188.719 163.387C186.564 166.104 184.995 169.127 183.118 172.006C181.938 173.791 178.52 172.728 179.437 170.494C182.034 164.074 187.315 158.405 192.259 153.662C197.307 148.862 202.868 144.548 208.393 140.254C218.782 132.277 233.17 121.35 228.321 106.257C228.256 106.062 228.553 105.938 228.616 106.129Z" fill="white" fill-opacity="0.1"/>
<path d="M221.621 140.943C215.263 146.821 208.854 152.686 202.34 158.375C199.152 161.138 195.962 163.899 192.787 166.604C189.493 169.429 186.296 172.653 182.635 174.999C180.833 176.176 178.91 173.559 180.333 172.046C183.292 168.96 187.085 166.448 190.422 163.787C193.81 161.049 197.272 158.359 200.699 155.689C207.416 150.433 214.252 145.382 221.12 140.314C221.515 140.038 221.996 140.632 221.621 140.943Z" fill="white" fill-opacity="0.1"/>
<path d="M225.635 293.134C221.697 279.859 217.828 266.226 220.882 252.319C222.567 244.721 226.216 237.736 229.622 230.806C233.343 223.23 237.046 215.617 240.766 208.041C242.021 205.432 243.337 200.623 246.571 199.769C249.803 198.912 251.475 202.365 252.683 204.704C255.588 210.292 257.558 216.33 258.575 222.553C260.684 235.132 259.168 248.199 254.744 260.135C252.189 266.948 248.779 273.468 244.344 279.249C239.578 285.496 232.906 291.143 224.661 291.21C221.863 291.22 221.93 287.037 224.709 286.905C237.113 286.322 244.989 272.483 249.492 262.433C254.149 252.015 256.367 240.476 255.684 229.096C255.301 223.34 254.139 217.66 252.154 212.228C251.153 209.542 249.976 206.864 248.525 204.433C248.127 203.744 247.785 203.07 246.95 203.69C246.435 204.077 246.104 205.097 245.817 205.632C244.94 207.379 244.096 209.108 243.219 210.855C239.894 217.605 236.537 224.374 233.212 231.125C230.09 237.432 226.598 243.729 224.413 250.461C220.006 264.183 222.867 279.415 226.149 293.065C226.273 293.363 225.745 293.482 225.635 293.134Z" fill="white" fill-opacity="0.1"/>
<path d="M249.392 221.783C250.676 233.967 249.795 246.065 246.435 257.851C244.764 263.643 242.476 269.245 239.672 274.586C238.283 277.274 236.708 279.887 235.041 282.413C234.254 283.602 233.428 284.723 232.57 285.862C231.674 287.024 230.94 288.461 229.386 288.714C228.412 288.864 227.576 288.286 227.551 287.291C227.479 285.813 228.492 284.859 229.373 283.753C230.282 282.537 231.171 281.289 232.061 280.041C233.668 277.731 235.165 275.303 236.554 272.844C239.405 267.75 241.779 262.378 243.641 256.841C247.45 245.671 249.371 233.617 248.713 221.806C248.668 221.325 249.329 221.356 249.392 221.783Z" fill="white" fill-opacity="0.1"/>
<path d="M235.814 242.088C235.625 250.841 234.961 259.413 233.103 267.983C231.317 276.284 228.584 285.175 224.332 292.551C223.136 294.624 220.316 292.847 221.191 290.779C222.782 286.914 224.682 283.198 226.23 279.268C227.778 275.339 229.071 271.277 230.306 267.206C232.693 259.069 234.538 250.55 235.115 242.075C235.09 241.63 235.819 241.621 235.814 242.088Z" fill="white" fill-opacity="0.1"/>
<path d="M201.806 287.71C205.426 288.566 209.04 289.33 212.675 290.13C216.039 290.855 220.08 291.004 223.186 292.478C224.711 293.208 223.859 295.4 222.384 295.47C220.532 295.526 218.691 294.889 216.897 294.408C215.226 293.991 213.54 293.539 211.889 293.066C208.312 292.048 204.8 290.903 201.263 289.724C200.008 289.298 200.485 287.416 201.806 287.71Z" fill="white" fill-opacity="0.1"/>
<path d="M169.764 76.5384C169.947 64.4268 171.311 49.1037 159.618 41.5985C154.887 38.5803 149.441 37.0312 144.138 35.2619C138.658 33.415 133.365 31.1802 128.416 28.1035C122.561 24.4931 117.291 19.9911 112.822 14.7946C113.901 14.3567 114.982 13.9169 116.04 13.4436C116.216 24.9789 123.246 34.7682 131.312 42.4395C139.906 50.6305 150.265 56.703 159.228 64.5004C164.292 68.8897 169.036 73.9231 172.335 79.7945C173.695 82.2304 170.039 84.3408 168.574 81.9663C155.63 61.056 129.761 52.9022 117.392 31.4792C114.205 25.9592 112.286 19.845 112.221 13.4412C112.201 11.8896 114.384 10.8139 115.442 12.0883C119.61 16.9946 124.425 21.3473 129.843 24.8407C135.103 28.2919 140.759 30.6815 146.662 32.7013C152.024 34.5737 157.593 36.417 162.225 39.8143C167.268 43.5285 170.121 48.8719 171.323 54.9409C172.704 61.8688 172.988 69.8506 170.986 76.6617C170.85 77.3846 169.739 77.2913 169.764 76.5384Z" fill="white" fill-opacity="0.1"/>
<path d="M149.418 40.2647C153.2 41.3923 156.721 44.4647 159.504 47.135C162.645 50.1054 165.288 53.6421 167.471 57.3496C169.637 61.0199 171.25 65.01 172.334 69.1201C172.896 71.2823 173.274 73.4554 173.53 75.6526C173.753 77.5502 173.761 79.4741 172.274 80.8861C171.427 81.6501 170.356 81.6244 169.474 80.8926C168.35 79.9788 169.251 78.6768 169.476 77.9502C169.997 76.2196 169.294 73.731 168.994 72.0146C168.19 67.8327 166.825 63.7945 164.936 59.9643C163.085 56.2017 160.752 52.7181 158.044 49.5452C155.319 46.3349 151.891 43.9899 148.999 40.9663C148.785 40.6776 149.041 40.1608 149.418 40.2647Z" fill="white" fill-opacity="0.1"/>
<path d="M173.929 134.899C169.767 128.331 165.23 122.302 158.732 117.823C152.533 113.535 145.37 111.324 138.341 108.714C131.584 106.174 125.476 102.846 120.066 98.0131C114.58 93.1292 110.084 87.2613 105.822 81.306C106.935 81.1659 107.997 81.0122 109.111 80.8753C104.133 93.9179 108.94 108.297 116.8 119.123C121.098 125.058 126.702 130.703 133.499 133.632C139.985 136.418 147.047 135.746 153.841 134.765C161.453 133.685 169.134 132.329 176.68 134.324C179.379 135.02 178.257 139.206 175.572 138.459C168.46 136.583 161.16 138.041 154.064 139.055C146.793 140.08 139.417 140.611 132.467 137.818C125.149 134.863 119.267 129.293 114.573 123.076C110.062 117.174 106.567 110.406 104.727 103.232C102.73 95.5566 102.684 87.3473 105.667 79.9225C106.238 78.4421 108.037 78.1375 108.958 79.495C115.617 89.0351 123.125 98.4542 133.728 103.832C138.936 106.48 144.525 108.269 149.841 110.627C154.975 112.907 159.702 115.837 163.84 119.657C168.301 123.798 172.354 128.907 174.486 134.667C174.575 134.985 174.088 135.176 173.929 134.899Z" fill="white" fill-opacity="0.1"/>
<path d="M113.956 101.769C131.059 118.251 156.637 118.895 175.69 132.134C177.684 133.512 175.809 136.802 173.818 135.422C155.019 122.221 127.942 121.613 113.615 102.056C113.442 101.838 113.801 101.583 113.956 101.769Z" fill="white" fill-opacity="0.1"/>
<path d="M126.565 120.983C132.578 127.173 141.977 127.359 150.02 127.589C154.025 127.668 158.027 127.75 162.027 128.386C165.756 128.947 170.227 129.998 173.142 132.502C174.402 133.569 173.071 136.038 171.495 135.385C169.574 134.609 167.869 133.567 165.884 132.918C163.869 132.291 161.79 131.881 159.703 131.613C155.478 131.063 151.191 131.052 146.963 130.736C139.109 130.118 131.155 127.9 125.877 121.702C125.476 121.247 126.129 120.548 126.565 120.983Z" fill="white" fill-opacity="0.1"/>
<path d="M192.097 119.995C190.242 122.999 188.475 125.994 186.472 128.898C184.616 131.58 182.666 134.733 180.244 136.912C178.597 138.366 176.47 136.193 177.87 134.556C179.934 132.076 182.574 129.955 184.788 127.573C187.132 125.021 189.382 122.387 191.317 119.522C191.626 119.022 192.438 119.477 192.097 119.995Z" fill="white" fill-opacity="0.1"/>
<path d="M208.668 226.938C206.052 232.129 204.018 237.769 201.072 242.781C200.13 244.333 197.835 242.991 198.668 241.407C201.228 236.202 204.837 231.452 207.763 226.405C208.082 225.761 209.008 226.33 208.668 226.938Z" fill="white" fill-opacity="0.1"/>
<path d="M191.321 260.231C197.485 260.949 204.375 262.447 209.55 265.99C211.076 267.041 209.832 269.185 208.162 268.449C205.322 267.19 202.637 265.567 199.695 264.457C196.897 263.359 194.073 262.365 191.154 261.616C190.376 261.464 190.495 260.154 191.321 260.231Z" fill="white" fill-opacity="0.1"/>
<path d="M249.909 298.207C248.297 301.714 246.593 305.137 244.674 308.499C243.024 311.384 241.254 315.167 238.589 317.164C237.924 317.686 236.764 316.793 237.09 316.003C237.74 314.34 238.999 313.016 240.042 311.633C241.132 310.174 242.187 308.737 243.223 307.266C245.36 304.191 247.312 301.042 249.151 297.772C249.404 297.257 250.127 297.715 249.909 298.207Z" fill="white" fill-opacity="0.1"/>
<path d="M241.24 317.932C232.651 308.634 219.746 304.444 207.275 304.837C200.775 305.048 194.662 307.289 188.251 307.817C181.614 308.429 175.945 305.862 170.763 301.906C163.896 296.625 157.753 290.283 152.212 283.64C153.091 283.407 153.971 283.174 154.828 282.911C150.895 299.438 159.32 316.426 171.151 327.673C177.492 333.717 185.304 338.405 193.97 340.027C202.108 341.538 211.006 339.896 217.763 335.029C222.141 331.857 224.457 327.346 227.353 322.96C230.087 318.853 233.698 315.385 238.789 314.885C240.887 314.687 240.832 317.94 238.77 318.117C233.076 318.69 230.197 324.539 227.563 328.821C225.204 332.618 222.381 335.858 218.62 338.351C211.415 343.155 202.212 344.745 193.736 343.288C176.445 340.346 161.62 325.906 154.806 310.199C150.972 301.326 149.476 291.566 151.783 282.093C152.039 281.026 153.646 280.463 154.398 281.364C159.339 287.297 164.725 292.883 170.625 297.846C176.213 302.577 182.159 305.632 189.623 304.771C195.967 304.053 201.997 302.225 208.427 302.288C214.356 302.36 220.208 303.49 225.71 305.694C231.912 308.232 237.382 312.202 241.583 317.411C241.823 317.827 241.491 318.203 241.24 317.932Z" fill="white" fill-opacity="0.1"/>
<path d="M169.977 306.361C173.878 311.839 180.105 313.946 186.402 315.369C192.7 316.795 198.662 317.08 204.811 314.908C210.477 312.926 215.743 309.701 221.781 308.928C226.527 308.305 231.997 309.012 235.315 312.846C236.559 314.287 234.724 316.129 233.262 314.95C222.868 306.506 210.137 318.317 199.417 319.586C193.426 320.283 187.225 318.943 181.601 316.856C176.674 315.008 170.928 312.069 169.717 306.469C169.708 306.289 169.897 306.223 169.977 306.361Z" fill="white" fill-opacity="0.1"/>
<path d="M160.585 305.944C162.826 307.914 164.684 310.336 166.773 312.445C169.032 314.684 171.341 316.846 173.883 318.779C178.672 322.455 184.014 325.49 189.835 327.05C195.439 328.551 201.436 328.816 207.1 327.478C209.846 326.812 212.425 325.782 214.854 324.337C217.49 322.768 219.543 320.664 221.77 318.549C225.853 314.628 231.843 311.213 237.078 315.186C238.555 316.309 236.654 318.832 235.092 317.801C229.429 314.127 224.205 321.33 220.397 324.538C216.1 328.169 210.775 330.415 205.206 331.286C193.69 333.013 182.338 329.124 173.393 321.917C170.73 319.775 168.229 317.354 165.949 314.759C163.763 312.251 161.352 309.503 160.008 306.462C159.804 306.026 160.227 305.644 160.585 305.944Z" fill="white" fill-opacity="0.1"/>
</g>
<defs>
<clipPath id="clip0_1239_345">
<rect width="357" height="357" fill="white"/>
</clipPath>
</defs>
</svg>
