<svg xmlns="http://www.w3.org/2000/svg" xmlns:xlink="http://www.w3.org/1999/xlink" width="500" zoomAndPan="magnify" viewBox="0 0 375 374.999991" height="500" preserveAspectRatio="xMidYMid meet" version="1.0"><path fill="#379777" d="M 335.65625 152.15625 C 316.117188 140.609375 291.972656 141.488281 270.839844 147.847656 C 247.199219 154.960938 226.484375 169.019531 204.808594 180.445312 C 187.109375 189.777344 168.195312 195.71875 148.613281 199.691406 C 127.605469 203.960938 106.183594 206.054688 84.800781 206.679688 C 62.246094 207.308594 39.566406 206.261719 17.179688 203.164062 C 14.292969 202.746094 12.996094 207.140625 15.964844 207.601562 C 35.507812 210.65625 55.34375 211.578125 75.09375 211.367188 C 96.515625 211.117188 117.984375 209.359375 139.074219 205.71875 C 158.53125 202.328125 177.902344 197.308594 195.855469 188.980469 C 217.90625 178.769531 237.65625 164.167969 260.128906 154.753906 C 283.394531 145.003906 311.722656 140.609375 334.652344 153.746094 C 335.742188 154.332031 336.660156 152.742188 335.65625 152.15625 Z M 335.65625 152.15625 " fill-opacity="1" fill-rule="nonzero"/><path fill="#379777" d="M 276.113281 131.359375 C 270.882812 130.566406 266.570312 134.960938 263.097656 138.265625 C 261.046875 140.191406 259.125 142.242188 257.535156 144.582031 C 256.277344 146.46875 254.351562 149.523438 255.105469 151.824219 C 255.441406 152.867188 256.78125 153.289062 257.574219 152.449219 C 258.957031 151.027344 259.289062 148.644531 260.253906 146.886719 C 261.425781 144.75 262.890625 142.828125 264.480469 141.027344 C 267.367188 137.722656 271.089844 132.492188 275.945312 132.742188 C 276.738281 132.785156 276.90625 131.488281 276.113281 131.359375 Z M 276.113281 131.359375 " fill-opacity="1" fill-rule="nonzero"/><path fill="#379777" d="M 278.832031 166.050781 C 271.257812 161.363281 261.800781 157.890625 252.761719 158.644531 C 250.546875 158.8125 250.460938 162.117188 252.761719 162.117188 C 257.15625 162.160156 261.382812 162.199219 265.691406 163.039062 C 270.046875 163.875 274.144531 165.253906 278.078125 167.304688 C 278.914062 167.808594 279.667969 166.550781 278.832031 166.050781 Z M 278.832031 166.050781 " fill-opacity="1" fill-rule="nonzero"/><path fill="#379777" d="M 171.082031 169.273438 C 165.308594 181.53125 156.648438 191.699219 146.269531 200.320312 C 144.511719 201.742188 147.023438 204.171875 148.738281 202.789062 C 159.367188 194.253906 167.277344 182.371094 172.046875 169.691406 C 172.253906 169.144531 171.335938 168.726562 171.082031 169.273438 Z M 171.082031 169.273438 " fill-opacity="1" fill-rule="nonzero"/><path fill="#379777" d="M 198.449219 200.65625 C 191.292969 199.066406 184.347656 196.554688 177.109375 195.339844 C 175.351562 195.046875 174.597656 197.558594 176.355469 198.0625 C 183.46875 199.945312 190.875 200.488281 198.074219 201.996094 C 198.953125 202.160156 199.285156 200.863281 198.449219 200.65625 Z M 198.449219 200.65625 " fill-opacity="1" fill-rule="nonzero"/><path fill="#379777" d="M 117.3125 208.648438 C 125.933594 208.101562 133.96875 209.945312 141.667969 213.792969 C 149.15625 217.519531 155.808594 222.582031 163.007812 226.808594 C 176.984375 235.050781 192.589844 239.234375 208.535156 241.535156 C 217.53125 242.835938 226.609375 243.585938 235.691406 244.339844 C 235.230469 243.292969 234.8125 242.207031 234.351562 241.160156 C 221.046875 253.839844 200.457031 255.890625 182.925781 255.804688 C 165.058594 255.722656 145.308594 251.453125 134.136719 236.222656 C 128.695312 228.773438 125.722656 219.484375 127.984375 210.320312 C 128.738281 207.265625 124.007812 205.925781 123.253906 209.023438 C 118.695312 227.5625 131.625 245.636719 147.902344 253.335938 C 157.273438 257.773438 167.609375 259.613281 177.902344 259.949219 C 187.945312 260.324219 198.242188 259.570312 208.117188 257.605469 C 218.703125 255.472656 229.078125 251.414062 236.988281 243.839844 C 238.242188 242.625 237.195312 240.785156 235.648438 240.660156 C 219.289062 239.402344 202.800781 238.0625 186.984375 233.585938 C 178.992188 231.328125 171.375 228.1875 164.179688 224.046875 C 156.855469 219.820312 149.828125 215.050781 142.085938 211.660156 C 134.46875 208.3125 125.472656 205.84375 117.230469 208.144531 C 116.9375 208.144531 116.980469 208.648438 117.3125 208.648438 Z M 117.3125 208.648438 " fill-opacity="1" fill-rule="nonzero"/><path fill="#379777" d="M 199.871094 248.777344 C 185.015625 249.488281 170.078125 245.972656 157.566406 237.855469 C 151.917969 234.214844 146.9375 229.695312 142.714844 224.464844 C 138.402344 219.148438 135.558594 213.167969 132.460938 207.140625 C 131.414062 205.089844 128.277344 206.511719 128.820312 208.6875 C 131.625 219.234375 139.660156 229.027344 147.945312 235.847656 C 157.066406 243.335938 168.195312 248.316406 179.914062 249.90625 C 186.648438 250.828125 193.261719 250.699219 199.957031 249.402344 C 200.289062 249.363281 200.25 248.777344 199.871094 248.777344 Z M 199.871094 248.777344 " fill-opacity="1" fill-rule="nonzero"/><path fill="#379777" d="M 181 243 C 169.871094 239.445312 160.875 231.871094 152.378906 224.089844 C 148.363281 220.40625 144.554688 216.472656 140.203125 213.207031 C 136.101562 210.152344 130.789062 207.140625 125.515625 207.351562 C 123.382812 207.433594 122.628906 210.992188 124.972656 211.324219 C 127.691406 211.742188 130.203125 212.121094 132.753906 213.332031 C 135.265625 214.503906 137.566406 216.09375 139.699219 217.8125 C 144.011719 221.285156 148.027344 225.09375 152.335938 228.605469 C 160.746094 235.46875 170.078125 241.371094 180.792969 243.796875 C 181.292969 243.921875 181.503906 243.167969 181 243 Z M 181 243 " fill-opacity="1" fill-rule="nonzero"/><path fill="#379777" d="M 187.652344 186.007812 C 200.082031 184.167969 208.492188 174.167969 213.011719 163.039062 C 218.871094 148.601562 218.742188 132.449219 225.355469 118.222656 C 228.828125 110.730469 233.558594 103.953125 239.375 98.09375 C 240.417969 97.050781 239.792969 95.542969 238.578125 95.082031 C 230.835938 92.070312 222.007812 93.367188 214.8125 97.300781 C 207.65625 101.191406 202.171875 107.550781 197.820312 114.289062 C 188.785156 128.347656 184.011719 145.085938 183.972656 161.78125 C 183.929688 170.902344 184.890625 181.238281 188.824219 189.566406 C 189.828125 191.699219 192.882812 190.109375 192.464844 188.019531 C 191.710938 184.167969 190.539062 180.445312 189.828125 176.59375 C 189.117188 172.828125 188.699219 169.019531 188.492188 165.214844 C 188.113281 157.472656 188.824219 149.6875 190.539062 142.15625 C 192.257812 134.667969 194.933594 127.46875 198.617188 120.734375 C 202.214844 114.121094 206.691406 107.71875 212.761719 103.117188 C 219.832031 97.761719 229.121094 95.25 237.617188 98.554688 C 237.363281 97.550781 237.070312 96.546875 236.820312 95.542969 C 226.863281 105.753906 220.292969 118.304688 217.152344 132.15625 C 213.972656 146.132812 213.21875 160.988281 204.601562 173.039062 C 200.457031 178.8125 194.558594 183.707031 187.527344 185.296875 C 186.984375 185.425781 187.191406 186.09375 187.652344 186.007812 Z M 187.652344 186.007812 " fill-opacity="1" fill-rule="nonzero"/><path fill="#379777" d="M 228.035156 106.546875 C 216.902344 107.382812 210.207031 117.425781 207.363281 127.261719 C 203.929688 138.976562 203.21875 151.320312 200.082031 163.164062 C 199.203125 166.46875 198.199219 169.730469 196.902344 172.914062 C 195.5625 176.300781 193.636719 179.316406 192.003906 182.535156 C 191 184.546875 193.761719 187.097656 195.3125 185.089844 C 199.789062 179.355469 202.171875 171.574219 203.890625 164.585938 C 205.605469 157.472656 206.609375 150.148438 207.613281 142.867188 C 209.414062 129.226562 211.796875 110.398438 228.074219 106.882812 C 228.285156 106.839844 228.242188 106.503906 228.035156 106.546875 Z M 228.035156 106.546875 " fill-opacity="1" fill-rule="nonzero"/><path fill="#379777" d="M 200.039062 131.195312 C 198.03125 140.066406 196.0625 148.976562 194.308594 157.890625 C 193.46875 162.242188 192.632812 166.59375 191.839844 170.902344 C 191 175.382812 189.746094 179.984375 189.535156 184.546875 C 189.410156 186.804688 192.800781 187.179688 193.429688 185.089844 C 194.683594 180.777344 194.976562 176.007812 195.644531 171.574219 C 196.355469 167.054688 196.984375 162.492188 197.613281 157.972656 C 198.867188 149.101562 199.871094 140.230469 200.875 131.320312 C 200.917969 130.816406 200.125 130.691406 200.039062 131.195312 Z M 200.039062 131.195312 " fill-opacity="1" fill-rule="nonzero"/><path fill="#379777" d="M 59.484375 207.476562 C 73.628906 204.085938 88.0625 200.445312 99.109375 190.363281 C 105.136719 184.839844 109.574219 177.851562 114.089844 171.113281 C 119.027344 163.75 124.007812 156.382812 128.945312 149.019531 C 130.660156 146.507812 134.34375 142.785156 133.421875 139.394531 C 132.503906 136.003906 128.484375 136.296875 125.722656 136.425781 C 119.113281 136.71875 112.585938 138.097656 106.390625 140.441406 C 93.839844 145.128906 82.75 153.371094 74.214844 163.664062 C 69.359375 169.566406 65.21875 176.09375 62.289062 183.164062 C 59.109375 190.78125 57.476562 199.816406 61.746094 207.351562 C 63.207031 209.902344 66.976562 207.644531 65.636719 205.046875 C 59.652344 193.457031 68.105469 179.023438 74.882812 169.648438 C 81.914062 159.941406 91.246094 151.863281 101.957031 146.507812 C 107.394531 143.832031 113.171875 141.90625 119.15625 140.859375 C 122.125 140.359375 125.179688 140.023438 128.152344 140.066406 C 128.988281 140.066406 129.78125 140.023438 129.65625 141.109375 C 129.574219 141.78125 128.820312 142.617188 128.484375 143.160156 C 127.355469 144.875 126.226562 146.550781 125.097656 148.265625 C 120.703125 154.835938 116.308594 161.445312 111.914062 168.015625 C 107.816406 174.167969 103.921875 180.652344 98.945312 186.175781 C 88.777344 197.390625 73.417969 202.789062 59.277344 206.972656 C 58.941406 207.015625 59.109375 207.558594 59.484375 207.476562 Z M 59.484375 207.476562 " fill-opacity="1" fill-rule="nonzero"/><path fill="#379777" d="M 111.914062 148.390625 C 100.15625 153.621094 89.613281 160.777344 80.65625 170.023438 C 76.265625 174.585938 72.371094 179.609375 68.984375 184.964844 C 67.269531 187.640625 65.71875 190.445312 64.296875 193.289062 C 63.628906 194.628906 63.042969 195.96875 62.457031 197.347656 C 61.871094 198.773438 60.949219 200.195312 61.535156 201.742188 C 61.910156 202.707031 62.875 203.164062 63.792969 202.664062 C 65.175781 201.953125 65.511719 200.53125 66.054688 199.148438 C 66.683594 197.683594 67.351562 196.21875 68.019531 194.753906 C 69.277344 192.078125 70.699219 189.441406 72.207031 186.886719 C 75.34375 181.617188 78.984375 176.636719 83.042969 172.035156 C 91.203125 162.703125 101.160156 154.625 112.25 149.019531 C 112.710938 148.808594 112.335938 148.222656 111.914062 148.390625 Z M 111.914062 148.390625 " fill-opacity="1" fill-rule="nonzero"/><path fill="#379777" d="M 100.574219 171.40625 C 92.710938 176.175781 85.261719 181.28125 78.441406 187.472656 C 71.828125 193.457031 65.175781 200.613281 60.699219 208.355469 C 59.441406 210.53125 62.539062 212.164062 63.960938 210.28125 C 66.640625 206.804688 69.023438 203.125 71.785156 199.652344 C 74.546875 196.179688 77.5625 192.871094 80.617188 189.609375 C 86.765625 183.164062 93.546875 177.011719 100.953125 172.035156 C 101.371094 171.824219 100.996094 171.15625 100.574219 171.40625 Z M 100.574219 171.40625 " fill-opacity="1" fill-rule="nonzero"/><path fill="#379777" d="M 76.933594 226.304688 C 74.253906 223.460938 71.660156 220.574219 69.023438 217.6875 C 66.597656 215.007812 64.339844 211.410156 61.367188 209.359375 C 59.902344 208.355469 58.355469 210.28125 59.066406 211.660156 C 59.988281 213.375 61.535156 214.714844 62.914062 216.09375 C 64.171875 217.394531 65.46875 218.691406 66.765625 219.945312 C 69.570312 222.664062 72.457031 225.257812 75.386719 227.855469 C 76.433594 228.773438 77.894531 227.351562 76.933594 226.304688 Z M 76.933594 226.304688 " fill-opacity="1" fill-rule="nonzero"/><path fill="#379777" d="M 285.863281 144.542969 C 296.785156 138.015625 310.007812 128.726562 322.976562 135.421875 C 328.207031 138.140625 332.476562 142.28125 336.871094 146.175781 C 341.429688 150.191406 346.242188 153.832031 351.640625 156.71875 C 358 160.148438 364.863281 162.578125 371.9375 163.914062 C 371.769531 162.703125 371.601562 161.488281 371.476562 160.277344 C 360.890625 166.175781 348.292969 164.921875 337.078125 161.613281 C 325.113281 158.097656 314.148438 151.863281 302.347656 147.804688 C 295.695312 145.503906 288.625 143.832031 281.550781 143.914062 C 278.621094 143.957031 278.621094 148.390625 281.550781 148.476562 C 307.371094 149.269531 328.375 168.519531 354.359375 168.519531 C 361.054688 168.519531 367.625 167.054688 373.484375 163.75 C 374.90625 162.953125 374.738281 160.402344 373.023438 160.109375 C 366.371094 158.894531 359.882812 156.800781 353.859375 153.707031 C 347.957031 150.734375 342.8125 146.84375 337.875 142.535156 C 333.355469 138.640625 328.753906 134.542969 323.230469 132.113281 C 317.203125 129.476562 310.84375 129.6875 304.691406 131.78125 C 297.664062 134.164062 290.253906 138.097656 285.109375 143.496094 C 284.523438 144 285.191406 144.960938 285.863281 144.542969 Z M 285.863281 144.542969 " fill-opacity="1" fill-rule="nonzero"/><path fill="#379777" d="M 329.546875 144 C 326.535156 141.152344 321.890625 139.5625 318 138.433594 C 313.648438 137.136719 309.042969 136.589844 304.523438 136.550781 C 300.046875 136.507812 295.570312 137.136719 291.261719 138.308594 C 289 138.933594 286.824219 139.730469 284.691406 140.652344 C 282.847656 141.445312 281.09375 142.449219 280.589844 144.542969 C 280.339844 145.714844 280.925781 146.675781 282.054688 147.09375 C 283.476562 147.636719 284.1875 146.132812 284.730469 145.546875 C 286.03125 144.164062 288.664062 143.496094 290.382812 142.867188 C 294.609375 141.402344 299 140.523438 303.476562 140.230469 C 307.871094 139.9375 312.265625 140.230469 316.574219 141.027344 C 320.925781 141.820312 324.859375 143.707031 329.128906 144.75 C 329.503906 144.792969 329.839844 144.289062 329.546875 144 Z M 329.546875 144 " fill-opacity="1" fill-rule="nonzero"/><path fill="#379777" d="M 230.585938 171.40625 C 238.746094 171.742188 246.613281 172.703125 254.101562 176.261719 C 261.257812 179.648438 267.03125 185.003906 273.097656 190.027344 C 278.957031 194.839844 285.191406 198.648438 292.429688 201.03125 C 299.753906 203.457031 307.453125 204.464844 315.109375 205.214844 C 314.652344 204.128906 314.234375 203.082031 313.773438 201.996094 C 304.523438 213.375 288.917969 216.554688 274.941406 215.089844 C 267.285156 214.296875 259.207031 212.164062 252.972656 207.519531 C 247.03125 203.082031 243.933594 196.304688 241.257812 189.609375 C 238.242188 182.117188 235.441406 174.417969 229.664062 168.601562 C 227.613281 166.511719 224.394531 169.730469 226.484375 171.78125 C 231.925781 177.265625 234.433594 184.671875 237.238281 191.660156 C 240.125 198.8125 243.515625 205.800781 249.707031 210.65625 C 256.238281 215.761719 264.394531 218.1875 272.515625 219.191406 C 280.253906 220.195312 288.246094 219.820312 295.738281 217.726562 C 303.769531 215.511719 311.261719 211.242188 316.449219 204.628906 C 317.496094 203.332031 316.828125 201.535156 315.109375 201.410156 C 302.933594 200.363281 290.421875 198.480469 279.960938 191.660156 C 274.816406 188.3125 270.253906 184.167969 265.316406 180.570312 C 260.546875 177.097656 255.398438 174.335938 249.75 172.578125 C 243.640625 170.695312 236.863281 169.691406 230.503906 170.777344 C 230.167969 170.863281 230.25 171.40625 230.585938 171.40625 Z M 230.585938 171.40625 " fill-opacity="1" fill-rule="nonzero"/><path fill="#379777" d="M 292.222656 208.5625 C 268.246094 201.660156 254.226562 178.730469 232.175781 168.351562 C 229.875 167.261719 227.867188 170.695312 230.167969 171.78125 C 252.050781 181.949219 266.824219 206.261719 292.140625 209.023438 C 292.429688 209.066406 292.472656 208.605469 292.222656 208.5625 Z M 292.222656 208.5625 " fill-opacity="1" fill-rule="nonzero"/><path fill="#379777" d="M 268.121094 207.183594 C 259.332031 204.964844 254.226562 196.511719 249.792969 189.316406 C 247.617188 185.714844 245.441406 182.117188 242.761719 178.8125 C 240.292969 175.714844 236.988281 172.199219 233.179688 170.863281 C 231.546875 170.277344 230 172.785156 231.421875 173.875 C 233.136719 175.214844 234.980469 176.21875 236.613281 177.683594 C 238.242188 179.1875 239.707031 180.863281 241.046875 182.621094 C 243.765625 186.175781 246.027344 190.070312 248.535156 193.75 C 253.222656 200.570312 259.417969 206.640625 267.828125 208.1875 C 268.453125 208.3125 268.746094 207.351562 268.121094 207.183594 Z M 268.121094 207.183594 " fill-opacity="1" fill-rule="nonzero"/><path fill="#379777" d="M 234.601562 147.050781 C 232.84375 150.316406 231.046875 153.496094 229.457031 156.84375 C 227.992188 159.941406 226.148438 163.371094 225.4375 166.71875 C 224.980469 168.980469 228.074219 169.773438 228.828125 167.640625 C 230 164.460938 230.542969 160.945312 231.546875 157.679688 C 232.636719 154.207031 233.851562 150.777344 235.441406 147.511719 C 235.734375 146.96875 234.894531 146.46875 234.601562 147.050781 Z M 234.601562 147.050781 " fill-opacity="1" fill-rule="nonzero"/><path fill="#379777" d="M 128.613281 188.144531 C 125.265625 193.25 121.203125 198.0625 118.191406 203.375 C 117.273438 205.046875 119.699219 206.429688 120.703125 204.839844 C 124.09375 199.777344 126.519531 194 129.574219 188.6875 C 129.992188 188.058594 128.988281 187.515625 128.613281 188.144531 Z M 128.613281 188.144531 " fill-opacity="1" fill-rule="nonzero"/><path fill="#379777" d="M 107.4375 221.410156 C 103.546875 216.179688 98.566406 210.699219 92.625 207.851562 C 90.867188 207.015625 89.570312 209.273438 91.117188 210.40625 C 93.753906 212.328125 96.640625 213.917969 99.195312 216.011719 C 101.664062 217.980469 104.050781 220.027344 106.265625 222.289062 C 106.8125 222.917969 107.941406 222.121094 107.4375 221.410156 Z M 107.4375 221.410156 " fill-opacity="1" fill-rule="nonzero"/><path fill="#379777" d="M 42.121094 188.058594 C 39.777344 191.367188 37.558594 194.714844 35.507812 198.226562 C 33.75 201.242188 31.238281 204.839844 30.820312 208.3125 C 30.695312 209.191406 32.117188 209.777344 32.664062 209.066406 C 33.835938 207.601562 34.378906 205.761719 35.089844 204.085938 C 35.84375 202.328125 36.597656 200.613281 37.390625 198.898438 C 39.066406 195.339844 40.90625 191.910156 42.914062 188.519531 C 43.25 188.019531 42.453125 187.601562 42.121094 188.058594 Z M 42.121094 188.058594 " fill-opacity="1" fill-rule="nonzero"/><path fill="#379777" d="M 28.730469 206.304688 C 41.699219 209.234375 52.289062 218.773438 58.480469 230.324219 C 61.703125 236.347656 62.875 243.085938 65.761719 249.195312 C 68.691406 255.554688 74.003906 259.363281 80.324219 262 C 88.734375 265.472656 97.730469 267.730469 106.683594 269.28125 C 106.433594 268.359375 106.183594 267.4375 105.972656 266.519531 C 93.003906 278.777344 73.125 280.035156 56.679688 275.179688 C 47.851562 272.585938 39.484375 267.941406 33.457031 260.910156 C 27.808594 254.300781 24.628906 245.34375 25.507812 236.640625 C 26.09375 230.992188 28.980469 226.515625 31.449219 221.578125 C 33.75 216.933594 35.007812 211.828125 32.789062 206.933594 C 31.867188 204.921875 28.9375 206.679688 29.859375 208.648438 C 32.328125 214.128906 28.519531 219.820312 26.007812 224.464844 C 23.792969 228.605469 22.328125 232.875 22.035156 237.605469 C 21.449219 246.683594 24.835938 255.890625 30.613281 262.835938 C 42.371094 277.019531 63.292969 282.921875 81.160156 280.871094 C 91.246094 279.699219 100.910156 275.933594 108.316406 268.859375 C 109.152344 268.066406 108.820312 266.308594 107.605469 266.097656 C 99.613281 264.71875 91.703125 262.753906 84.089844 259.992188 C 76.851562 257.394531 70.949219 253.589844 67.8125 246.347656 C 65.132812 240.199219 63.628906 233.753906 60.195312 227.9375 C 57.015625 222.582031 52.914062 217.851562 48.019531 214.003906 C 42.453125 209.695312 35.96875 206.804688 29.023438 205.71875 C 28.519531 205.71875 28.351562 206.21875 28.730469 206.304688 Z M 28.730469 206.304688 " fill-opacity="1" fill-rule="nonzero"/><path fill="#379777" d="M 76.683594 265.054688 C 69.652344 264.382812 64.464844 259.824219 59.863281 254.84375 C 55.257812 249.863281 51.867188 244.589844 50.613281 237.855469 C 49.441406 231.660156 49.609375 225.175781 47.140625 219.277344 C 45.214844 214.632812 41.699219 210.027344 36.46875 209.023438 C 34.503906 208.648438 33.792969 211.285156 35.632812 211.996094 C 48.773438 217.015625 44.714844 234.800781 49.191406 245.21875 C 51.703125 251.035156 56.179688 255.972656 61.03125 259.992188 C 65.300781 263.503906 70.992188 267.1875 76.722656 265.347656 C 76.890625 265.261719 76.851562 265.054688 76.683594 265.054688 Z M 76.683594 265.054688 " fill-opacity="1" fill-rule="nonzero"/><path fill="#379777" d="M 81.996094 273.378906 C 79.027344 272.375 75.847656 271.957031 72.832031 271.164062 C 69.609375 270.285156 66.429688 269.320312 63.335938 268.023438 C 57.476562 265.597656 51.910156 262.332031 47.433594 257.855469 C 43.125 253.546875 39.734375 248.230469 37.976562 242.375 C 37.140625 239.527344 36.722656 236.640625 36.761719 233.671875 C 36.804688 230.449219 37.640625 227.476562 38.394531 224.339844 C 39.816406 218.566406 39.777344 211.324219 33.414062 208.648438 C 31.617188 207.894531 30.320312 210.949219 32.078125 211.828125 C 38.394531 215.050781 34.585938 223.585938 33.667969 228.734375 C 32.621094 234.550781 33.375 240.574219 35.507812 246.097656 C 39.984375 257.480469 49.484375 265.765625 60.738281 270.117188 C 64.085938 271.414062 67.601562 272.417969 71.160156 273.128906 C 74.589844 273.800781 78.355469 274.550781 81.828125 274.175781 C 82.332031 274.132812 82.457031 273.546875 81.996094 273.378906 Z M 81.996094 273.378906 " fill-opacity="1" fill-rule="nonzero"/></svg>