<svg xmlns="http://www.w3.org/2000/svg" xmlns:xlink="http://www.w3.org/1999/xlink" width="500" zoomAndPan="magnify" viewBox="0 0 375 374.999991" height="500" preserveAspectRatio="xMidYMid meet" version="1.0"><defs><filter x="0%" y="0%" width="100%" height="100%" id="84bd77ac8c"><feColorMatrix values="0 0 0 0 1 0 0 0 0 1 0 0 0 0 1 0 0 0 1 0" color-interpolation-filters="sRGB"/></filter><mask id="57a1eff151"><g filter="url(#84bd77ac8c)"><rect x="-37.5" width="450" fill="#000000" y="-37.499999" height="449.999989" fill-opacity="0.15"/></g></mask><clipPath id="0b23c62a0f"><path d="M 142 41 L 260 41 L 260 347 L 142 347 Z M 142 41 " clip-rule="nonzero"/></clipPath><clipPath id="4a8acbda92"><path d="M -68.628906 118.871094 L 256.128906 -68.628906 L 443.628906 256.128906 L 118.871094 443.628906 Z M -68.628906 118.871094 " clip-rule="nonzero"/></clipPath><clipPath id="22f824563a"><path d="M 256.128906 -68.628906 L -68.628906 118.871094 L 118.871094 443.628906 L 443.628906 256.128906 Z M 256.128906 -68.628906 " clip-rule="nonzero"/></clipPath><clipPath id="a008abbee6"><path d="M 256.128906 -68.628906 L -68.628906 118.871094 L 118.871094 443.628906 L 443.628906 256.128906 Z M 256.128906 -68.628906 " clip-rule="nonzero"/></clipPath><clipPath id="588c021a80"><path d="M 182 82 L 194 82 L 194 112 L 182 112 Z M 182 82 " clip-rule="nonzero"/></clipPath><clipPath id="2d4cb0dded"><path d="M -68.628906 118.871094 L 256.128906 -68.628906 L 443.628906 256.128906 L 118.871094 443.628906 Z M -68.628906 118.871094 " clip-rule="nonzero"/></clipPath><clipPath id="8fc8045f5c"><path d="M 256.128906 -68.628906 L -68.628906 118.871094 L 118.871094 443.628906 L 443.628906 256.128906 Z M 256.128906 -68.628906 " clip-rule="nonzero"/></clipPath><clipPath id="7c71c09b4b"><path d="M 256.128906 -68.628906 L -68.628906 118.871094 L 118.871094 443.628906 L 443.628906 256.128906 Z M 256.128906 -68.628906 " clip-rule="nonzero"/></clipPath><clipPath id="e5498005e0"><path d="M 159 97 L 181 97 L 181 120 L 159 120 Z M 159 97 " clip-rule="nonzero"/></clipPath><clipPath id="c76edbe797"><path d="M -68.628906 118.871094 L 256.128906 -68.628906 L 443.628906 256.128906 L 118.871094 443.628906 Z M -68.628906 118.871094 " clip-rule="nonzero"/></clipPath><clipPath id="8750092edb"><path d="M 256.128906 -68.628906 L -68.628906 118.871094 L 118.871094 443.628906 L 443.628906 256.128906 Z M 256.128906 -68.628906 " clip-rule="nonzero"/></clipPath><clipPath id="ac6e0c1606"><path d="M 256.128906 -68.628906 L -68.628906 118.871094 L 118.871094 443.628906 L 443.628906 256.128906 Z M 256.128906 -68.628906 " clip-rule="nonzero"/></clipPath><clipPath id="19b8a958bd"><path d="M 193 191 L 212 191 L 212 231 L 193 231 Z M 193 191 " clip-rule="nonzero"/></clipPath><clipPath id="52ec92b473"><path d="M -68.628906 118.871094 L 256.128906 -68.628906 L 443.628906 256.128906 L 118.871094 443.628906 Z M -68.628906 118.871094 " clip-rule="nonzero"/></clipPath><clipPath id="16514901f0"><path d="M 256.128906 -68.628906 L -68.628906 118.871094 L 118.871094 443.628906 L 443.628906 256.128906 Z M 256.128906 -68.628906 " clip-rule="nonzero"/></clipPath><clipPath id="e7b04646ba"><path d="M 256.128906 -68.628906 L -68.628906 118.871094 L 118.871094 443.628906 L 443.628906 256.128906 Z M 256.128906 -68.628906 " clip-rule="nonzero"/></clipPath><clipPath id="ff6345ed77"><path d="M 169 184 L 187 184 L 187 203 L 169 203 Z M 169 184 " clip-rule="nonzero"/></clipPath><clipPath id="69ec2c0061"><path d="M -68.628906 118.871094 L 256.128906 -68.628906 L 443.628906 256.128906 L 118.871094 443.628906 Z M -68.628906 118.871094 " clip-rule="nonzero"/></clipPath><clipPath id="d67e8a88e6"><path d="M 256.128906 -68.628906 L -68.628906 118.871094 L 118.871094 443.628906 L 443.628906 256.128906 Z M 256.128906 -68.628906 " clip-rule="nonzero"/></clipPath><clipPath id="a277b0826f"><path d="M 256.128906 -68.628906 L -68.628906 118.871094 L 118.871094 443.628906 L 443.628906 256.128906 Z M 256.128906 -68.628906 " clip-rule="nonzero"/></clipPath><clipPath id="c4f9cd7edf"><path d="M 112 171 L 205 171 L 205 264 L 112 264 Z M 112 171 " clip-rule="nonzero"/></clipPath><clipPath id="aa9b7b2cc1"><path d="M -68.628906 118.871094 L 256.128906 -68.628906 L 443.628906 256.128906 L 118.871094 443.628906 Z M -68.628906 118.871094 " clip-rule="nonzero"/></clipPath><clipPath id="eaf75b2c60"><path d="M 256.128906 -68.628906 L -68.628906 118.871094 L 118.871094 443.628906 L 443.628906 256.128906 Z M 256.128906 -68.628906 " clip-rule="nonzero"/></clipPath><clipPath id="20b87bb4ce"><path d="M 256.128906 -68.628906 L -68.628906 118.871094 L 118.871094 443.628906 L 443.628906 256.128906 Z M 256.128906 -68.628906 " clip-rule="nonzero"/></clipPath><clipPath id="8859a789f7"><path d="M 127 207 L 200 207 L 200 251 L 127 251 Z M 127 207 " clip-rule="nonzero"/></clipPath><clipPath id="f9338f76ea"><path d="M -68.628906 118.871094 L 256.128906 -68.628906 L 443.628906 256.128906 L 118.871094 443.628906 Z M -68.628906 118.871094 " clip-rule="nonzero"/></clipPath><clipPath id="f2bde9b38b"><path d="M 256.128906 -68.628906 L -68.628906 118.871094 L 118.871094 443.628906 L 443.628906 256.128906 Z M 256.128906 -68.628906 " clip-rule="nonzero"/></clipPath><clipPath id="3dfb109a62"><path d="M 256.128906 -68.628906 L -68.628906 118.871094 L 118.871094 443.628906 L 443.628906 256.128906 Z M 256.128906 -68.628906 " clip-rule="nonzero"/></clipPath><clipPath id="ddffb48b93"><path d="M 141 220 L 202 220 L 202 255 L 141 255 Z M 141 220 " clip-rule="nonzero"/></clipPath><clipPath id="17813ea92f"><path d="M -68.628906 118.871094 L 256.128906 -68.628906 L 443.628906 256.128906 L 118.871094 443.628906 Z M -68.628906 118.871094 " clip-rule="nonzero"/></clipPath><clipPath id="7fa7f71606"><path d="M 256.128906 -68.628906 L -68.628906 118.871094 L 118.871094 443.628906 L 443.628906 256.128906 Z M 256.128906 -68.628906 " clip-rule="nonzero"/></clipPath><clipPath id="0b52d3e51e"><path d="M 256.128906 -68.628906 L -68.628906 118.871094 L 118.871094 443.628906 L 443.628906 256.128906 Z M 256.128906 -68.628906 " clip-rule="nonzero"/></clipPath><clipPath id="820379b529"><path d="M 183 96 L 252 96 L 252 188 L 183 188 Z M 183 96 " clip-rule="nonzero"/></clipPath><clipPath id="03f1d2a8ff"><path d="M -68.628906 118.871094 L 256.128906 -68.628906 L 443.628906 256.128906 L 118.871094 443.628906 Z M -68.628906 118.871094 " clip-rule="nonzero"/></clipPath><clipPath id="01de19df33"><path d="M 256.128906 -68.628906 L -68.628906 118.871094 L 118.871094 443.628906 L 443.628906 256.128906 Z M 256.128906 -68.628906 " clip-rule="nonzero"/></clipPath><clipPath id="8e51b42058"><path d="M 256.128906 -68.628906 L -68.628906 118.871094 L 118.871094 443.628906 L 443.628906 256.128906 Z M 256.128906 -68.628906 " clip-rule="nonzero"/></clipPath><clipPath id="a94786933d"><path d="M 185 111 L 240 111 L 240 183 L 185 183 Z M 185 111 " clip-rule="nonzero"/></clipPath><clipPath id="1e5d9dd637"><path d="M -68.628906 118.871094 L 256.128906 -68.628906 L 443.628906 256.128906 L 118.871094 443.628906 Z M -68.628906 118.871094 " clip-rule="nonzero"/></clipPath><clipPath id="b7a97200d3"><path d="M 256.128906 -68.628906 L -68.628906 118.871094 L 118.871094 443.628906 L 443.628906 256.128906 Z M 256.128906 -68.628906 " clip-rule="nonzero"/></clipPath><clipPath id="7d07e1603f"><path d="M 256.128906 -68.628906 L -68.628906 118.871094 L 118.871094 443.628906 L 443.628906 256.128906 Z M 256.128906 -68.628906 " clip-rule="nonzero"/></clipPath><clipPath id="e66157cfdb"><path d="M 186 147 L 231 147 L 231 185 L 186 185 Z M 186 147 " clip-rule="nonzero"/></clipPath><clipPath id="992e5871de"><path d="M -68.628906 118.871094 L 256.128906 -68.628906 L 443.628906 256.128906 L 118.871094 443.628906 Z M -68.628906 118.871094 " clip-rule="nonzero"/></clipPath><clipPath id="f8dfff9a03"><path d="M 256.128906 -68.628906 L -68.628906 118.871094 L 118.871094 443.628906 L 443.628906 256.128906 Z M 256.128906 -68.628906 " clip-rule="nonzero"/></clipPath><clipPath id="9db49d065e"><path d="M 256.128906 -68.628906 L -68.628906 118.871094 L 118.871094 443.628906 L 443.628906 256.128906 Z M 256.128906 -68.628906 " clip-rule="nonzero"/></clipPath><clipPath id="50db3460b1"><path d="M 228 210 L 270 210 L 270 309 L 228 309 Z M 228 210 " clip-rule="nonzero"/></clipPath><clipPath id="fe58378414"><path d="M -68.628906 118.871094 L 256.128906 -68.628906 L 443.628906 256.128906 L 118.871094 443.628906 Z M -68.628906 118.871094 " clip-rule="nonzero"/></clipPath><clipPath id="cd19bbaed9"><path d="M 256.128906 -68.628906 L -68.628906 118.871094 L 118.871094 443.628906 L 443.628906 256.128906 Z M 256.128906 -68.628906 " clip-rule="nonzero"/></clipPath><clipPath id="bfe13f6d0e"><path d="M 256.128906 -68.628906 L -68.628906 118.871094 L 118.871094 443.628906 L 443.628906 256.128906 Z M 256.128906 -68.628906 " clip-rule="nonzero"/></clipPath><clipPath id="804a423383"><path d="M 236 233 L 260 233 L 260 304 L 236 304 Z M 236 233 " clip-rule="nonzero"/></clipPath><clipPath id="c86e20b4af"><path d="M -68.628906 118.871094 L 256.128906 -68.628906 L 443.628906 256.128906 L 118.871094 443.628906 Z M -68.628906 118.871094 " clip-rule="nonzero"/></clipPath><clipPath id="d70149cf5d"><path d="M 256.128906 -68.628906 L -68.628906 118.871094 L 118.871094 443.628906 L 443.628906 256.128906 Z M 256.128906 -68.628906 " clip-rule="nonzero"/></clipPath><clipPath id="0223055225"><path d="M 256.128906 -68.628906 L -68.628906 118.871094 L 118.871094 443.628906 L 443.628906 256.128906 Z M 256.128906 -68.628906 " clip-rule="nonzero"/></clipPath><clipPath id="282c2843d7"><path d="M 229 254 L 245 254 L 245 309 L 229 309 Z M 229 254 " clip-rule="nonzero"/></clipPath><clipPath id="17013e4d28"><path d="M -68.628906 118.871094 L 256.128906 -68.628906 L 443.628906 256.128906 L 118.871094 443.628906 Z M -68.628906 118.871094 " clip-rule="nonzero"/></clipPath><clipPath id="cf054a351f"><path d="M 256.128906 -68.628906 L -68.628906 118.871094 L 118.871094 443.628906 L 443.628906 256.128906 Z M 256.128906 -68.628906 " clip-rule="nonzero"/></clipPath><clipPath id="b8e19d7042"><path d="M 256.128906 -68.628906 L -68.628906 118.871094 L 118.871094 443.628906 L 443.628906 256.128906 Z M 256.128906 -68.628906 " clip-rule="nonzero"/></clipPath><clipPath id="56f4fa3f27"><path d="M 207 302 L 233 302 L 233 311 L 207 311 Z M 207 302 " clip-rule="nonzero"/></clipPath><clipPath id="143e9047ae"><path d="M -68.628906 118.871094 L 256.128906 -68.628906 L 443.628906 256.128906 L 118.871094 443.628906 Z M -68.628906 118.871094 " clip-rule="nonzero"/></clipPath><clipPath id="796fb57b0c"><path d="M 256.128906 -68.628906 L -68.628906 118.871094 L 118.871094 443.628906 L 443.628906 256.128906 Z M 256.128906 -68.628906 " clip-rule="nonzero"/></clipPath><clipPath id="3dfd6261d7"><path d="M 256.128906 -68.628906 L -68.628906 118.871094 L 118.871094 443.628906 L 443.628906 256.128906 Z M 256.128906 -68.628906 " clip-rule="nonzero"/></clipPath><clipPath id="3661188f50"><path d="M 115 12 L 179 12 L 179 88 L 115 88 Z M 115 12 " clip-rule="nonzero"/></clipPath><clipPath id="d7f3ed627e"><path d="M -68.628906 118.871094 L 256.128906 -68.628906 L 443.628906 256.128906 L 118.871094 443.628906 Z M -68.628906 118.871094 " clip-rule="nonzero"/></clipPath><clipPath id="4b17acae8c"><path d="M 256.128906 -68.628906 L -68.628906 118.871094 L 118.871094 443.628906 L 443.628906 256.128906 Z M 256.128906 -68.628906 " clip-rule="nonzero"/></clipPath><clipPath id="f9b85013e5"><path d="M 256.128906 -68.628906 L -68.628906 118.871094 L 118.871094 443.628906 L 443.628906 256.128906 Z M 256.128906 -68.628906 " clip-rule="nonzero"/></clipPath><clipPath id="a621ffcc16"><path d="M 153 42 L 180 42 L 180 86 L 153 86 Z M 153 42 " clip-rule="nonzero"/></clipPath><clipPath id="b2d5ad53fc"><path d="M -68.628906 118.871094 L 256.128906 -68.628906 L 443.628906 256.128906 L 118.871094 443.628906 Z M -68.628906 118.871094 " clip-rule="nonzero"/></clipPath><clipPath id="2e2c5e590b"><path d="M 256.128906 -68.628906 L -68.628906 118.871094 L 118.871094 443.628906 L 443.628906 256.128906 Z M 256.128906 -68.628906 " clip-rule="nonzero"/></clipPath><clipPath id="fef26f5a5a"><path d="M 256.128906 -68.628906 L -68.628906 118.871094 L 118.871094 443.628906 L 443.628906 256.128906 Z M 256.128906 -68.628906 " clip-rule="nonzero"/></clipPath><clipPath id="40f078faf5"><path d="M 105 83 L 185 83 L 185 148 L 105 148 Z M 105 83 " clip-rule="nonzero"/></clipPath><clipPath id="3df11dc9ad"><path d="M -68.628906 118.871094 L 256.128906 -68.628906 L 443.628906 256.128906 L 118.871094 443.628906 Z M -68.628906 118.871094 " clip-rule="nonzero"/></clipPath><clipPath id="2695e6a760"><path d="M 256.128906 -68.628906 L -68.628906 118.871094 L 118.871094 443.628906 L 443.628906 256.128906 Z M 256.128906 -68.628906 " clip-rule="nonzero"/></clipPath><clipPath id="549b1849f1"><path d="M 256.128906 -68.628906 L -68.628906 118.871094 L 118.871094 443.628906 L 443.628906 256.128906 Z M 256.128906 -68.628906 " clip-rule="nonzero"/></clipPath><clipPath id="9c7a35fcd9"><path d="M 116 107 L 183 107 L 183 144 L 116 144 Z M 116 107 " clip-rule="nonzero"/></clipPath><clipPath id="69f10cc397"><path d="M -68.628906 118.871094 L 256.128906 -68.628906 L 443.628906 256.128906 L 118.871094 443.628906 Z M -68.628906 118.871094 " clip-rule="nonzero"/></clipPath><clipPath id="058a72ff88"><path d="M 256.128906 -68.628906 L -68.628906 118.871094 L 118.871094 443.628906 L 443.628906 256.128906 Z M 256.128906 -68.628906 " clip-rule="nonzero"/></clipPath><clipPath id="98e05f0411"><path d="M 256.128906 -68.628906 L -68.628906 118.871094 L 118.871094 443.628906 L 443.628906 256.128906 Z M 256.128906 -68.628906 " clip-rule="nonzero"/></clipPath><clipPath id="a7c136182c"><path d="M 129 127 L 180 127 L 180 143 L 129 143 Z M 129 127 " clip-rule="nonzero"/></clipPath><clipPath id="d07bf69af7"><path d="M -68.628906 118.871094 L 256.128906 -68.628906 L 443.628906 256.128906 L 118.871094 443.628906 Z M -68.628906 118.871094 " clip-rule="nonzero"/></clipPath><clipPath id="a08d5d843f"><path d="M 256.128906 -68.628906 L -68.628906 118.871094 L 118.871094 443.628906 L 443.628906 256.128906 Z M 256.128906 -68.628906 " clip-rule="nonzero"/></clipPath><clipPath id="835f0fa01b"><path d="M 256.128906 -68.628906 L -68.628906 118.871094 L 118.871094 443.628906 L 443.628906 256.128906 Z M 256.128906 -68.628906 " clip-rule="nonzero"/></clipPath><clipPath id="741ca779c3"><path d="M 183 125 L 200 125 L 200 145 L 183 145 Z M 183 125 " clip-rule="nonzero"/></clipPath><clipPath id="f4a065b5ea"><path d="M -68.628906 118.871094 L 256.128906 -68.628906 L 443.628906 256.128906 L 118.871094 443.628906 Z M -68.628906 118.871094 " clip-rule="nonzero"/></clipPath><clipPath id="0bad576622"><path d="M 256.128906 -68.628906 L -68.628906 118.871094 L 118.871094 443.628906 L 443.628906 256.128906 Z M 256.128906 -68.628906 " clip-rule="nonzero"/></clipPath><clipPath id="c66ba1566e"><path d="M 256.128906 -68.628906 L -68.628906 118.871094 L 118.871094 443.628906 L 443.628906 256.128906 Z M 256.128906 -68.628906 " clip-rule="nonzero"/></clipPath><clipPath id="0fcfbce4fb"><path d="M 205 237 L 217 237 L 217 257 L 205 257 Z M 205 237 " clip-rule="nonzero"/></clipPath><clipPath id="13d624765e"><path d="M -68.628906 118.871094 L 256.128906 -68.628906 L 443.628906 256.128906 L 118.871094 443.628906 Z M -68.628906 118.871094 " clip-rule="nonzero"/></clipPath><clipPath id="d45ab02078"><path d="M 256.128906 -68.628906 L -68.628906 118.871094 L 118.871094 443.628906 L 443.628906 256.128906 Z M 256.128906 -68.628906 " clip-rule="nonzero"/></clipPath><clipPath id="cb16e2df2a"><path d="M 256.128906 -68.628906 L -68.628906 118.871094 L 118.871094 443.628906 L 443.628906 256.128906 Z M 256.128906 -68.628906 " clip-rule="nonzero"/></clipPath><clipPath id="ed62310a26"><path d="M 197 273 L 219 273 L 219 283 L 197 283 Z M 197 273 " clip-rule="nonzero"/></clipPath><clipPath id="6a9ad1dd5e"><path d="M -68.628906 118.871094 L 256.128906 -68.628906 L 443.628906 256.128906 L 118.871094 443.628906 Z M -68.628906 118.871094 " clip-rule="nonzero"/></clipPath><clipPath id="1501bded7e"><path d="M 256.128906 -68.628906 L -68.628906 118.871094 L 118.871094 443.628906 L 443.628906 256.128906 Z M 256.128906 -68.628906 " clip-rule="nonzero"/></clipPath><clipPath id="d62c724cc1"><path d="M 256.128906 -68.628906 L -68.628906 118.871094 L 118.871094 443.628906 L 443.628906 256.128906 Z M 256.128906 -68.628906 " clip-rule="nonzero"/></clipPath><clipPath id="c09811b3ec"><path d="M 246 312 L 260 312 L 260 334 L 246 334 Z M 246 312 " clip-rule="nonzero"/></clipPath><clipPath id="bd9980461b"><path d="M -68.628906 118.871094 L 256.128906 -68.628906 L 443.628906 256.128906 L 118.871094 443.628906 Z M -68.628906 118.871094 " clip-rule="nonzero"/></clipPath><clipPath id="47c1569811"><path d="M 256.128906 -68.628906 L -68.628906 118.871094 L 118.871094 443.628906 L 443.628906 256.128906 Z M 256.128906 -68.628906 " clip-rule="nonzero"/></clipPath><clipPath id="5fca2dac78"><path d="M 256.128906 -68.628906 L -68.628906 118.871094 L 118.871094 443.628906 L 443.628906 256.128906 Z M 256.128906 -68.628906 " clip-rule="nonzero"/></clipPath><clipPath id="ae61ecf9d7"><path d="M 155 295 L 252 295 L 252 362 L 155 362 Z M 155 295 " clip-rule="nonzero"/></clipPath><clipPath id="1190c0924d"><path d="M -68.628906 118.871094 L 256.128906 -68.628906 L 443.628906 256.128906 L 118.871094 443.628906 Z M -68.628906 118.871094 " clip-rule="nonzero"/></clipPath><clipPath id="eee7b0849f"><path d="M 256.128906 -68.628906 L -68.628906 118.871094 L 118.871094 443.628906 L 443.628906 256.128906 Z M 256.128906 -68.628906 " clip-rule="nonzero"/></clipPath><clipPath id="bf339e4ad7"><path d="M 256.128906 -68.628906 L -68.628906 118.871094 L 118.871094 443.628906 L 443.628906 256.128906 Z M 256.128906 -68.628906 " clip-rule="nonzero"/></clipPath><clipPath id="e7a1896aaa"><path d="M 175 322 L 245 322 L 245 337 L 175 337 Z M 175 322 " clip-rule="nonzero"/></clipPath><clipPath id="4f934c4e7b"><path d="M -68.628906 118.871094 L 256.128906 -68.628906 L 443.628906 256.128906 L 118.871094 443.628906 Z M -68.628906 118.871094 " clip-rule="nonzero"/></clipPath><clipPath id="46781dafbe"><path d="M 256.128906 -68.628906 L -68.628906 118.871094 L 118.871094 443.628906 L 443.628906 256.128906 Z M 256.128906 -68.628906 " clip-rule="nonzero"/></clipPath><clipPath id="57516b2aec"><path d="M 256.128906 -68.628906 L -68.628906 118.871094 L 118.871094 443.628906 L 443.628906 256.128906 Z M 256.128906 -68.628906 " clip-rule="nonzero"/></clipPath><clipPath id="be4e8968f5"><path d="M 165 321 L 247 321 L 247 349 L 165 349 Z M 165 321 " clip-rule="nonzero"/></clipPath><clipPath id="64fe7d2e1e"><path d="M -68.628906 118.871094 L 256.128906 -68.628906 L 443.628906 256.128906 L 118.871094 443.628906 Z M -68.628906 118.871094 " clip-rule="nonzero"/></clipPath><clipPath id="c46d7a87e6"><path d="M 256.128906 -68.628906 L -68.628906 118.871094 L 118.871094 443.628906 L 443.628906 256.128906 Z M 256.128906 -68.628906 " clip-rule="nonzero"/></clipPath><clipPath id="6085b3e913"><path d="M 256.128906 -68.628906 L -68.628906 118.871094 L 118.871094 443.628906 L 443.628906 256.128906 Z M 256.128906 -68.628906 " clip-rule="nonzero"/></clipPath><clipPath id="84fccde793"><rect x="0" width="375" y="0" height="375"/></clipPath></defs><g mask="url(#57a1eff151)"><g transform="matrix(1, 0, 0, 1, 0, 0)"><g clip-path="url(#84fccde793)"><g clip-path="url(#0b23c62a0f)"><g clip-path="url(#4a8acbda92)"><g clip-path="url(#22f824563a)"><g clip-path="url(#a008abbee6)"><path fill="#ffffff" d="M 144.03125 41.519531 C 163.800781 52.667969 175.109375 74.019531 180.171875 95.5 C 185.828125 119.53125 184.011719 144.5 184.957031 168.984375 C 185.722656 188.976562 190.035156 208.328125 196.386719 227.273438 C 203.191406 247.601562 212.089844 267.199219 222.238281 286.03125 C 232.972656 305.878906 245.21875 324.996094 259.09375 342.832031 C 260.898438 345.125 257.742188 348.445312 255.859375 346.105469 C 243.441406 330.707031 232.726562 313.988281 223.035156 296.78125 C 212.539062 278.101562 203.328125 258.632812 195.933594 238.546875 C 189.144531 220 183.804688 200.714844 182.039062 181.003906 C 179.859375 156.800781 182.628906 132.398438 179.542969 108.226562 C 176.355469 83.203125 165.996094 56.476562 143.15625 43.183594 C 142.101562 42.535156 143.019531 40.945312 144.03125 41.519531 Z M 144.03125 41.519531 " fill-opacity="1" fill-rule="nonzero"/></g></g></g></g><g clip-path="url(#588c021a80)"><g clip-path="url(#2d4cb0dded)"><g clip-path="url(#8fc8045f5c)"><g clip-path="url(#7c71c09b4b)"><path fill="#ffffff" d="M 191.8125 82.6875 C 195.113281 86.820312 193.464844 92.753906 192.339844 97.414062 C 191.695312 100.152344 190.882812 102.84375 189.652344 105.390625 C 188.644531 107.421875 186.960938 110.617188 184.59375 111.113281 C 183.523438 111.34375 182.488281 110.394531 182.816406 109.289062 C 183.359375 107.378906 185.253906 105.902344 186.296875 104.1875 C 187.558594 102.101562 188.492188 99.875 189.257812 97.597656 C 190.675781 93.445312 193.34375 87.605469 190.699219 83.523438 C 190.265625 82.859375 191.304688 82.066406 191.8125 82.6875 Z M 191.8125 82.6875 " fill-opacity="1" fill-rule="nonzero"/></g></g></g></g><g clip-path="url(#e5498005e0)"><g clip-path="url(#c76edbe797)"><g clip-path="url(#8750092edb)"><g clip-path="url(#ac6e0c1606)"><path fill="#ffffff" d="M 160.410156 97.679688 C 168.257812 101.894531 175.992188 108.347656 179.859375 116.554688 C 180.820312 118.554688 178 120.28125 176.851562 118.289062 C 174.617188 114.507812 172.46875 110.863281 169.589844 107.554688 C 166.6875 104.199219 163.445312 101.339844 159.699219 98.960938 C 158.847656 98.488281 159.558594 97.207031 160.410156 97.679688 Z M 160.410156 97.679688 " fill-opacity="1" fill-rule="nonzero"/></g></g></g></g><g clip-path="url(#19b8a958bd)"><g clip-path="url(#52ec92b473)"><g clip-path="url(#16514901f0)"><g clip-path="url(#e7b04646ba)"><path fill="#ffffff" d="M 211.492188 192.605469 C 203.765625 203.734375 199.289062 216.316406 197.011719 229.617188 C 196.660156 231.851562 193.300781 230.890625 193.640625 228.714844 C 195.71875 215.242188 202.054688 202.449219 210.648438 191.976562 C 211.019531 191.527344 211.839844 192.113281 211.492188 192.605469 Z M 211.492188 192.605469 " fill-opacity="1" fill-rule="nonzero"/></g></g></g></g><g clip-path="url(#ff6345ed77)"><g clip-path="url(#69ec2c0061)"><g clip-path="url(#d67e8a88e6)"><g clip-path="url(#a277b0826f)"><path fill="#ffffff" d="M 170.632812 184.597656 C 175.585938 190 181.234375 194.757812 185.90625 200.417969 C 187.039062 201.792969 185.238281 203.703125 183.925781 202.433594 C 178.738281 197.214844 174.5625 191.070312 169.660156 185.589844 C 169.078125 184.910156 170.035156 183.976562 170.632812 184.597656 Z M 170.632812 184.597656 " fill-opacity="1" fill-rule="nonzero"/></g></g></g></g><g clip-path="url(#c4f9cd7edf)"><g clip-path="url(#aa9b7b2cc1)"><g clip-path="url(#eaf75b2c60)"><g clip-path="url(#20b87bb4ce)"><path fill="#ffffff" d="M 204.277344 258.859375 C 200.441406 251.117188 194.828125 245.082031 187.644531 240.339844 C 180.675781 235.714844 172.964844 232.488281 165.703125 228.363281 C 151.578125 220.382812 140.152344 208.960938 130.1875 196.300781 C 124.5625 189.160156 119.375 181.671875 114.179688 174.183594 C 115.316406 174.0625 116.464844 173.878906 117.601562 173.753906 C 113.273438 191.617188 121.792969 210.472656 130.632812 225.613281 C 139.636719 241.046875 153.210938 256.015625 171.988281 258.074219 C 181.160156 259.0625 190.6875 256.992188 197.496094 250.453125 C 199.761719 248.273438 203.289062 251.699219 200.984375 253.902344 C 187.207031 267.117188 165.089844 264.957031 150.285156 254.710938 C 141.753906 248.8125 134.992188 240.78125 129.554688 232.035156 C 124.210938 223.527344 119.714844 214.230469 116.476562 204.699219 C 113.03125 194.464844 111.359375 183.449219 113.964844 172.8125 C 114.390625 171.117188 116.507812 171.105469 117.386719 172.382812 C 126.65625 185.921875 136.0625 199.53125 147.847656 210.988281 C 153.796875 216.78125 160.324219 221.808594 167.507812 225.96875 C 174.832031 230.199219 182.476562 233.898438 189.285156 238.910156 C 195.992188 243.832031 202.628906 250.390625 204.757812 258.675781 C 204.902344 258.929688 204.445312 259.144531 204.277344 258.859375 Z M 204.277344 258.859375 " fill-opacity="1" fill-rule="nonzero"/></g></g></g></g><g clip-path="url(#8859a789f7)"><g clip-path="url(#f9338f76ea)"><g clip-path="url(#f2bde9b38b)"><g clip-path="url(#3dfb109a62)"><path fill="#ffffff" d="M 128.246094 207.425781 C 135.058594 220.644531 145.570312 231.824219 158.859375 238.601562 C 164.835938 241.671875 171.238281 243.726562 177.878906 244.765625 C 184.640625 245.84375 191.242188 245.316406 198.011719 244.984375 C 200.308594 244.867188 200.648438 248.292969 198.492188 248.910156 C 187.953125 251.757812 175.457031 249.695312 165.40625 245.929688 C 154.363281 241.773438 144.484375 234.625 137.246094 225.273438 C 133.082031 219.902344 129.886719 214.109375 127.664062 207.664062 C 127.53125 207.355469 128.058594 207.097656 128.246094 207.425781 Z M 128.246094 207.425781 " fill-opacity="1" fill-rule="nonzero"/></g></g></g></g><g clip-path="url(#ddffb48b93)"><g clip-path="url(#17813ea92f)"><g clip-path="url(#7fa7f71606)"><g clip-path="url(#0b52d3e51e)"><path fill="#ffffff" d="M 142.6875 220.878906 C 151.328125 228.738281 162.386719 232.742188 173.371094 236.210938 C 178.570312 237.847656 183.882812 239.179688 188.886719 241.3125 C 193.582031 243.339844 198.847656 246.433594 201.300781 251.105469 C 202.296875 252.992188 199.589844 255.425781 198.132812 253.5625 C 196.410156 251.417969 194.824219 249.429688 192.5 247.828125 C 190.230469 246.238281 187.703125 245.039062 185.148438 244.054688 C 179.984375 242.054688 174.679688 240.480469 169.484375 238.503906 C 159.335938 234.652344 149.558594 229.523438 142.097656 221.457031 C 141.742188 221.085938 142.289062 220.527344 142.6875 220.878906 Z M 142.6875 220.878906 " fill-opacity="1" fill-rule="nonzero"/></g></g></g></g><g clip-path="url(#820379b529)"><g clip-path="url(#03f1d2a8ff)"><g clip-path="url(#01de19df33)"><g clip-path="url(#8e51b42058)"><path fill="#ffffff" d="M 188.714844 186.621094 C 184.09375 174.9375 188.550781 162.652344 195.929688 153.175781 C 205.5 140.882812 219.554688 132.917969 228.566406 120.078125 C 233.320312 113.324219 236.824219 105.839844 238.992188 97.871094 C 239.371094 96.445312 240.992188 96.234375 241.996094 97.054688 C 248.476562 102.253906 251.765625 110.550781 251.957031 118.746094 C 252.167969 126.890625 249.402344 134.820312 245.742188 141.957031 C 238.085938 156.8125 225.976562 169.3125 211.535156 177.695312 C 203.660156 182.292969 194.226562 186.628906 185.046875 187.386719 C 182.699219 187.582031 182.546875 184.144531 184.566406 183.460938 C 188.28125 182.1875 192.089844 181.339844 195.78125 180.03125 C 199.398438 178.761719 202.90625 177.222656 206.304688 175.5 C 213.199219 171.957031 219.585938 167.445312 225.25 162.195312 C 230.875 156.964844 235.773438 151.046875 239.761719 144.488281 C 243.691406 138.066406 246.996094 130.988281 247.945312 123.429688 C 249.050781 114.628906 246.582031 105.328125 239.46875 99.625 C 240.464844 99.34375 241.484375 99.09375 242.476562 98.808594 C 238.613281 112.539062 231.027344 124.503906 220.601562 134.148438 C 210.089844 143.890625 197.601562 151.972656 191.472656 165.460938 C 188.546875 171.933594 187.253906 179.492188 189.394531 186.375 C 189.554688 186.910156 188.871094 187.0625 188.714844 186.621094 Z M 188.714844 186.621094 " fill-opacity="1" fill-rule="nonzero"/></g></g></g></g><g clip-path="url(#a94786933d)"><g clip-path="url(#1e5d9dd637)"><g clip-path="url(#b7a97200d3)"><g clip-path="url(#7d07e1603f)"><path fill="#ffffff" d="M 237.339844 111.917969 C 242.183594 121.976562 236.832031 132.796875 229.734375 140.179688 C 221.308594 149.007812 210.972656 155.796875 202.285156 164.4375 C 199.863281 166.847656 197.539062 169.347656 195.429688 172.0625 C 193.167969 174.917969 191.519531 178.09375 189.546875 181.117188 C 188.308594 182.992188 184.71875 181.875 185.679688 179.527344 C 188.410156 172.785156 193.957031 166.832031 199.148438 161.847656 C 204.453125 156.804688 210.292969 152.273438 216.097656 147.765625 C 227.007812 139.386719 242.125 127.90625 237.03125 112.054688 C 236.960938 111.847656 237.273438 111.71875 237.339844 111.917969 Z M 237.339844 111.917969 " fill-opacity="1" fill-rule="nonzero"/></g></g></g></g><g clip-path="url(#e66157cfdb)"><g clip-path="url(#992e5871de)"><g clip-path="url(#f8dfff9a03)"><g clip-path="url(#9db49d065e)"><path fill="#ffffff" d="M 229.992188 148.488281 C 223.3125 154.664062 216.582031 160.824219 209.738281 166.800781 C 206.390625 169.703125 203.039062 172.601562 199.703125 175.441406 C 196.242188 178.410156 192.886719 181.796875 189.039062 184.261719 C 187.148438 185.5 185.128906 182.75 186.621094 181.160156 C 189.730469 177.917969 193.714844 175.277344 197.21875 172.484375 C 200.777344 169.609375 204.414062 166.78125 208.015625 163.976562 C 215.070312 158.457031 222.25 153.152344 229.464844 147.828125 C 229.878906 147.539062 230.386719 148.164062 229.992188 148.488281 Z M 229.992188 148.488281 " fill-opacity="1" fill-rule="nonzero"/></g></g></g></g><g clip-path="url(#50db3460b1)"><g clip-path="url(#fe58378414)"><g clip-path="url(#cd19bbaed9)"><g clip-path="url(#bfe13f6d0e)"><path fill="#ffffff" d="M 234.207031 308.351562 C 230.070312 294.410156 226.007812 280.089844 229.214844 265.480469 C 230.984375 257.5 234.820312 250.160156 238.394531 242.882812 C 242.304688 234.925781 246.195312 226.925781 250.101562 218.96875 C 251.421875 216.230469 252.800781 211.175781 256.199219 210.28125 C 259.59375 209.378906 261.351562 213.007812 262.621094 215.464844 C 265.671875 221.335938 267.742188 227.675781 268.808594 234.214844 C 271.023438 247.425781 269.429688 261.152344 264.785156 273.691406 C 262.101562 280.847656 258.519531 287.695312 253.859375 293.769531 C 248.855469 300.332031 241.84375 306.261719 233.183594 306.332031 C 230.246094 306.34375 230.316406 301.949219 233.234375 301.808594 C 246.265625 301.199219 254.539062 286.660156 259.269531 276.105469 C 264.160156 265.160156 266.488281 253.039062 265.773438 241.085938 C 265.371094 235.039062 264.148438 229.074219 262.0625 223.367188 C 261.011719 220.546875 259.777344 217.734375 258.253906 215.179688 C 257.835938 214.457031 257.476562 213.746094 256.597656 214.398438 C 256.054688 214.804688 255.710938 215.875 255.40625 216.4375 C 254.488281 218.273438 253.601562 220.089844 252.679688 221.925781 C 249.1875 229.015625 245.660156 236.125 242.167969 243.21875 C 238.886719 249.84375 235.21875 256.457031 232.925781 263.527344 C 228.296875 277.941406 231.300781 293.941406 234.746094 308.28125 C 234.878906 308.59375 234.324219 308.71875 234.207031 308.351562 Z M 234.207031 308.351562 " fill-opacity="1" fill-rule="nonzero"/></g></g></g></g><g clip-path="url(#804a423383)"><g clip-path="url(#c86e20b4af)"><g clip-path="url(#d70149cf5d)"><g clip-path="url(#0223055225)"><path fill="#ffffff" d="M 259.164062 233.40625 C 260.511719 246.203125 259.585938 258.910156 256.058594 271.292969 C 254.300781 277.375 251.898438 283.257812 248.953125 288.871094 C 247.492188 291.691406 245.839844 294.4375 244.089844 297.089844 C 243.261719 298.339844 242.394531 299.515625 241.492188 300.714844 C 240.550781 301.933594 239.78125 303.445312 238.148438 303.710938 C 237.125 303.867188 236.246094 303.261719 236.222656 302.214844 C 236.144531 300.664062 237.207031 299.660156 238.136719 298.5 C 239.089844 297.222656 240.023438 295.910156 240.957031 294.601562 C 242.648438 292.171875 244.21875 289.625 245.675781 287.039062 C 248.671875 281.6875 251.164062 276.046875 253.121094 270.230469 C 257.125 258.496094 259.140625 245.835938 258.449219 233.429688 C 258.402344 232.921875 259.097656 232.957031 259.164062 233.40625 Z M 259.164062 233.40625 " fill-opacity="1" fill-rule="nonzero"/></g></g></g></g><g clip-path="url(#282c2843d7)"><g clip-path="url(#17013e4d28)"><g clip-path="url(#cf054a351f)"><g clip-path="url(#b8e19d7042)"><path fill="#ffffff" d="M 244.902344 254.734375 C 244.703125 263.925781 244.003906 272.929688 242.054688 281.933594 C 240.175781 290.652344 237.304688 299.992188 232.839844 307.742188 C 231.582031 309.917969 228.621094 308.050781 229.539062 305.878906 C 231.210938 301.820312 233.207031 297.917969 234.832031 293.789062 C 236.460938 289.660156 237.816406 285.394531 239.113281 281.117188 C 241.621094 272.570312 243.558594 263.621094 244.167969 254.71875 C 244.140625 254.25 244.90625 254.242188 244.902344 254.734375 Z M 244.902344 254.734375 " fill-opacity="1" fill-rule="nonzero"/></g></g></g></g><g clip-path="url(#56f4fa3f27)"><g clip-path="url(#143e9047ae)"><g clip-path="url(#796fb57b0c)"><g clip-path="url(#3dfd6261d7)"><path fill="#ffffff" d="M 209.175781 302.65625 C 212.980469 303.554688 216.777344 304.355469 220.59375 305.199219 C 224.128906 305.957031 228.375 306.113281 231.636719 307.664062 C 233.238281 308.429688 232.34375 310.734375 230.792969 310.808594 C 228.847656 310.867188 226.914062 310.195312 225.03125 309.691406 C 223.273438 309.253906 221.503906 308.777344 219.769531 308.28125 C 216.011719 307.210938 212.320312 306.007812 208.609375 304.769531 C 207.289062 304.324219 207.789062 302.347656 209.175781 302.65625 Z M 209.175781 302.65625 " fill-opacity="1" fill-rule="nonzero"/></g></g></g></g><g clip-path="url(#3661188f50)"><g clip-path="url(#d7f3ed627e)"><g clip-path="url(#4b17acae8c)"><g clip-path="url(#f9b85013e5)"><path fill="#ffffff" d="M 175.519531 80.835938 C 175.710938 68.113281 177.144531 52.019531 164.863281 44.136719 C 159.894531 40.964844 154.171875 39.335938 148.601562 37.480469 C 142.84375 35.539062 137.285156 33.191406 132.085938 29.960938 C 125.9375 26.167969 120.402344 21.4375 115.707031 15.980469 C 116.839844 15.519531 117.976562 15.058594 119.085938 14.558594 C 119.273438 26.675781 126.65625 36.960938 135.128906 45.019531 C 144.15625 53.621094 155.039062 60 164.453125 68.191406 C 169.773438 72.800781 174.753906 78.089844 178.222656 84.257812 C 179.648438 86.816406 175.808594 89.03125 174.269531 86.539062 C 160.671875 64.574219 133.5 56.007812 120.507812 33.503906 C 117.160156 27.707031 115.144531 21.285156 115.074219 14.558594 C 115.054688 12.929688 117.347656 11.796875 118.460938 13.136719 C 122.835938 18.289062 127.894531 22.863281 133.585938 26.53125 C 139.113281 30.15625 145.054688 32.667969 151.253906 34.789062 C 156.886719 36.753906 162.734375 38.691406 167.601562 42.261719 C 172.898438 46.160156 175.894531 51.773438 177.15625 58.148438 C 178.609375 65.425781 178.90625 73.8125 176.804688 80.964844 C 176.660156 81.726562 175.496094 81.628906 175.519531 80.835938 Z M 175.519531 80.835938 " fill-opacity="1" fill-rule="nonzero"/></g></g></g></g><g clip-path="url(#a621ffcc16)"><g clip-path="url(#b2d5ad53fc)"><g clip-path="url(#2e2c5e590b)"><g clip-path="url(#fef26f5a5a)"><path fill="#ffffff" d="M 154.148438 42.734375 C 158.121094 43.917969 161.820312 47.144531 164.742188 49.949219 C 168.042969 53.070312 170.816406 56.785156 173.113281 60.679688 C 175.386719 64.535156 177.082031 68.726562 178.21875 73.042969 C 178.808594 75.316406 179.207031 77.597656 179.476562 79.90625 C 179.710938 81.898438 179.71875 83.921875 178.15625 85.402344 C 177.265625 86.207031 176.140625 86.179688 175.214844 85.410156 C 174.035156 84.449219 174.980469 83.082031 175.21875 82.320312 C 175.765625 80.5 175.027344 77.886719 174.710938 76.085938 C 173.867188 71.691406 172.433594 67.449219 170.449219 63.425781 C 168.503906 59.472656 166.054688 55.816406 163.210938 52.480469 C 160.347656 49.109375 156.746094 46.648438 153.707031 43.472656 C 153.484375 43.167969 153.75 42.625 154.148438 42.734375 Z M 154.148438 42.734375 " fill-opacity="1" fill-rule="nonzero"/></g></g></g></g><g clip-path="url(#40f078faf5)"><g clip-path="url(#3df11dc9ad)"><g clip-path="url(#2695e6a760)"><g clip-path="url(#549b1849f1)"><path fill="#ffffff" d="M 179.894531 142.140625 C 175.523438 135.242188 170.757812 128.90625 163.933594 124.203125 C 157.421875 119.699219 149.894531 117.375 142.511719 114.632812 C 135.414062 111.964844 129 108.472656 123.316406 103.394531 C 117.554688 98.265625 112.832031 92.101562 108.355469 85.84375 C 109.523438 85.699219 110.636719 85.535156 111.808594 85.390625 C 106.578125 99.09375 111.628906 114.195312 119.886719 125.570312 C 124.402344 131.800781 130.285156 137.730469 137.425781 140.808594 C 144.238281 143.734375 151.65625 143.03125 158.792969 142 C 166.789062 140.863281 174.859375 139.441406 182.785156 141.535156 C 185.621094 142.265625 184.441406 146.664062 181.621094 145.878906 C 174.148438 143.910156 166.480469 145.441406 159.027344 146.503906 C 151.390625 147.582031 143.644531 148.140625 136.34375 145.207031 C 128.65625 142.101562 122.476562 136.25 117.546875 129.71875 C 112.808594 123.519531 109.136719 116.410156 107.203125 108.875 C 105.105469 100.8125 105.058594 92.191406 108.191406 84.390625 C 108.789062 82.835938 110.679688 82.515625 111.648438 83.941406 C 118.644531 93.964844 126.53125 103.855469 137.667969 109.507812 C 143.136719 112.289062 149.007812 114.167969 154.59375 116.644531 C 159.984375 119.039062 164.953125 122.117188 169.296875 126.128906 C 173.984375 130.476562 178.242188 135.847656 180.480469 141.894531 C 180.574219 142.230469 180.0625 142.429688 179.894531 142.140625 Z M 179.894531 142.140625 " fill-opacity="1" fill-rule="nonzero"/></g></g></g></g><g clip-path="url(#9c7a35fcd9)"><g clip-path="url(#69f10cc397)"><g clip-path="url(#058a72ff88)"><g clip-path="url(#98e05f0411)"><path fill="#ffffff" d="M 116.898438 107.339844 C 134.863281 124.652344 161.730469 125.328125 181.746094 139.234375 C 183.839844 140.683594 181.871094 144.136719 179.777344 142.6875 C 160.03125 128.820312 131.589844 128.183594 116.539062 107.640625 C 116.359375 107.410156 116.734375 107.144531 116.898438 107.339844 Z M 116.898438 107.339844 " fill-opacity="1" fill-rule="nonzero"/></g></g></g></g><g clip-path="url(#a7c136182c)"><g clip-path="url(#d07bf69af7)"><g clip-path="url(#a08d5d843f)"><g clip-path="url(#835f0fa01b)"><path fill="#ffffff" d="M 130.144531 127.523438 C 136.457031 134.023438 146.332031 134.21875 154.78125 134.460938 C 158.988281 134.542969 163.191406 134.628906 167.394531 135.296875 C 171.308594 135.886719 176.007812 136.992188 179.066406 139.621094 C 180.390625 140.742188 178.992188 143.335938 177.339844 142.648438 C 175.320312 141.835938 173.53125 140.738281 171.445312 140.058594 C 169.328125 139.398438 167.144531 138.96875 164.953125 138.6875 C 160.515625 138.109375 156.011719 138.097656 151.570312 137.765625 C 143.320312 137.117188 134.964844 134.789062 129.421875 128.277344 C 129 127.796875 129.683594 127.066406 130.144531 127.523438 Z M 130.144531 127.523438 " fill-opacity="1" fill-rule="nonzero"/></g></g></g></g><g clip-path="url(#741ca779c3)"><g clip-path="url(#f4a065b5ea)"><g clip-path="url(#0bad576622)"><g clip-path="url(#c66ba1566e)"><path fill="#ffffff" d="M 198.980469 126.484375 C 197.03125 129.640625 195.175781 132.785156 193.070312 135.835938 C 191.121094 138.652344 189.070312 141.964844 186.527344 144.253906 C 184.796875 145.78125 182.566406 143.5 184.035156 141.777344 C 186.203125 139.175781 188.976562 136.945312 191.300781 134.445312 C 193.765625 131.765625 196.125 128.996094 198.160156 125.988281 C 198.484375 125.460938 199.335938 125.941406 198.980469 126.484375 Z M 198.980469 126.484375 " fill-opacity="1" fill-rule="nonzero"/></g></g></g></g><g clip-path="url(#0fcfbce4fb)"><g clip-path="url(#13d624765e)"><g clip-path="url(#d45ab02078)"><g clip-path="url(#cb16e2df2a)"><path fill="#ffffff" d="M 216.386719 238.820312 C 213.636719 244.273438 211.5 250.195312 208.40625 255.460938 C 207.417969 257.089844 205.007812 255.683594 205.882812 254.019531 C 208.570312 248.550781 212.359375 243.5625 215.433594 238.257812 C 215.769531 237.582031 216.742188 238.179688 216.386719 238.820312 Z M 216.386719 238.820312 " fill-opacity="1" fill-rule="nonzero"/></g></g></g></g><g clip-path="url(#ed62310a26)"><g clip-path="url(#6a9ad1dd5e)"><g clip-path="url(#1501bded7e)"><g clip-path="url(#d62c724cc1)"><path fill="#ffffff" d="M 198.164062 273.792969 C 204.640625 274.546875 211.875 276.117188 217.3125 279.839844 C 218.914062 280.945312 217.609375 283.195312 215.855469 282.421875 C 212.871094 281.101562 210.050781 279.394531 206.960938 278.230469 C 204.019531 277.078125 201.054688 276.03125 197.988281 275.246094 C 197.171875 275.085938 197.296875 273.710938 198.164062 273.792969 Z M 198.164062 273.792969 " fill-opacity="1" fill-rule="nonzero"/></g></g></g></g><g clip-path="url(#c09811b3ec)"><g clip-path="url(#bd9980461b)"><g clip-path="url(#47c1569811)"><g clip-path="url(#5fca2dac78)"><path fill="#ffffff" d="M 259.707031 313.679688 C 258.011719 317.363281 256.222656 320.960938 254.207031 324.492188 C 252.472656 327.523438 250.613281 331.496094 247.816406 333.59375 C 247.117188 334.140625 245.898438 333.203125 246.242188 332.375 C 246.921875 330.628906 248.246094 329.238281 249.339844 327.785156 C 250.488281 326.253906 251.59375 324.742188 252.683594 323.199219 C 254.925781 319.96875 256.976562 316.660156 258.910156 313.226562 C 259.175781 312.683594 259.933594 313.164062 259.707031 313.679688 Z M 259.707031 313.679688 " fill-opacity="1" fill-rule="nonzero"/></g></g></g></g><g clip-path="url(#ae61ecf9d7)"><g clip-path="url(#1190c0924d)"><g clip-path="url(#eee7b0849f)"><g clip-path="url(#bf339e4ad7)"><path fill="#ffffff" d="M 250.597656 334.402344 C 241.578125 324.632812 228.023438 320.234375 214.921875 320.644531 C 208.09375 320.867188 201.671875 323.222656 194.9375 323.777344 C 187.96875 324.417969 182.011719 321.722656 176.570312 317.566406 C 169.355469 312.019531 162.902344 305.359375 157.082031 298.378906 C 158.007812 298.136719 158.929688 297.890625 159.832031 297.613281 C 155.699219 314.976562 164.550781 332.820312 176.976562 344.632812 C 183.636719 350.980469 191.84375 355.90625 200.945312 357.609375 C 209.496094 359.195312 218.839844 357.472656 225.9375 352.359375 C 230.539062 349.027344 232.972656 344.289062 236.011719 339.683594 C 238.882812 335.367188 242.675781 331.726562 248.027344 331.199219 C 250.230469 330.992188 250.171875 334.410156 248.003906 334.59375 C 242.023438 335.195312 239 341.339844 236.234375 345.839844 C 233.753906 349.828125 230.789062 353.230469 226.839844 355.847656 C 219.269531 360.894531 209.605469 362.566406 200.699219 361.035156 C 182.539062 357.945312 166.964844 342.777344 159.808594 326.277344 C 155.78125 316.957031 154.210938 306.707031 156.632812 296.753906 C 156.902344 295.632812 158.589844 295.042969 159.378906 295.988281 C 164.570312 302.222656 170.226562 308.089844 176.425781 313.300781 C 182.292969 318.273438 188.539062 321.480469 196.378906 320.578125 C 203.042969 319.824219 209.378906 317.902344 216.132812 317.96875 C 222.359375 318.042969 228.507812 319.230469 234.289062 321.546875 C 240.800781 324.210938 246.546875 328.382812 250.960938 333.855469 C 251.210938 334.289062 250.863281 334.6875 250.597656 334.402344 Z M 250.597656 334.402344 " fill-opacity="1" fill-rule="nonzero"/></g></g></g></g><g clip-path="url(#e7a1896aaa)"><g clip-path="url(#4f934c4e7b)"><g clip-path="url(#46781dafbe)"><g clip-path="url(#57516b2aec)"><path fill="#ffffff" d="M 175.742188 322.246094 C 179.839844 328 186.382812 330.214844 192.996094 331.707031 C 199.613281 333.207031 205.875 333.507812 212.335938 331.226562 C 218.285156 329.140625 223.816406 325.753906 230.160156 324.945312 C 235.144531 324.289062 240.890625 325.03125 244.375 329.058594 C 245.683594 330.574219 243.753906 332.507812 242.21875 331.269531 C 231.300781 322.398438 217.929688 334.804688 206.667969 336.136719 C 200.375 336.871094 193.859375 335.464844 187.953125 333.269531 C 182.777344 331.328125 176.742188 328.242188 175.46875 322.359375 C 175.460938 322.171875 175.660156 322.101562 175.742188 322.246094 Z M 175.742188 322.246094 " fill-opacity="1" fill-rule="nonzero"/></g></g></g></g><g clip-path="url(#be4e8968f5)"><g clip-path="url(#64fe7d2e1e)"><g clip-path="url(#c46d7a87e6)"><g clip-path="url(#6085b3e913)"><path fill="#ffffff" d="M 165.878906 321.808594 C 168.230469 323.878906 170.183594 326.421875 172.378906 328.636719 C 174.75 330.988281 177.175781 333.261719 179.847656 335.289062 C 184.878906 339.152344 190.488281 342.339844 196.605469 343.980469 C 202.488281 345.554688 208.789062 345.835938 214.738281 344.429688 C 217.621094 343.730469 220.332031 342.648438 222.882812 341.128906 C 225.652344 339.480469 227.808594 337.269531 230.148438 335.050781 C 234.4375 330.929688 240.730469 327.34375 246.226562 331.515625 C 247.777344 332.695312 245.78125 335.347656 244.140625 334.261719 C 238.191406 330.40625 232.707031 337.96875 228.707031 341.339844 C 224.191406 345.15625 218.597656 347.511719 212.75 348.429688 C 200.652344 350.242188 188.726562 346.15625 179.332031 338.585938 C 176.535156 336.335938 173.90625 333.792969 171.511719 331.066406 C 169.214844 328.433594 166.683594 325.546875 165.273438 322.351562 C 165.058594 321.894531 165.503906 321.492188 165.878906 321.808594 Z M 165.878906 321.808594 " fill-opacity="1" fill-rule="nonzero"/></g></g></g></g></g></g></g></svg>