<svg xmlns="http://www.w3.org/2000/svg" xmlns:xlink="http://www.w3.org/1999/xlink" width="500" zoomAndPan="magnify" viewBox="0 0 375 374.999991" height="500" preserveAspectRatio="xMidYMid meet" version="1.0"><defs><clipPath id="351b4016d7"><path d="M 139.609375 241.722656 L 235.609375 241.722656 L 235.609375 337.722656 L 139.609375 337.722656 Z M 139.609375 241.722656 " clip-rule="nonzero"/></clipPath><clipPath id="9f26909e84"><path d="M 139.609375 132.085938 L 235.609375 132.085938 L 235.609375 228 L 139.609375 228 Z M 139.609375 132.085938 " clip-rule="nonzero"/></clipPath><clipPath id="d7b227510b"><path d="M 139.609375 22.808594 L 235.609375 22.808594 L 235.609375 118.808594 L 139.609375 118.808594 Z M 139.609375 22.808594 " clip-rule="nonzero"/></clipPath></defs><g clip-path="url(#351b4016d7)"><path fill="#379777" d="M 187.5 337.5 C 181.09375 301.210938 175.898438 296.015625 139.609375 289.609375 C 175.898438 283.203125 181.09375 278.011719 187.5 241.722656 C 193.90625 278.011719 199.097656 283.203125 235.386719 289.609375 C 199.097656 296.015625 193.90625 301.210938 187.5 337.5 Z M 187.5 337.5 " fill-opacity="1" fill-rule="nonzero"/></g><g clip-path="url(#9f26909e84)"><path fill="#45474b" d="M 187.5 227.863281 C 181.09375 191.574219 175.898438 186.378906 139.609375 179.976562 C 175.898438 173.570312 181.09375 168.375 187.5 132.085938 C 193.90625 168.375 199.097656 173.570312 235.386719 179.976562 C 199.097656 186.378906 193.90625 191.574219 187.5 227.863281 Z M 187.5 227.863281 " fill-opacity="1" fill-rule="nonzero"/></g><g clip-path="url(#d7b227510b)"><path fill="#379777" d="M 187.5 118.585938 C 181.09375 82.296875 175.898438 77.101562 139.609375 70.695312 C 175.898438 64.289062 181.09375 59.097656 187.5 22.808594 C 193.90625 59.097656 199.097656 64.289062 235.386719 70.695312 C 199.097656 77.101562 193.90625 82.296875 187.5 118.585938 Z M 187.5 118.585938 " fill-opacity="1" fill-rule="nonzero"/></g></svg>