<svg width="357" height="357" viewBox="0 0 357 357" fill="none" xmlns="http://www.w3.org/2000/svg">
<g clip-path="url(#clip0_1240_320)">
<path d="M216.276 39.1102C197.456 49.723 186.688 70.0474 181.871 90.4976C176.483 113.374 178.213 137.145 177.316 160.454C176.585 179.488 172.48 197.91 166.434 215.946C159.955 235.298 151.484 253.956 141.821 271.883C131.604 290.777 119.945 308.977 106.735 325.96C105.016 328.141 108.022 331.302 109.815 329.074C121.636 314.415 131.838 298.5 141.065 282.117C151.056 264.337 159.826 245.8 166.863 226.679C173.329 209.024 178.411 190.664 180.091 171.898C182.169 148.858 179.531 125.624 182.467 102.616C185.503 78.7931 195.364 53.346 217.109 40.6946C218.111 40.075 217.237 38.5614 216.276 39.1102Z" fill="white" fill-opacity="0.1"/>
<path d="M170.788 78.3015C167.644 82.2363 169.214 87.8836 170.286 92.3196C170.898 94.9271 171.674 97.4878 172.846 99.9123C173.803 101.847 175.404 104.889 177.66 105.363C178.68 105.582 179.666 104.678 179.351 103.625C178.837 101.808 177.03 100.4 176.04 98.7678C174.836 96.7846 173.949 94.6621 173.221 92.4942C171.871 88.5411 169.33 82.9823 171.848 79.0982C172.261 78.4648 171.271 77.709 170.788 78.3015Z" fill="white" fill-opacity="0.1"/>
<path d="M200.683 92.5731C193.213 96.5865 185.849 102.73 182.168 110.542C181.252 112.448 183.936 114.091 185.031 112.195C187.158 108.592 189.202 105.126 191.945 101.973C194.708 98.7804 197.795 96.0584 201.358 93.7915C202.172 93.3422 201.493 92.1219 200.683 92.5731Z" fill="white" fill-opacity="0.1"/>
<path d="M152.051 182.942C159.409 193.537 163.67 205.517 165.837 218.177C166.173 220.303 169.371 219.389 169.048 217.317C167.07 204.491 161.039 192.313 152.855 182.346C152.503 181.915 151.721 182.473 152.051 182.942Z" fill="white" fill-opacity="0.1"/>
<path d="M190.952 175.317C186.235 180.461 180.858 184.991 176.411 190.381C175.333 191.69 177.044 193.507 178.297 192.298C183.235 187.33 187.208 181.482 191.878 176.264C192.431 175.618 191.52 174.727 190.952 175.317Z" fill="white" fill-opacity="0.1"/>
<path d="M158.92 246.015C162.573 238.647 167.917 232.9 174.755 228.384C181.391 223.984 188.732 220.909 195.643 216.986C209.091 209.386 219.969 198.511 229.456 186.46C234.81 179.663 239.75 172.535 244.694 165.406C243.612 165.288 242.517 165.116 241.435 164.997C245.556 182.002 237.446 199.954 229.03 214.366C220.458 229.058 207.537 243.309 189.662 245.27C180.93 246.21 171.857 244.239 165.378 238.013C163.219 235.937 159.862 239.199 162.057 241.295C175.172 253.878 196.228 251.822 210.324 242.067C218.443 236.453 224.879 228.807 230.056 220.481C235.146 212.379 239.425 203.531 242.506 194.454C245.786 184.712 247.379 174.226 244.899 164.099C244.495 162.487 242.479 162.474 241.64 163.69C232.816 176.579 223.863 189.535 212.644 200.444C206.978 205.959 200.763 210.744 193.924 214.705C186.953 218.732 179.676 222.255 173.195 227.024C166.809 231.711 160.492 237.953 158.465 245.843C158.326 246.085 158.762 246.289 158.92 246.015Z" fill="white" fill-opacity="0.1"/>
<path d="M231.302 197.051C224.817 209.637 214.809 220.279 202.161 226.73C196.47 229.654 190.374 231.609 184.051 232.601C177.615 233.626 171.331 233.123 164.887 232.808C162.698 232.695 162.378 235.958 164.43 236.546C174.46 239.254 186.359 237.291 195.926 233.707C206.441 229.751 215.845 222.947 222.734 214.042C226.699 208.928 229.741 203.415 231.859 197.277C231.984 196.985 231.483 196.738 231.302 197.051Z" fill="white" fill-opacity="0.1"/>
<path d="M217.556 209.859C209.328 217.342 198.802 221.154 188.342 224.455C183.394 226.012 178.338 227.28 173.574 229.313C169.103 231.24 164.092 234.187 161.755 238.635C160.808 240.432 163.383 242.748 164.772 240.974C166.411 238.931 167.919 237.041 170.131 235.514C172.293 234.001 174.699 232.861 177.131 231.921C182.047 230.018 187.099 228.52 192.045 226.64C201.706 222.973 211.015 218.088 218.115 210.409C218.456 210.056 217.935 209.524 217.556 209.859Z" fill="white" fill-opacity="0.1"/>
<path d="M173.735 177.246C178.135 166.123 173.894 154.429 166.87 145.405C157.756 133.702 144.378 126.12 135.796 113.896C131.272 107.467 127.936 100.341 125.874 92.7561C125.511 91.3998 123.97 91.1973 123.012 91.9795C116.844 96.929 113.711 104.825 113.529 112.629C113.33 120.381 115.962 127.93 119.446 134.725C126.736 148.866 138.264 160.769 152.01 168.748C159.51 173.125 168.489 177.253 177.227 177.974C179.463 178.162 179.607 174.886 177.685 174.236C174.151 173.024 170.524 172.219 167.01 170.971C163.567 169.765 160.228 168.297 156.992 166.656C150.429 163.284 144.349 158.992 138.956 153.993C133.6 149.012 128.938 143.379 125.14 137.136C121.4 131.022 118.252 124.284 117.348 117.089C116.298 108.71 118.649 99.8564 125.417 94.4248C124.469 94.1562 123.502 93.9199 122.555 93.6482C126.234 106.718 133.454 118.109 143.379 127.291C153.389 136.566 165.278 144.259 171.111 157.099C173.898 163.264 175.126 170.457 173.09 177.011C172.938 177.52 173.587 177.667 173.735 177.246Z" fill="white" fill-opacity="0.1"/>
<path d="M127.445 106.129C122.835 115.705 127.928 126.006 134.684 133.032C142.708 141.439 152.547 147.901 160.818 156.125C163.124 158.423 165.336 160.803 167.343 163.387C169.498 166.104 171.067 169.127 172.944 172.006C174.124 173.791 177.542 172.728 176.625 170.494C174.028 164.074 168.747 158.405 163.803 153.662C158.755 148.862 153.194 144.548 147.669 140.254C137.28 132.277 122.892 121.35 127.741 106.257C127.806 106.062 127.509 105.938 127.445 106.129Z" fill="white" fill-opacity="0.1"/>
<path d="M134.441 140.943C140.799 146.821 147.208 152.686 153.722 158.375C156.91 161.138 160.1 163.899 163.275 166.604C166.569 169.429 169.766 172.653 173.427 174.999C175.229 176.176 177.152 173.559 175.729 172.046C172.77 168.96 168.977 166.448 165.64 163.787C162.252 161.049 158.79 158.359 155.363 155.689C148.646 150.433 141.81 145.382 134.942 140.314C134.547 140.038 134.066 140.632 134.441 140.943Z" fill="white" fill-opacity="0.1"/>
<path d="M130.427 293.134C134.365 279.859 138.234 266.226 135.18 252.319C133.495 244.721 129.846 237.736 126.44 230.806C122.719 223.23 119.016 215.617 115.296 208.041C114.041 205.432 112.725 200.623 109.491 199.769C106.259 198.912 104.587 202.365 103.379 204.704C100.474 210.292 98.5039 216.33 97.4873 222.553C95.3777 235.132 96.8943 248.199 101.318 260.135C103.873 266.948 107.283 273.468 111.718 279.249C116.484 285.496 123.156 291.143 131.401 291.21C134.199 291.22 134.132 287.037 131.353 286.905C118.949 286.322 111.073 272.483 106.569 262.433C101.913 252.015 99.6953 240.476 100.378 229.096C100.761 223.34 101.923 217.66 103.908 212.228C104.909 209.542 106.086 206.864 107.537 204.433C107.935 203.744 108.277 203.07 109.112 203.69C109.627 204.077 109.958 205.097 110.245 205.632C111.122 207.379 111.966 209.108 112.843 210.855C116.168 217.605 119.525 224.374 122.85 231.125C125.972 237.432 129.464 243.729 131.649 250.461C136.055 264.183 133.195 279.415 129.913 293.065C129.789 293.363 130.317 293.482 130.427 293.134Z" fill="white" fill-opacity="0.1"/>
<path d="M106.67 221.783C105.386 233.967 106.267 246.065 109.627 257.851C111.298 263.643 113.586 269.245 116.39 274.586C117.779 277.274 119.354 279.887 121.021 282.413C121.808 283.602 122.634 284.723 123.492 285.862C124.388 287.024 125.122 288.461 126.676 288.714C127.65 288.864 128.486 288.286 128.511 287.291C128.583 285.813 127.57 284.859 126.689 283.753C125.78 282.537 124.891 281.289 124.001 280.041C122.394 277.731 120.897 275.303 119.508 272.844C116.657 267.75 114.283 262.378 112.421 256.841C108.612 245.671 106.691 233.617 107.349 221.806C107.394 221.325 106.733 221.356 106.67 221.783Z" fill="white" fill-opacity="0.1"/>
<path d="M120.248 242.088C120.437 250.841 121.101 259.413 122.959 267.983C124.745 276.284 127.478 285.175 131.73 292.551C132.926 294.624 135.746 292.847 134.871 290.779C133.28 286.914 131.381 283.198 129.832 279.268C128.284 275.339 126.991 271.277 125.756 267.206C123.369 259.069 121.524 250.55 120.947 242.075C120.972 241.63 120.243 241.621 120.248 242.088Z" fill="white" fill-opacity="0.1"/>
<path d="M154.256 287.71C150.636 288.566 147.022 289.33 143.387 290.13C140.023 290.855 135.982 291.004 132.876 292.478C131.351 293.208 132.203 295.4 133.678 295.47C135.53 295.526 137.371 294.889 139.165 294.408C140.836 293.991 142.522 293.539 144.173 293.066C147.75 292.048 151.262 290.903 154.799 289.724C156.054 289.298 155.577 287.416 154.256 287.71Z" fill="white" fill-opacity="0.1"/>
<path d="M186.298 76.5384C186.115 64.4268 184.751 49.1037 196.444 41.5985C201.175 38.5803 206.621 37.0312 211.924 35.2619C217.404 33.415 222.697 31.1802 227.646 28.1035C233.501 24.4931 238.771 19.9911 243.24 14.7946C242.161 14.3567 241.08 13.9169 240.022 13.4436C239.846 24.9789 232.816 34.7682 224.75 42.4395C216.156 50.6305 205.797 56.703 196.834 64.5004C191.77 68.8897 187.026 73.9231 183.727 79.7945C182.367 82.2304 186.023 84.3408 187.488 81.9663C200.432 61.056 226.301 52.9022 238.67 31.4792C241.857 25.9592 243.776 19.845 243.841 13.4412C243.861 11.8896 241.678 10.8139 240.62 12.0883C236.452 16.9946 231.637 21.3473 226.219 24.8407C220.959 28.2919 215.303 30.6815 209.4 32.7013C204.038 34.5737 198.469 36.417 193.837 39.8143C188.794 43.5285 185.941 48.8719 184.739 54.9409C183.358 61.8688 183.074 69.8506 185.076 76.6617C185.212 77.3846 186.323 77.2913 186.298 76.5384Z" fill="white" fill-opacity="0.1"/>
<path d="M206.644 40.2647C202.862 41.3923 199.341 44.4647 196.558 47.135C193.417 50.1054 190.774 53.6421 188.591 57.3496C186.425 61.0199 184.812 65.01 183.728 69.1201C183.166 71.2823 182.788 73.4554 182.532 75.6526C182.309 77.5502 182.301 79.4741 183.788 80.8861C184.635 81.6501 185.706 81.6244 186.588 80.8926C187.712 79.9788 186.811 78.6768 186.586 77.9502C186.065 76.2196 186.768 73.731 187.068 72.0146C187.872 67.8327 189.237 63.7945 191.126 59.9643C192.977 56.2017 195.31 52.7181 198.018 49.5452C200.743 46.3349 204.171 43.9899 207.063 40.9663C207.277 40.6776 207.021 40.1608 206.644 40.2647Z" fill="white" fill-opacity="0.1"/>
<path d="M182.133 134.899C186.295 128.331 190.832 122.302 197.33 117.823C203.529 113.535 210.692 111.324 217.721 108.714C224.478 106.174 230.586 102.846 235.996 98.0131C241.482 93.1292 245.978 87.2613 250.24 81.306C249.127 81.1659 248.065 81.0122 246.951 80.8753C251.929 93.9179 247.122 108.297 239.262 119.123C234.964 125.058 229.36 130.703 222.563 133.632C216.077 136.418 209.015 135.746 202.221 134.765C194.609 133.685 186.928 132.329 179.382 134.324C176.683 135.02 177.805 139.206 180.49 138.459C187.602 136.583 194.902 138.041 201.998 139.055C209.269 140.08 216.645 140.611 223.595 137.818C230.913 134.863 236.795 129.293 241.489 123.076C246 117.174 249.495 110.406 251.335 103.232C253.332 95.5566 253.378 87.3473 250.395 79.9225C249.824 78.4421 248.025 78.1375 247.104 79.495C240.445 89.0351 232.937 98.4542 222.334 103.832C217.126 106.48 211.537 108.269 206.221 110.627C201.087 112.907 196.36 115.837 192.222 119.657C187.761 123.798 183.708 128.907 181.576 134.667C181.487 134.985 181.974 135.176 182.133 134.899Z" fill="white" fill-opacity="0.1"/>
<path d="M242.106 101.769C225.003 118.251 199.425 118.895 180.372 132.134C178.378 133.512 180.253 136.802 182.244 135.422C201.043 122.221 228.12 121.613 242.447 102.056C242.62 101.838 242.261 101.583 242.106 101.769Z" fill="white" fill-opacity="0.1"/>
<path d="M229.497 120.983C223.484 127.173 214.085 127.359 206.042 127.589C202.037 127.668 198.035 127.75 194.035 128.386C190.306 128.947 185.835 129.998 182.92 132.502C181.66 133.569 182.991 136.038 184.567 135.385C186.488 134.609 188.193 133.567 190.178 132.918C192.193 132.291 194.272 131.881 196.359 131.613C200.584 131.063 204.871 131.052 209.099 130.736C216.953 130.118 224.907 127.9 230.185 121.702C230.586 121.247 229.933 120.548 229.497 120.983Z" fill="white" fill-opacity="0.1"/>
<path d="M163.965 119.995C165.82 122.999 167.587 125.994 169.59 128.898C171.446 131.58 173.396 134.733 175.818 136.912C177.465 138.366 179.592 136.193 178.192 134.556C176.128 132.076 173.488 129.955 171.274 127.573C168.93 125.021 166.68 122.387 164.745 119.522C164.436 119.022 163.624 119.477 163.965 119.995Z" fill="white" fill-opacity="0.1"/>
<path d="M147.394 226.938C150.01 232.129 152.044 237.769 154.99 242.781C155.932 244.333 158.227 242.991 157.394 241.407C154.834 236.202 151.225 231.452 148.299 226.405C147.98 225.761 147.054 226.33 147.394 226.938Z" fill="white" fill-opacity="0.1"/>
<path d="M164.741 260.231C158.577 260.949 151.687 262.447 146.512 265.99C144.986 267.041 146.23 269.185 147.9 268.449C150.74 267.19 153.424 265.567 156.367 264.457C159.165 263.359 161.989 262.365 164.908 261.616C165.686 261.464 165.567 260.154 164.741 260.231Z" fill="white" fill-opacity="0.1"/>
<path d="M106.153 298.207C107.766 301.714 109.469 305.137 111.388 308.499C113.038 311.384 114.809 315.167 117.473 317.164C118.138 317.686 119.298 316.793 118.972 316.003C118.322 314.34 117.064 313.016 116.02 311.633C114.93 310.174 113.875 308.737 112.839 307.266C110.702 304.191 108.751 301.042 106.911 297.772C106.659 297.257 105.935 297.715 106.153 298.207Z" fill="white" fill-opacity="0.1"/>
<path d="M114.822 317.932C123.411 308.634 136.316 304.444 148.786 304.837C155.287 305.048 161.4 307.289 167.811 307.817C174.448 308.429 180.117 305.862 185.299 301.906C192.166 296.625 198.309 290.283 203.85 283.64C202.97 283.407 202.091 283.174 201.234 282.911C205.167 299.438 196.742 316.426 184.911 327.673C178.57 333.717 170.758 338.405 162.092 340.027C153.954 341.538 145.056 339.896 138.299 335.029C133.921 331.857 131.604 327.346 128.709 322.96C125.975 318.853 122.364 315.385 117.273 314.885C115.175 314.687 115.23 317.94 117.292 318.117C122.986 318.69 125.865 324.539 128.499 328.821C130.858 332.618 133.681 335.858 137.442 338.351C144.647 343.155 153.85 344.745 162.326 343.288C179.617 340.346 194.442 325.906 201.256 310.199C205.09 301.326 206.586 291.566 204.279 282.093C204.023 281.026 202.416 280.463 201.664 281.364C196.722 287.297 191.337 292.883 185.436 297.846C179.849 302.577 173.903 305.632 166.439 304.771C160.094 304.053 154.065 302.225 147.635 302.288C141.706 302.36 135.854 303.49 130.352 305.694C124.15 308.232 118.68 312.202 114.479 317.411C114.239 317.827 114.571 318.203 114.822 317.932Z" fill="white" fill-opacity="0.1"/>
<path d="M186.085 306.361C182.184 311.839 175.957 313.946 169.66 315.369C163.362 316.795 157.4 317.08 151.251 314.908C145.585 312.926 140.319 309.701 134.281 308.928C129.535 308.305 124.065 309.012 120.747 312.846C119.503 314.287 121.338 316.129 122.8 314.95C133.194 306.506 145.925 318.317 156.645 319.586C162.636 320.283 168.837 318.943 174.461 316.856C179.388 315.008 185.134 312.069 186.345 306.469C186.354 306.289 186.165 306.223 186.085 306.361Z" fill="white" fill-opacity="0.1"/>
<path d="M195.477 305.944C193.236 307.914 191.378 310.336 189.289 312.445C187.03 314.684 184.721 316.846 182.179 318.779C177.39 322.455 172.048 325.49 166.227 327.05C160.623 328.551 154.626 328.816 148.962 327.478C146.216 326.812 143.637 325.782 141.208 324.337C138.572 322.768 136.519 320.664 134.292 318.549C130.209 314.628 124.219 311.213 118.984 315.186C117.507 316.309 119.408 318.832 120.97 317.801C126.633 314.127 131.857 321.33 135.665 324.538C139.962 328.169 145.287 330.415 150.856 331.286C162.372 333.013 173.724 329.124 182.669 321.917C185.332 319.775 187.833 317.354 190.113 314.759C192.299 312.251 194.71 309.503 196.054 306.462C196.258 306.026 195.835 305.644 195.477 305.944Z" fill="white" fill-opacity="0.1"/>
</g>
<defs>
<clipPath id="clip0_1240_320">
<rect width="357" height="357" fill="white"/>
</clipPath>
</defs>
</svg>
