<svg xmlns="http://www.w3.org/2000/svg" xmlns:xlink="http://www.w3.org/1999/xlink" width="500" zoomAndPan="magnify" viewBox="0 0 375 374.999991" height="500" preserveAspectRatio="xMidYMid meet" version="1.0"><defs><filter x="0%" y="0%" width="100%" height="100%" id="a590d5c3e9"><feColorMatrix values="0 0 0 0 1 0 0 0 0 1 0 0 0 0 1 0 0 0 1 0" color-interpolation-filters="sRGB"/></filter><mask id="cbfe28f8ef"><g filter="url(#a590d5c3e9)"><rect x="-37.5" width="450" fill="#000000" y="-37.499999" height="449.999989" fill-opacity="0.15"/></g></mask><clipPath id="dda5bdcf26"><path d="M 115 41 L 233 41 L 233 347 L 115 347 Z M 115 41 " clip-rule="nonzero"/></clipPath><clipPath id="0d63e60f63"><path d="M 118.871094 -68.628906 L 443.628906 118.871094 L 256.128906 443.628906 L -68.628906 256.128906 Z M 118.871094 -68.628906 " clip-rule="nonzero"/></clipPath><clipPath id="1d87b2a001"><path d="M 118.871094 -68.628906 L 443.628906 118.871094 L 256.128906 443.628906 L -68.628906 256.128906 Z M 118.871094 -68.628906 " clip-rule="nonzero"/></clipPath><clipPath id="96c28f05a9"><path d="M 118.871094 -68.628906 L 443.628906 118.871094 L 256.128906 443.628906 L -68.628906 256.128906 Z M 118.871094 -68.628906 " clip-rule="nonzero"/></clipPath><clipPath id="6f92c807d9"><path d="M 181 82 L 193 82 L 193 112 L 181 112 Z M 181 82 " clip-rule="nonzero"/></clipPath><clipPath id="ed099f456c"><path d="M 118.871094 -68.628906 L 443.628906 118.871094 L 256.128906 443.628906 L -68.628906 256.128906 Z M 118.871094 -68.628906 " clip-rule="nonzero"/></clipPath><clipPath id="1080894cfc"><path d="M 118.871094 -68.628906 L 443.628906 118.871094 L 256.128906 443.628906 L -68.628906 256.128906 Z M 118.871094 -68.628906 " clip-rule="nonzero"/></clipPath><clipPath id="8944521598"><path d="M 118.871094 -68.628906 L 443.628906 118.871094 L 256.128906 443.628906 L -68.628906 256.128906 Z M 118.871094 -68.628906 " clip-rule="nonzero"/></clipPath><clipPath id="b48692c55a"><path d="M 194 97 L 216 97 L 216 120 L 194 120 Z M 194 97 " clip-rule="nonzero"/></clipPath><clipPath id="d9f6e1d9ea"><path d="M 118.871094 -68.628906 L 443.628906 118.871094 L 256.128906 443.628906 L -68.628906 256.128906 Z M 118.871094 -68.628906 " clip-rule="nonzero"/></clipPath><clipPath id="6eda0aa11a"><path d="M 118.871094 -68.628906 L 443.628906 118.871094 L 256.128906 443.628906 L -68.628906 256.128906 Z M 118.871094 -68.628906 " clip-rule="nonzero"/></clipPath><clipPath id="be105d76bd"><path d="M 118.871094 -68.628906 L 443.628906 118.871094 L 256.128906 443.628906 L -68.628906 256.128906 Z M 118.871094 -68.628906 " clip-rule="nonzero"/></clipPath><clipPath id="9bf2c94add"><path d="M 163 191 L 182 191 L 182 231 L 163 231 Z M 163 191 " clip-rule="nonzero"/></clipPath><clipPath id="67f4024d45"><path d="M 118.871094 -68.628906 L 443.628906 118.871094 L 256.128906 443.628906 L -68.628906 256.128906 Z M 118.871094 -68.628906 " clip-rule="nonzero"/></clipPath><clipPath id="2c0ded7aa4"><path d="M 118.871094 -68.628906 L 443.628906 118.871094 L 256.128906 443.628906 L -68.628906 256.128906 Z M 118.871094 -68.628906 " clip-rule="nonzero"/></clipPath><clipPath id="6ea4236aaf"><path d="M 118.871094 -68.628906 L 443.628906 118.871094 L 256.128906 443.628906 L -68.628906 256.128906 Z M 118.871094 -68.628906 " clip-rule="nonzero"/></clipPath><clipPath id="1b9004540e"><path d="M 188 184 L 206 184 L 206 203 L 188 203 Z M 188 184 " clip-rule="nonzero"/></clipPath><clipPath id="7aa45570d2"><path d="M 118.871094 -68.628906 L 443.628906 118.871094 L 256.128906 443.628906 L -68.628906 256.128906 Z M 118.871094 -68.628906 " clip-rule="nonzero"/></clipPath><clipPath id="e8785041d6"><path d="M 118.871094 -68.628906 L 443.628906 118.871094 L 256.128906 443.628906 L -68.628906 256.128906 Z M 118.871094 -68.628906 " clip-rule="nonzero"/></clipPath><clipPath id="e2d89ebe7c"><path d="M 118.871094 -68.628906 L 443.628906 118.871094 L 256.128906 443.628906 L -68.628906 256.128906 Z M 118.871094 -68.628906 " clip-rule="nonzero"/></clipPath><clipPath id="e1a7d240b5"><path d="M 170 171 L 263 171 L 263 264 L 170 264 Z M 170 171 " clip-rule="nonzero"/></clipPath><clipPath id="18aa83beac"><path d="M 118.871094 -68.628906 L 443.628906 118.871094 L 256.128906 443.628906 L -68.628906 256.128906 Z M 118.871094 -68.628906 " clip-rule="nonzero"/></clipPath><clipPath id="b147fa608a"><path d="M 118.871094 -68.628906 L 443.628906 118.871094 L 256.128906 443.628906 L -68.628906 256.128906 Z M 118.871094 -68.628906 " clip-rule="nonzero"/></clipPath><clipPath id="b483cf788a"><path d="M 118.871094 -68.628906 L 443.628906 118.871094 L 256.128906 443.628906 L -68.628906 256.128906 Z M 118.871094 -68.628906 " clip-rule="nonzero"/></clipPath><clipPath id="ec016e5eea"><path d="M 175 207 L 248 207 L 248 251 L 175 251 Z M 175 207 " clip-rule="nonzero"/></clipPath><clipPath id="c81d007f34"><path d="M 118.871094 -68.628906 L 443.628906 118.871094 L 256.128906 443.628906 L -68.628906 256.128906 Z M 118.871094 -68.628906 " clip-rule="nonzero"/></clipPath><clipPath id="409a07b371"><path d="M 118.871094 -68.628906 L 443.628906 118.871094 L 256.128906 443.628906 L -68.628906 256.128906 Z M 118.871094 -68.628906 " clip-rule="nonzero"/></clipPath><clipPath id="48b1d3bc22"><path d="M 118.871094 -68.628906 L 443.628906 118.871094 L 256.128906 443.628906 L -68.628906 256.128906 Z M 118.871094 -68.628906 " clip-rule="nonzero"/></clipPath><clipPath id="aa15a99b8f"><path d="M 173 220 L 234 220 L 234 255 L 173 255 Z M 173 220 " clip-rule="nonzero"/></clipPath><clipPath id="dfa97c0f35"><path d="M 118.871094 -68.628906 L 443.628906 118.871094 L 256.128906 443.628906 L -68.628906 256.128906 Z M 118.871094 -68.628906 " clip-rule="nonzero"/></clipPath><clipPath id="0b56932cb9"><path d="M 118.871094 -68.628906 L 443.628906 118.871094 L 256.128906 443.628906 L -68.628906 256.128906 Z M 118.871094 -68.628906 " clip-rule="nonzero"/></clipPath><clipPath id="fc7cb1bf5e"><path d="M 118.871094 -68.628906 L 443.628906 118.871094 L 256.128906 443.628906 L -68.628906 256.128906 Z M 118.871094 -68.628906 " clip-rule="nonzero"/></clipPath><clipPath id="229a31de3d"><path d="M 123 96 L 192 96 L 192 188 L 123 188 Z M 123 96 " clip-rule="nonzero"/></clipPath><clipPath id="50bd7738e2"><path d="M 118.871094 -68.628906 L 443.628906 118.871094 L 256.128906 443.628906 L -68.628906 256.128906 Z M 118.871094 -68.628906 " clip-rule="nonzero"/></clipPath><clipPath id="cfc2efc590"><path d="M 118.871094 -68.628906 L 443.628906 118.871094 L 256.128906 443.628906 L -68.628906 256.128906 Z M 118.871094 -68.628906 " clip-rule="nonzero"/></clipPath><clipPath id="53e123a026"><path d="M 118.871094 -68.628906 L 443.628906 118.871094 L 256.128906 443.628906 L -68.628906 256.128906 Z M 118.871094 -68.628906 " clip-rule="nonzero"/></clipPath><clipPath id="2235d69297"><path d="M 135 111 L 190 111 L 190 183 L 135 183 Z M 135 111 " clip-rule="nonzero"/></clipPath><clipPath id="73f3d83e9d"><path d="M 118.871094 -68.628906 L 443.628906 118.871094 L 256.128906 443.628906 L -68.628906 256.128906 Z M 118.871094 -68.628906 " clip-rule="nonzero"/></clipPath><clipPath id="b3d665a19d"><path d="M 118.871094 -68.628906 L 443.628906 118.871094 L 256.128906 443.628906 L -68.628906 256.128906 Z M 118.871094 -68.628906 " clip-rule="nonzero"/></clipPath><clipPath id="2e60d54044"><path d="M 118.871094 -68.628906 L 443.628906 118.871094 L 256.128906 443.628906 L -68.628906 256.128906 Z M 118.871094 -68.628906 " clip-rule="nonzero"/></clipPath><clipPath id="e7af6a64f3"><path d="M 144 147 L 189 147 L 189 185 L 144 185 Z M 144 147 " clip-rule="nonzero"/></clipPath><clipPath id="211df1c4fb"><path d="M 118.871094 -68.628906 L 443.628906 118.871094 L 256.128906 443.628906 L -68.628906 256.128906 Z M 118.871094 -68.628906 " clip-rule="nonzero"/></clipPath><clipPath id="f52be6cdbf"><path d="M 118.871094 -68.628906 L 443.628906 118.871094 L 256.128906 443.628906 L -68.628906 256.128906 Z M 118.871094 -68.628906 " clip-rule="nonzero"/></clipPath><clipPath id="ca7991e5a7"><path d="M 118.871094 -68.628906 L 443.628906 118.871094 L 256.128906 443.628906 L -68.628906 256.128906 Z M 118.871094 -68.628906 " clip-rule="nonzero"/></clipPath><clipPath id="11d219fa94"><path d="M 105 210 L 147 210 L 147 309 L 105 309 Z M 105 210 " clip-rule="nonzero"/></clipPath><clipPath id="b7750013d9"><path d="M 118.871094 -68.628906 L 443.628906 118.871094 L 256.128906 443.628906 L -68.628906 256.128906 Z M 118.871094 -68.628906 " clip-rule="nonzero"/></clipPath><clipPath id="e51621360b"><path d="M 118.871094 -68.628906 L 443.628906 118.871094 L 256.128906 443.628906 L -68.628906 256.128906 Z M 118.871094 -68.628906 " clip-rule="nonzero"/></clipPath><clipPath id="894dcd2986"><path d="M 118.871094 -68.628906 L 443.628906 118.871094 L 256.128906 443.628906 L -68.628906 256.128906 Z M 118.871094 -68.628906 " clip-rule="nonzero"/></clipPath><clipPath id="046c2b491a"><path d="M 115 233 L 139 233 L 139 304 L 115 304 Z M 115 233 " clip-rule="nonzero"/></clipPath><clipPath id="daf911d569"><path d="M 118.871094 -68.628906 L 443.628906 118.871094 L 256.128906 443.628906 L -68.628906 256.128906 Z M 118.871094 -68.628906 " clip-rule="nonzero"/></clipPath><clipPath id="61107fa71f"><path d="M 118.871094 -68.628906 L 443.628906 118.871094 L 256.128906 443.628906 L -68.628906 256.128906 Z M 118.871094 -68.628906 " clip-rule="nonzero"/></clipPath><clipPath id="436cfb69f0"><path d="M 118.871094 -68.628906 L 443.628906 118.871094 L 256.128906 443.628906 L -68.628906 256.128906 Z M 118.871094 -68.628906 " clip-rule="nonzero"/></clipPath><clipPath id="3d534bf1c4"><path d="M 130 254 L 146 254 L 146 309 L 130 309 Z M 130 254 " clip-rule="nonzero"/></clipPath><clipPath id="1548900c4e"><path d="M 118.871094 -68.628906 L 443.628906 118.871094 L 256.128906 443.628906 L -68.628906 256.128906 Z M 118.871094 -68.628906 " clip-rule="nonzero"/></clipPath><clipPath id="5c01298a12"><path d="M 118.871094 -68.628906 L 443.628906 118.871094 L 256.128906 443.628906 L -68.628906 256.128906 Z M 118.871094 -68.628906 " clip-rule="nonzero"/></clipPath><clipPath id="cf02fbe646"><path d="M 118.871094 -68.628906 L 443.628906 118.871094 L 256.128906 443.628906 L -68.628906 256.128906 Z M 118.871094 -68.628906 " clip-rule="nonzero"/></clipPath><clipPath id="9694a14d1e"><path d="M 142 302 L 168 302 L 168 311 L 142 311 Z M 142 302 " clip-rule="nonzero"/></clipPath><clipPath id="721b29b22a"><path d="M 118.871094 -68.628906 L 443.628906 118.871094 L 256.128906 443.628906 L -68.628906 256.128906 Z M 118.871094 -68.628906 " clip-rule="nonzero"/></clipPath><clipPath id="13f037fe8f"><path d="M 118.871094 -68.628906 L 443.628906 118.871094 L 256.128906 443.628906 L -68.628906 256.128906 Z M 118.871094 -68.628906 " clip-rule="nonzero"/></clipPath><clipPath id="f2228c9362"><path d="M 118.871094 -68.628906 L 443.628906 118.871094 L 256.128906 443.628906 L -68.628906 256.128906 Z M 118.871094 -68.628906 " clip-rule="nonzero"/></clipPath><clipPath id="5157f8aaca"><path d="M 196 12 L 260 12 L 260 88 L 196 88 Z M 196 12 " clip-rule="nonzero"/></clipPath><clipPath id="717cce6823"><path d="M 118.871094 -68.628906 L 443.628906 118.871094 L 256.128906 443.628906 L -68.628906 256.128906 Z M 118.871094 -68.628906 " clip-rule="nonzero"/></clipPath><clipPath id="659855835f"><path d="M 118.871094 -68.628906 L 443.628906 118.871094 L 256.128906 443.628906 L -68.628906 256.128906 Z M 118.871094 -68.628906 " clip-rule="nonzero"/></clipPath><clipPath id="96b1fc2239"><path d="M 118.871094 -68.628906 L 443.628906 118.871094 L 256.128906 443.628906 L -68.628906 256.128906 Z M 118.871094 -68.628906 " clip-rule="nonzero"/></clipPath><clipPath id="133a5d284c"><path d="M 195 42 L 222 42 L 222 86 L 195 86 Z M 195 42 " clip-rule="nonzero"/></clipPath><clipPath id="314fcb73c3"><path d="M 118.871094 -68.628906 L 443.628906 118.871094 L 256.128906 443.628906 L -68.628906 256.128906 Z M 118.871094 -68.628906 " clip-rule="nonzero"/></clipPath><clipPath id="4c2548764a"><path d="M 118.871094 -68.628906 L 443.628906 118.871094 L 256.128906 443.628906 L -68.628906 256.128906 Z M 118.871094 -68.628906 " clip-rule="nonzero"/></clipPath><clipPath id="d69c84245e"><path d="M 118.871094 -68.628906 L 443.628906 118.871094 L 256.128906 443.628906 L -68.628906 256.128906 Z M 118.871094 -68.628906 " clip-rule="nonzero"/></clipPath><clipPath id="ef31ca0b4c"><path d="M 190 83 L 270 83 L 270 148 L 190 148 Z M 190 83 " clip-rule="nonzero"/></clipPath><clipPath id="4cef7ed72e"><path d="M 118.871094 -68.628906 L 443.628906 118.871094 L 256.128906 443.628906 L -68.628906 256.128906 Z M 118.871094 -68.628906 " clip-rule="nonzero"/></clipPath><clipPath id="6b958b78ce"><path d="M 118.871094 -68.628906 L 443.628906 118.871094 L 256.128906 443.628906 L -68.628906 256.128906 Z M 118.871094 -68.628906 " clip-rule="nonzero"/></clipPath><clipPath id="1ed0bf06ae"><path d="M 118.871094 -68.628906 L 443.628906 118.871094 L 256.128906 443.628906 L -68.628906 256.128906 Z M 118.871094 -68.628906 " clip-rule="nonzero"/></clipPath><clipPath id="788c18857f"><path d="M 192 107 L 259 107 L 259 144 L 192 144 Z M 192 107 " clip-rule="nonzero"/></clipPath><clipPath id="7cf3cae58f"><path d="M 118.871094 -68.628906 L 443.628906 118.871094 L 256.128906 443.628906 L -68.628906 256.128906 Z M 118.871094 -68.628906 " clip-rule="nonzero"/></clipPath><clipPath id="ca446599a9"><path d="M 118.871094 -68.628906 L 443.628906 118.871094 L 256.128906 443.628906 L -68.628906 256.128906 Z M 118.871094 -68.628906 " clip-rule="nonzero"/></clipPath><clipPath id="e3e7014b61"><path d="M 118.871094 -68.628906 L 443.628906 118.871094 L 256.128906 443.628906 L -68.628906 256.128906 Z M 118.871094 -68.628906 " clip-rule="nonzero"/></clipPath><clipPath id="7b03b40e3f"><path d="M 195 127 L 246 127 L 246 143 L 195 143 Z M 195 127 " clip-rule="nonzero"/></clipPath><clipPath id="2834c6569d"><path d="M 118.871094 -68.628906 L 443.628906 118.871094 L 256.128906 443.628906 L -68.628906 256.128906 Z M 118.871094 -68.628906 " clip-rule="nonzero"/></clipPath><clipPath id="a412bd3402"><path d="M 118.871094 -68.628906 L 443.628906 118.871094 L 256.128906 443.628906 L -68.628906 256.128906 Z M 118.871094 -68.628906 " clip-rule="nonzero"/></clipPath><clipPath id="a411851bd0"><path d="M 118.871094 -68.628906 L 443.628906 118.871094 L 256.128906 443.628906 L -68.628906 256.128906 Z M 118.871094 -68.628906 " clip-rule="nonzero"/></clipPath><clipPath id="2daf8091fb"><path d="M 175 125 L 192 125 L 192 145 L 175 145 Z M 175 125 " clip-rule="nonzero"/></clipPath><clipPath id="862ebda7d7"><path d="M 118.871094 -68.628906 L 443.628906 118.871094 L 256.128906 443.628906 L -68.628906 256.128906 Z M 118.871094 -68.628906 " clip-rule="nonzero"/></clipPath><clipPath id="d934901883"><path d="M 118.871094 -68.628906 L 443.628906 118.871094 L 256.128906 443.628906 L -68.628906 256.128906 Z M 118.871094 -68.628906 " clip-rule="nonzero"/></clipPath><clipPath id="e744189382"><path d="M 118.871094 -68.628906 L 443.628906 118.871094 L 256.128906 443.628906 L -68.628906 256.128906 Z M 118.871094 -68.628906 " clip-rule="nonzero"/></clipPath><clipPath id="564473f1a8"><path d="M 158 237 L 170 237 L 170 257 L 158 257 Z M 158 237 " clip-rule="nonzero"/></clipPath><clipPath id="407455c13a"><path d="M 118.871094 -68.628906 L 443.628906 118.871094 L 256.128906 443.628906 L -68.628906 256.128906 Z M 118.871094 -68.628906 " clip-rule="nonzero"/></clipPath><clipPath id="435e521e4c"><path d="M 118.871094 -68.628906 L 443.628906 118.871094 L 256.128906 443.628906 L -68.628906 256.128906 Z M 118.871094 -68.628906 " clip-rule="nonzero"/></clipPath><clipPath id="a53a81fb8f"><path d="M 118.871094 -68.628906 L 443.628906 118.871094 L 256.128906 443.628906 L -68.628906 256.128906 Z M 118.871094 -68.628906 " clip-rule="nonzero"/></clipPath><clipPath id="acb5ca9c3d"><path d="M 156 273 L 178 273 L 178 283 L 156 283 Z M 156 273 " clip-rule="nonzero"/></clipPath><clipPath id="38468d1629"><path d="M 118.871094 -68.628906 L 443.628906 118.871094 L 256.128906 443.628906 L -68.628906 256.128906 Z M 118.871094 -68.628906 " clip-rule="nonzero"/></clipPath><clipPath id="2ebc37889e"><path d="M 118.871094 -68.628906 L 443.628906 118.871094 L 256.128906 443.628906 L -68.628906 256.128906 Z M 118.871094 -68.628906 " clip-rule="nonzero"/></clipPath><clipPath id="79cfea72c3"><path d="M 118.871094 -68.628906 L 443.628906 118.871094 L 256.128906 443.628906 L -68.628906 256.128906 Z M 118.871094 -68.628906 " clip-rule="nonzero"/></clipPath><clipPath id="9ea90f7bff"><path d="M 115 312 L 129 312 L 129 334 L 115 334 Z M 115 312 " clip-rule="nonzero"/></clipPath><clipPath id="081c8f21e6"><path d="M 118.871094 -68.628906 L 443.628906 118.871094 L 256.128906 443.628906 L -68.628906 256.128906 Z M 118.871094 -68.628906 " clip-rule="nonzero"/></clipPath><clipPath id="6af543ea05"><path d="M 118.871094 -68.628906 L 443.628906 118.871094 L 256.128906 443.628906 L -68.628906 256.128906 Z M 118.871094 -68.628906 " clip-rule="nonzero"/></clipPath><clipPath id="7695ec5fab"><path d="M 118.871094 -68.628906 L 443.628906 118.871094 L 256.128906 443.628906 L -68.628906 256.128906 Z M 118.871094 -68.628906 " clip-rule="nonzero"/></clipPath><clipPath id="d764856308"><path d="M 123 295 L 220 295 L 220 362 L 123 362 Z M 123 295 " clip-rule="nonzero"/></clipPath><clipPath id="68576cfb6f"><path d="M 118.871094 -68.628906 L 443.628906 118.871094 L 256.128906 443.628906 L -68.628906 256.128906 Z M 118.871094 -68.628906 " clip-rule="nonzero"/></clipPath><clipPath id="5f768487a2"><path d="M 118.871094 -68.628906 L 443.628906 118.871094 L 256.128906 443.628906 L -68.628906 256.128906 Z M 118.871094 -68.628906 " clip-rule="nonzero"/></clipPath><clipPath id="2d7f610150"><path d="M 118.871094 -68.628906 L 443.628906 118.871094 L 256.128906 443.628906 L -68.628906 256.128906 Z M 118.871094 -68.628906 " clip-rule="nonzero"/></clipPath><clipPath id="176ee9016a"><path d="M 130 322 L 200 322 L 200 337 L 130 337 Z M 130 322 " clip-rule="nonzero"/></clipPath><clipPath id="b2fadfc6b7"><path d="M 118.871094 -68.628906 L 443.628906 118.871094 L 256.128906 443.628906 L -68.628906 256.128906 Z M 118.871094 -68.628906 " clip-rule="nonzero"/></clipPath><clipPath id="1bf08857b3"><path d="M 118.871094 -68.628906 L 443.628906 118.871094 L 256.128906 443.628906 L -68.628906 256.128906 Z M 118.871094 -68.628906 " clip-rule="nonzero"/></clipPath><clipPath id="16f1df9430"><path d="M 118.871094 -68.628906 L 443.628906 118.871094 L 256.128906 443.628906 L -68.628906 256.128906 Z M 118.871094 -68.628906 " clip-rule="nonzero"/></clipPath><clipPath id="cf235f3753"><path d="M 128 321 L 210 321 L 210 349 L 128 349 Z M 128 321 " clip-rule="nonzero"/></clipPath><clipPath id="2f781698b0"><path d="M 118.871094 -68.628906 L 443.628906 118.871094 L 256.128906 443.628906 L -68.628906 256.128906 Z M 118.871094 -68.628906 " clip-rule="nonzero"/></clipPath><clipPath id="42b29ad271"><path d="M 118.871094 -68.628906 L 443.628906 118.871094 L 256.128906 443.628906 L -68.628906 256.128906 Z M 118.871094 -68.628906 " clip-rule="nonzero"/></clipPath><clipPath id="2050f49762"><path d="M 118.871094 -68.628906 L 443.628906 118.871094 L 256.128906 443.628906 L -68.628906 256.128906 Z M 118.871094 -68.628906 " clip-rule="nonzero"/></clipPath><clipPath id="96463f3243"><rect x="0" width="375" y="0" height="375"/></clipPath></defs><g mask="url(#cbfe28f8ef)"><g transform="matrix(1, 0, 0, 1, 0, 0)"><g clip-path="url(#96463f3243)"><g clip-path="url(#dda5bdcf26)"><g clip-path="url(#0d63e60f63)"><g clip-path="url(#1d87b2a001)"><g clip-path="url(#96c28f05a9)"><path fill="#ffffff" d="M 230.96875 41.519531 C 211.199219 52.667969 199.890625 74.019531 194.828125 95.5 C 189.171875 119.53125 190.988281 144.5 190.042969 168.984375 C 189.277344 188.976562 184.964844 208.328125 178.613281 227.273438 C 171.808594 247.601562 162.910156 267.199219 152.761719 286.03125 C 142.027344 305.878906 129.78125 324.996094 115.90625 342.832031 C 114.101562 345.125 117.257812 348.445312 119.140625 346.105469 C 131.558594 330.707031 142.273438 313.988281 151.964844 296.78125 C 162.460938 278.101562 171.671875 258.632812 179.066406 238.546875 C 185.855469 220 191.195312 200.714844 192.960938 181.003906 C 195.140625 156.800781 192.371094 132.398438 195.457031 108.226562 C 198.644531 83.203125 209.003906 56.476562 231.84375 43.183594 C 232.898438 42.535156 231.980469 40.945312 230.96875 41.519531 Z M 230.96875 41.519531 " fill-opacity="1" fill-rule="nonzero"/></g></g></g></g><g clip-path="url(#6f92c807d9)"><g clip-path="url(#ed099f456c)"><g clip-path="url(#1080894cfc)"><g clip-path="url(#8944521598)"><path fill="#ffffff" d="M 183.1875 82.6875 C 179.886719 86.820312 181.535156 92.753906 182.660156 97.414062 C 183.304688 100.152344 184.117188 102.84375 185.347656 105.390625 C 186.355469 107.421875 188.035156 110.617188 190.40625 111.113281 C 191.476562 111.34375 192.511719 110.394531 192.183594 109.289062 C 191.640625 107.378906 189.746094 105.902344 188.703125 104.1875 C 187.441406 102.101562 186.507812 99.875 185.742188 97.597656 C 184.324219 93.445312 181.65625 87.605469 184.300781 83.523438 C 184.734375 82.859375 183.695312 82.066406 183.1875 82.6875 Z M 183.1875 82.6875 " fill-opacity="1" fill-rule="nonzero"/></g></g></g></g><g clip-path="url(#b48692c55a)"><g clip-path="url(#d9f6e1d9ea)"><g clip-path="url(#6eda0aa11a)"><g clip-path="url(#be105d76bd)"><path fill="#ffffff" d="M 214.589844 97.679688 C 206.742188 101.894531 199.007812 108.347656 195.140625 116.554688 C 194.179688 118.554688 197 120.28125 198.148438 118.289062 C 200.382812 114.507812 202.53125 110.863281 205.410156 107.554688 C 208.3125 104.199219 211.554688 101.339844 215.300781 98.960938 C 216.152344 98.488281 215.441406 97.207031 214.589844 97.679688 Z M 214.589844 97.679688 " fill-opacity="1" fill-rule="nonzero"/></g></g></g></g><g clip-path="url(#9bf2c94add)"><g clip-path="url(#67f4024d45)"><g clip-path="url(#2c0ded7aa4)"><g clip-path="url(#6ea4236aaf)"><path fill="#ffffff" d="M 163.507812 192.605469 C 171.234375 203.734375 175.710938 216.316406 177.988281 229.617188 C 178.339844 231.851562 181.699219 230.890625 181.359375 228.714844 C 179.28125 215.242188 172.945312 202.449219 164.351562 191.976562 C 163.980469 191.527344 163.160156 192.113281 163.507812 192.605469 Z M 163.507812 192.605469 " fill-opacity="1" fill-rule="nonzero"/></g></g></g></g><g clip-path="url(#1b9004540e)"><g clip-path="url(#7aa45570d2)"><g clip-path="url(#e8785041d6)"><g clip-path="url(#e2d89ebe7c)"><path fill="#ffffff" d="M 204.367188 184.597656 C 199.414062 190 193.765625 194.757812 189.09375 200.417969 C 187.960938 201.792969 189.761719 203.703125 191.074219 202.433594 C 196.261719 197.214844 200.4375 191.070312 205.339844 185.589844 C 205.921875 184.910156 204.964844 183.976562 204.367188 184.597656 Z M 204.367188 184.597656 " fill-opacity="1" fill-rule="nonzero"/></g></g></g></g><g clip-path="url(#e1a7d240b5)"><g clip-path="url(#18aa83beac)"><g clip-path="url(#b147fa608a)"><g clip-path="url(#b483cf788a)"><path fill="#ffffff" d="M 170.722656 258.859375 C 174.558594 251.117188 180.171875 245.082031 187.355469 240.339844 C 194.324219 235.714844 202.035156 232.488281 209.296875 228.363281 C 223.421875 220.382812 234.847656 208.960938 244.8125 196.300781 C 250.4375 189.160156 255.625 181.671875 260.820312 174.183594 C 259.683594 174.0625 258.535156 173.878906 257.398438 173.753906 C 261.726562 191.617188 253.207031 210.472656 244.367188 225.613281 C 235.363281 241.046875 221.789062 256.015625 203.011719 258.074219 C 193.839844 259.0625 184.3125 256.992188 177.503906 250.453125 C 175.238281 248.273438 171.710938 251.699219 174.015625 253.902344 C 187.792969 267.117188 209.910156 264.957031 224.714844 254.710938 C 233.246094 248.8125 240.007812 240.78125 245.445312 232.035156 C 250.789062 223.527344 255.285156 214.230469 258.523438 204.699219 C 261.96875 194.464844 263.640625 183.449219 261.035156 172.8125 C 260.609375 171.117188 258.492188 171.105469 257.613281 172.382812 C 248.34375 185.921875 238.9375 199.53125 227.152344 210.988281 C 221.203125 216.78125 214.675781 221.808594 207.492188 225.96875 C 200.167969 230.199219 192.523438 233.898438 185.714844 238.910156 C 179.007812 243.832031 172.371094 250.390625 170.242188 258.675781 C 170.097656 258.929688 170.554688 259.144531 170.722656 258.859375 Z M 170.722656 258.859375 " fill-opacity="1" fill-rule="nonzero"/></g></g></g></g><g clip-path="url(#ec016e5eea)"><g clip-path="url(#c81d007f34)"><g clip-path="url(#409a07b371)"><g clip-path="url(#48b1d3bc22)"><path fill="#ffffff" d="M 246.753906 207.425781 C 239.941406 220.644531 229.429688 231.824219 216.140625 238.601562 C 210.164062 241.671875 203.761719 243.726562 197.121094 244.765625 C 190.359375 245.84375 183.757812 245.316406 176.988281 244.984375 C 174.691406 244.867188 174.351562 248.292969 176.507812 248.910156 C 187.046875 251.757812 199.542969 249.695312 209.59375 245.929688 C 220.636719 241.773438 230.515625 234.625 237.753906 225.273438 C 241.917969 219.902344 245.113281 214.109375 247.335938 207.664062 C 247.46875 207.355469 246.941406 207.097656 246.753906 207.425781 Z M 246.753906 207.425781 " fill-opacity="1" fill-rule="nonzero"/></g></g></g></g><g clip-path="url(#aa15a99b8f)"><g clip-path="url(#dfa97c0f35)"><g clip-path="url(#0b56932cb9)"><g clip-path="url(#fc7cb1bf5e)"><path fill="#ffffff" d="M 232.3125 220.878906 C 223.671875 228.738281 212.613281 232.742188 201.628906 236.210938 C 196.429688 237.847656 191.117188 239.179688 186.113281 241.3125 C 181.417969 243.339844 176.152344 246.433594 173.699219 251.105469 C 172.703125 252.992188 175.410156 255.425781 176.867188 253.5625 C 178.589844 251.417969 180.175781 249.429688 182.5 247.828125 C 184.769531 246.238281 187.296875 245.039062 189.851562 244.054688 C 195.015625 242.054688 200.320312 240.480469 205.515625 238.503906 C 215.664062 234.652344 225.441406 229.523438 232.902344 221.457031 C 233.257812 221.085938 232.710938 220.527344 232.3125 220.878906 Z M 232.3125 220.878906 " fill-opacity="1" fill-rule="nonzero"/></g></g></g></g><g clip-path="url(#229a31de3d)"><g clip-path="url(#50bd7738e2)"><g clip-path="url(#cfc2efc590)"><g clip-path="url(#53e123a026)"><path fill="#ffffff" d="M 186.285156 186.621094 C 190.90625 174.9375 186.449219 162.652344 179.070312 153.175781 C 169.5 140.882812 155.445312 132.917969 146.433594 120.078125 C 141.679688 113.324219 138.175781 105.839844 136.007812 97.871094 C 135.628906 96.445312 134.007812 96.234375 133.003906 97.054688 C 126.523438 102.253906 123.234375 110.550781 123.042969 118.746094 C 122.832031 126.890625 125.597656 134.820312 129.257812 141.957031 C 136.914062 156.8125 149.023438 169.3125 163.464844 177.695312 C 171.339844 182.292969 180.773438 186.628906 189.953125 187.386719 C 192.300781 187.582031 192.453125 184.144531 190.433594 183.460938 C 186.71875 182.1875 182.910156 181.339844 179.21875 180.03125 C 175.601562 178.761719 172.09375 177.222656 168.695312 175.5 C 161.800781 171.957031 155.414062 167.445312 149.75 162.195312 C 144.125 156.964844 139.226562 151.046875 135.238281 144.488281 C 131.308594 138.066406 128.003906 130.988281 127.054688 123.429688 C 125.949219 114.628906 128.417969 105.328125 135.53125 99.625 C 134.535156 99.34375 133.515625 99.09375 132.523438 98.808594 C 136.386719 112.539062 143.972656 124.503906 154.398438 134.148438 C 164.910156 143.890625 177.398438 151.972656 183.527344 165.460938 C 186.453125 171.933594 187.746094 179.492188 185.605469 186.375 C 185.445312 186.910156 186.128906 187.0625 186.285156 186.621094 Z M 186.285156 186.621094 " fill-opacity="1" fill-rule="nonzero"/></g></g></g></g><g clip-path="url(#2235d69297)"><g clip-path="url(#73f3d83e9d)"><g clip-path="url(#b3d665a19d)"><g clip-path="url(#2e60d54044)"><path fill="#ffffff" d="M 137.660156 111.917969 C 132.816406 121.976562 138.167969 132.796875 145.265625 140.179688 C 153.691406 149.007812 164.027344 155.796875 172.714844 164.4375 C 175.136719 166.847656 177.460938 169.347656 179.570312 172.0625 C 181.832031 174.917969 183.480469 178.09375 185.453125 181.117188 C 186.691406 182.992188 190.28125 181.875 189.320312 179.527344 C 186.589844 172.785156 181.042969 166.832031 175.851562 161.847656 C 170.546875 156.804688 164.707031 152.273438 158.902344 147.765625 C 147.992188 139.386719 132.875 127.90625 137.96875 112.054688 C 138.039062 111.847656 137.726562 111.71875 137.660156 111.917969 Z M 137.660156 111.917969 " fill-opacity="1" fill-rule="nonzero"/></g></g></g></g><g clip-path="url(#e7af6a64f3)"><g clip-path="url(#211df1c4fb)"><g clip-path="url(#f52be6cdbf)"><g clip-path="url(#ca7991e5a7)"><path fill="#ffffff" d="M 145.007812 148.488281 C 151.6875 154.664062 158.417969 160.824219 165.261719 166.800781 C 168.609375 169.703125 171.960938 172.601562 175.296875 175.441406 C 178.757812 178.410156 182.113281 181.796875 185.960938 184.261719 C 187.851562 185.5 189.871094 182.75 188.378906 181.160156 C 185.269531 177.917969 181.285156 175.277344 177.78125 172.484375 C 174.222656 169.609375 170.585938 166.78125 166.984375 163.976562 C 159.929688 158.457031 152.75 153.152344 145.535156 147.828125 C 145.121094 147.539062 144.613281 148.164062 145.007812 148.488281 Z M 145.007812 148.488281 " fill-opacity="1" fill-rule="nonzero"/></g></g></g></g><g clip-path="url(#11d219fa94)"><g clip-path="url(#b7750013d9)"><g clip-path="url(#e51621360b)"><g clip-path="url(#894dcd2986)"><path fill="#ffffff" d="M 140.792969 308.351562 C 144.929688 294.410156 148.992188 280.089844 145.785156 265.480469 C 144.015625 257.5 140.179688 250.160156 136.605469 242.882812 C 132.695312 234.925781 128.804688 226.925781 124.898438 218.96875 C 123.578125 216.230469 122.199219 211.175781 118.800781 210.28125 C 115.40625 209.378906 113.648438 213.007812 112.378906 215.464844 C 109.328125 221.335938 107.257812 227.675781 106.191406 234.214844 C 103.976562 247.425781 105.570312 261.152344 110.214844 273.691406 C 112.898438 280.847656 116.480469 287.695312 121.140625 293.769531 C 126.144531 300.332031 133.15625 306.261719 141.816406 306.332031 C 144.753906 306.34375 144.683594 301.949219 141.765625 301.808594 C 128.734375 301.199219 120.460938 286.660156 115.730469 276.105469 C 110.839844 265.160156 108.511719 253.039062 109.226562 241.085938 C 109.628906 235.039062 110.851562 229.074219 112.9375 223.367188 C 113.988281 220.546875 115.222656 217.734375 116.746094 215.179688 C 117.164062 214.457031 117.523438 213.746094 118.402344 214.398438 C 118.945312 214.804688 119.289062 215.875 119.59375 216.4375 C 120.511719 218.273438 121.398438 220.089844 122.320312 221.925781 C 125.8125 229.015625 129.339844 236.125 132.832031 243.21875 C 136.113281 249.84375 139.78125 256.457031 142.074219 263.527344 C 146.703125 277.941406 143.699219 293.941406 140.253906 308.28125 C 140.121094 308.59375 140.675781 308.71875 140.792969 308.351562 Z M 140.792969 308.351562 " fill-opacity="1" fill-rule="nonzero"/></g></g></g></g><g clip-path="url(#046c2b491a)"><g clip-path="url(#daf911d569)"><g clip-path="url(#61107fa71f)"><g clip-path="url(#436cfb69f0)"><path fill="#ffffff" d="M 115.835938 233.40625 C 114.488281 246.203125 115.414062 258.910156 118.941406 271.292969 C 120.699219 277.375 123.101562 283.257812 126.046875 288.871094 C 127.507812 291.691406 129.160156 294.4375 130.910156 297.089844 C 131.738281 298.339844 132.605469 299.515625 133.507812 300.714844 C 134.449219 301.933594 135.21875 303.445312 136.851562 303.710938 C 137.875 303.867188 138.753906 303.261719 138.777344 302.214844 C 138.855469 300.664062 137.792969 299.660156 136.863281 298.5 C 135.910156 297.222656 134.976562 295.910156 134.042969 294.601562 C 132.351562 292.171875 130.78125 289.625 129.324219 287.039062 C 126.328125 281.6875 123.835938 276.046875 121.878906 270.230469 C 117.875 258.496094 115.859375 245.835938 116.550781 233.429688 C 116.597656 232.921875 115.902344 232.957031 115.835938 233.40625 Z M 115.835938 233.40625 " fill-opacity="1" fill-rule="nonzero"/></g></g></g></g><g clip-path="url(#3d534bf1c4)"><g clip-path="url(#1548900c4e)"><g clip-path="url(#5c01298a12)"><g clip-path="url(#cf02fbe646)"><path fill="#ffffff" d="M 130.097656 254.734375 C 130.296875 263.925781 130.996094 272.929688 132.945312 281.933594 C 134.824219 290.652344 137.695312 299.992188 142.160156 307.742188 C 143.417969 309.917969 146.378906 308.050781 145.460938 305.878906 C 143.789062 301.820312 141.792969 297.917969 140.167969 293.789062 C 138.539062 289.660156 137.183594 285.394531 135.886719 281.117188 C 133.378906 272.570312 131.441406 263.621094 130.832031 254.71875 C 130.859375 254.25 130.09375 254.242188 130.097656 254.734375 Z M 130.097656 254.734375 " fill-opacity="1" fill-rule="nonzero"/></g></g></g></g><g clip-path="url(#9694a14d1e)"><g clip-path="url(#721b29b22a)"><g clip-path="url(#13f037fe8f)"><g clip-path="url(#f2228c9362)"><path fill="#ffffff" d="M 165.824219 302.65625 C 162.019531 303.554688 158.222656 304.355469 154.40625 305.199219 C 150.871094 305.957031 146.625 306.113281 143.363281 307.664062 C 141.761719 308.429688 142.65625 310.734375 144.207031 310.808594 C 146.152344 310.867188 148.085938 310.195312 149.96875 309.691406 C 151.726562 309.253906 153.496094 308.777344 155.230469 308.28125 C 158.988281 307.210938 162.675781 306.007812 166.390625 304.769531 C 167.710938 304.324219 167.210938 302.347656 165.824219 302.65625 Z M 165.824219 302.65625 " fill-opacity="1" fill-rule="nonzero"/></g></g></g></g><g clip-path="url(#5157f8aaca)"><g clip-path="url(#717cce6823)"><g clip-path="url(#659855835f)"><g clip-path="url(#96b1fc2239)"><path fill="#ffffff" d="M 199.480469 80.835938 C 199.289062 68.113281 197.855469 52.019531 210.136719 44.136719 C 215.105469 40.964844 220.828125 39.335938 226.398438 37.480469 C 232.15625 35.539062 237.714844 33.191406 242.914062 29.960938 C 249.0625 26.167969 254.597656 21.4375 259.292969 15.980469 C 258.160156 15.519531 257.023438 15.058594 255.914062 14.558594 C 255.726562 26.675781 248.34375 36.960938 239.871094 45.019531 C 230.84375 53.621094 219.960938 60 210.546875 68.191406 C 205.226562 72.800781 200.246094 78.089844 196.777344 84.257812 C 195.351562 86.816406 199.191406 89.03125 200.730469 86.539062 C 214.328125 64.574219 241.5 56.007812 254.492188 33.503906 C 257.839844 27.707031 259.855469 21.285156 259.925781 14.558594 C 259.945312 12.929688 257.652344 11.796875 256.539062 13.136719 C 252.164062 18.289062 247.105469 22.863281 241.414062 26.53125 C 235.886719 30.15625 229.945312 32.667969 223.746094 34.789062 C 218.113281 36.753906 212.265625 38.691406 207.398438 42.261719 C 202.101562 46.160156 199.105469 51.773438 197.84375 58.148438 C 196.390625 65.425781 196.09375 73.8125 198.195312 80.964844 C 198.339844 81.726562 199.503906 81.628906 199.480469 80.835938 Z M 199.480469 80.835938 " fill-opacity="1" fill-rule="nonzero"/></g></g></g></g><g clip-path="url(#133a5d284c)"><g clip-path="url(#314fcb73c3)"><g clip-path="url(#4c2548764a)"><g clip-path="url(#d69c84245e)"><path fill="#ffffff" d="M 220.851562 42.734375 C 216.878906 43.917969 213.179688 47.144531 210.257812 49.949219 C 206.957031 53.070312 204.183594 56.785156 201.886719 60.679688 C 199.613281 64.535156 197.917969 68.726562 196.78125 73.042969 C 196.191406 75.316406 195.792969 77.597656 195.523438 79.90625 C 195.289062 81.898438 195.28125 83.921875 196.84375 85.402344 C 197.734375 86.207031 198.859375 86.179688 199.785156 85.410156 C 200.964844 84.449219 200.019531 83.082031 199.78125 82.320312 C 199.234375 80.5 199.972656 77.886719 200.289062 76.085938 C 201.132812 71.691406 202.566406 67.449219 204.550781 63.425781 C 206.496094 59.472656 208.945312 55.816406 211.789062 52.480469 C 214.652344 49.109375 218.253906 46.648438 221.292969 43.472656 C 221.515625 43.167969 221.25 42.625 220.851562 42.734375 Z M 220.851562 42.734375 " fill-opacity="1" fill-rule="nonzero"/></g></g></g></g><g clip-path="url(#ef31ca0b4c)"><g clip-path="url(#4cef7ed72e)"><g clip-path="url(#6b958b78ce)"><g clip-path="url(#1ed0bf06ae)"><path fill="#ffffff" d="M 195.105469 142.140625 C 199.476562 135.242188 204.242188 128.90625 211.066406 124.203125 C 217.578125 119.699219 225.105469 117.375 232.488281 114.632812 C 239.585938 111.964844 246 108.472656 251.683594 103.394531 C 257.445312 98.265625 262.167969 92.101562 266.644531 85.84375 C 265.476562 85.699219 264.363281 85.535156 263.191406 85.390625 C 268.421875 99.09375 263.371094 114.195312 255.113281 125.570312 C 250.597656 131.800781 244.714844 137.730469 237.574219 140.808594 C 230.761719 143.734375 223.34375 143.03125 216.207031 142 C 208.210938 140.863281 200.140625 139.441406 192.214844 141.535156 C 189.378906 142.265625 190.558594 146.664062 193.378906 145.878906 C 200.851562 143.910156 208.515625 145.441406 215.972656 146.503906 C 223.609375 147.582031 231.355469 148.140625 238.65625 145.207031 C 246.34375 142.101562 252.523438 136.25 257.453125 129.71875 C 262.191406 123.519531 265.863281 116.410156 267.796875 108.875 C 269.894531 100.8125 269.941406 92.191406 266.808594 84.390625 C 266.207031 82.835938 264.320312 82.515625 263.351562 83.941406 C 256.355469 93.964844 248.46875 103.855469 237.332031 109.507812 C 231.863281 112.289062 225.992188 114.167969 220.40625 116.644531 C 215.015625 119.039062 210.046875 122.117188 205.703125 126.128906 C 201.015625 130.476562 196.757812 135.847656 194.519531 141.894531 C 194.425781 142.230469 194.9375 142.429688 195.105469 142.140625 Z M 195.105469 142.140625 " fill-opacity="1" fill-rule="nonzero"/></g></g></g></g><g clip-path="url(#788c18857f)"><g clip-path="url(#7cf3cae58f)"><g clip-path="url(#ca446599a9)"><g clip-path="url(#e3e7014b61)"><path fill="#ffffff" d="M 258.101562 107.339844 C 240.136719 124.652344 213.269531 125.328125 193.253906 139.234375 C 191.160156 140.683594 193.128906 144.136719 195.222656 142.6875 C 214.96875 128.820312 243.410156 128.183594 258.460938 107.640625 C 258.640625 107.410156 258.265625 107.144531 258.101562 107.339844 Z M 258.101562 107.339844 " fill-opacity="1" fill-rule="nonzero"/></g></g></g></g><g clip-path="url(#7b03b40e3f)"><g clip-path="url(#2834c6569d)"><g clip-path="url(#a412bd3402)"><g clip-path="url(#a411851bd0)"><path fill="#ffffff" d="M 244.855469 127.523438 C 238.539062 134.023438 228.667969 134.21875 220.21875 134.460938 C 216.011719 134.542969 211.808594 134.628906 207.605469 135.296875 C 203.691406 135.886719 198.992188 136.992188 195.933594 139.621094 C 194.609375 140.742188 196.007812 143.335938 197.660156 142.648438 C 199.679688 141.835938 201.46875 140.738281 203.554688 140.058594 C 205.671875 139.398438 207.855469 138.96875 210.046875 138.6875 C 214.484375 138.109375 218.988281 138.097656 223.429688 137.765625 C 231.679688 137.117188 240.035156 134.789062 245.578125 128.277344 C 246 127.796875 245.316406 127.066406 244.855469 127.523438 Z M 244.855469 127.523438 " fill-opacity="1" fill-rule="nonzero"/></g></g></g></g><g clip-path="url(#2daf8091fb)"><g clip-path="url(#862ebda7d7)"><g clip-path="url(#d934901883)"><g clip-path="url(#e744189382)"><path fill="#ffffff" d="M 176.019531 126.484375 C 177.96875 129.640625 179.824219 132.785156 181.929688 135.835938 C 183.878906 138.652344 185.929688 141.964844 188.472656 144.253906 C 190.203125 145.78125 192.433594 143.5 190.964844 141.777344 C 188.796875 139.175781 186.023438 136.945312 183.699219 134.445312 C 181.234375 131.765625 178.871094 128.996094 176.839844 125.988281 C 176.515625 125.460938 175.664062 125.941406 176.019531 126.484375 Z M 176.019531 126.484375 " fill-opacity="1" fill-rule="nonzero"/></g></g></g></g><g clip-path="url(#564473f1a8)"><g clip-path="url(#407455c13a)"><g clip-path="url(#435e521e4c)"><g clip-path="url(#a53a81fb8f)"><path fill="#ffffff" d="M 158.613281 238.820312 C 161.363281 244.273438 163.5 250.195312 166.59375 255.460938 C 167.582031 257.089844 169.992188 255.683594 169.117188 254.019531 C 166.429688 248.550781 162.640625 243.5625 159.566406 238.257812 C 159.230469 237.582031 158.257812 238.179688 158.613281 238.820312 Z M 158.613281 238.820312 " fill-opacity="1" fill-rule="nonzero"/></g></g></g></g><g clip-path="url(#acb5ca9c3d)"><g clip-path="url(#38468d1629)"><g clip-path="url(#2ebc37889e)"><g clip-path="url(#79cfea72c3)"><path fill="#ffffff" d="M 176.835938 273.792969 C 170.359375 274.546875 163.125 276.117188 157.6875 279.839844 C 156.085938 280.945312 157.390625 283.195312 159.144531 282.421875 C 162.128906 281.101562 164.949219 279.394531 168.039062 278.230469 C 170.980469 277.078125 173.945312 276.03125 177.011719 275.246094 C 177.828125 275.085938 177.703125 273.710938 176.835938 273.792969 Z M 176.835938 273.792969 " fill-opacity="1" fill-rule="nonzero"/></g></g></g></g><g clip-path="url(#9ea90f7bff)"><g clip-path="url(#081c8f21e6)"><g clip-path="url(#6af543ea05)"><g clip-path="url(#7695ec5fab)"><path fill="#ffffff" d="M 115.292969 313.679688 C 116.988281 317.363281 118.777344 320.960938 120.792969 324.492188 C 122.527344 327.523438 124.386719 331.496094 127.183594 333.59375 C 127.882812 334.140625 129.101562 333.203125 128.757812 332.375 C 128.078125 330.628906 126.753906 329.238281 125.660156 327.785156 C 124.511719 326.253906 123.40625 324.742188 122.316406 323.199219 C 120.074219 319.96875 118.023438 316.660156 116.089844 313.226562 C 115.824219 312.683594 115.066406 313.164062 115.292969 313.679688 Z M 115.292969 313.679688 " fill-opacity="1" fill-rule="nonzero"/></g></g></g></g><g clip-path="url(#d764856308)"><g clip-path="url(#68576cfb6f)"><g clip-path="url(#5f768487a2)"><g clip-path="url(#2d7f610150)"><path fill="#ffffff" d="M 124.402344 334.402344 C 133.421875 324.632812 146.976562 320.234375 160.078125 320.644531 C 166.90625 320.867188 173.328125 323.222656 180.0625 323.777344 C 187.03125 324.417969 192.988281 321.722656 198.429688 317.566406 C 205.644531 312.019531 212.097656 305.359375 217.917969 298.378906 C 216.992188 298.136719 216.070312 297.890625 215.167969 297.613281 C 219.300781 314.976562 210.449219 332.820312 198.023438 344.632812 C 191.363281 350.980469 183.15625 355.90625 174.054688 357.609375 C 165.503906 359.195312 156.160156 357.472656 149.0625 352.359375 C 144.460938 349.027344 142.027344 344.289062 138.988281 339.683594 C 136.113281 335.367188 132.324219 331.726562 126.972656 331.199219 C 124.769531 330.992188 124.828125 334.410156 126.996094 334.59375 C 132.976562 335.195312 136 341.339844 138.765625 345.839844 C 141.246094 349.828125 144.210938 353.230469 148.160156 355.847656 C 155.730469 360.894531 165.394531 362.566406 174.300781 361.035156 C 192.460938 357.945312 208.035156 342.777344 215.191406 326.277344 C 219.21875 316.957031 220.789062 306.707031 218.367188 296.753906 C 218.097656 295.632812 216.410156 295.042969 215.621094 295.988281 C 210.429688 302.222656 204.773438 308.089844 198.574219 313.300781 C 192.707031 318.273438 186.460938 321.480469 178.621094 320.578125 C 171.957031 319.824219 165.621094 317.902344 158.867188 317.96875 C 152.640625 318.042969 146.492188 319.230469 140.710938 321.546875 C 134.199219 324.210938 128.453125 328.382812 124.039062 333.855469 C 123.789062 334.289062 124.136719 334.6875 124.402344 334.402344 Z M 124.402344 334.402344 " fill-opacity="1" fill-rule="nonzero"/></g></g></g></g><g clip-path="url(#176ee9016a)"><g clip-path="url(#b2fadfc6b7)"><g clip-path="url(#1bf08857b3)"><g clip-path="url(#16f1df9430)"><path fill="#ffffff" d="M 199.257812 322.246094 C 195.160156 328 188.617188 330.214844 182.003906 331.707031 C 175.386719 333.207031 169.125 333.507812 162.664062 331.226562 C 156.714844 329.140625 151.183594 325.753906 144.839844 324.945312 C 139.855469 324.289062 134.109375 325.03125 130.625 329.058594 C 129.316406 330.574219 131.246094 332.507812 132.78125 331.269531 C 143.699219 322.398438 157.070312 334.804688 168.332031 336.136719 C 174.625 336.871094 181.140625 335.464844 187.046875 333.269531 C 192.222656 331.328125 198.257812 328.242188 199.53125 322.359375 C 199.539062 322.171875 199.339844 322.101562 199.257812 322.246094 Z M 199.257812 322.246094 " fill-opacity="1" fill-rule="nonzero"/></g></g></g></g><g clip-path="url(#cf235f3753)"><g clip-path="url(#2f781698b0)"><g clip-path="url(#42b29ad271)"><g clip-path="url(#2050f49762)"><path fill="#ffffff" d="M 209.121094 321.808594 C 206.765625 323.878906 204.816406 326.421875 202.621094 328.636719 C 200.25 330.988281 197.824219 333.261719 195.152344 335.289062 C 190.121094 339.152344 184.511719 342.339844 178.394531 343.980469 C 172.511719 345.554688 166.210938 345.835938 160.261719 344.429688 C 157.378906 343.730469 154.667969 342.648438 152.117188 341.128906 C 149.347656 339.480469 147.191406 337.269531 144.851562 335.050781 C 140.5625 330.929688 134.269531 327.34375 128.773438 331.515625 C 127.222656 332.695312 129.21875 335.347656 130.859375 334.261719 C 136.808594 330.40625 142.292969 337.96875 146.292969 341.339844 C 150.808594 345.15625 156.402344 347.511719 162.25 348.429688 C 174.347656 350.242188 186.273438 346.15625 195.667969 338.585938 C 198.464844 336.335938 201.09375 333.792969 203.488281 331.066406 C 205.785156 328.433594 208.316406 325.546875 209.726562 322.351562 C 209.941406 321.894531 209.496094 321.492188 209.121094 321.808594 Z M 209.121094 321.808594 " fill-opacity="1" fill-rule="nonzero"/></g></g></g></g></g></g></g></svg>