<svg width="276" height="276" viewBox="0 0 276 276" fill="none" xmlns="http://www.w3.org/2000/svg">
<mask id="mask0_1239_377" style="mask-type:luminance" maskUnits="userSpaceOnUse" x="5" y="14" width="266" height="248">
<path d="M5.888 14.5532H270.112V261.297H5.888V14.5532Z" fill="white"/>
</mask>
<g mask="url(#mask0_1239_377)">
<path d="M267.691 115.88L265.94 113.263C265.569 112.711 265.164 112.105 264.736 111.435C264.092 110.446 263.439 109.385 262.781 108.284L262.663 108.088C261.967 106.933 261.248 105.74 260.469 104.368C260.458 104.342 260.124 103.764 259.546 102.847C258.845 101.717 257.951 100.432 257.031 99.2277C256.068 97.9742 254.777 96.347 253.313 94.8865C251.761 93.3282 250.257 92.0747 248.817 91.1317C247.949 90.5912 247.049 90.1859 247.017 90.1686C246.776 90.0622 246.531 89.9559 246.241 89.8409C244.752 89.2745 243.489 88.9582 242.279 88.8519C241.086 88.7455 239.858 88.7714 238.424 88.9439C237.081 89.0819 235.692 89.3866 234.077 89.746L228.657 91.0081C227.726 91.2237 226.895 91.3474 226.081 91.3905C225.371 91.4365 224.744 91.4164 224.112 91.3301C223.037 91.1806 222.076 90.8212 220.975 90.3986L220.418 90.1945C219.164 89.723 217.747 89.194 215.935 88.8346C213.811 88.4436 211.528 88.412 208.874 88.7455C203.599 89.4556 197.949 91.7844 193.752 94.9727C190.776 97.2469 188.864 99.6044 188.258 101.654C184.891 101.847 181.527 102.103 178.167 102.425C184.06 97.4625 190.037 92.5894 196.081 87.814H196.167C196.495 87.814 196.848 87.7967 197.216 87.7536C198.602 87.9146 199.996 87.9951 201.365 87.9951C203.642 87.9951 205.902 87.7709 208.075 87.3252C211.068 86.7301 213.891 85.6865 216.712 84.1282C222.007 81.1095 224.92 77.1794 226.429 74.4222C227.789 71.9411 228.669 69.2932 229.52 66.7316C229.767 65.9784 230.017 65.2165 230.285 64.4517C231.325 61.433 232.668 58.1009 235.468 54.2196C235.747 53.8229 236.106 53.3686 236.523 52.8425C237.981 51.0054 239.97 48.4955 241.931 44.2175C243.044 41.722 244.395 38.3554 244.93 34.408C245.332 31.5646 245.459 26.7461 244.496 22.5112C243.429 17.6381 241.373 14.7459 238.864 14.582C238.777 14.5705 238.685 14.5705 238.605 14.5705C236.549 14.5705 235.623 16.2207 234.215 18.7134L233.973 19.1417C233.599 19.7915 233.177 20.4987 232.688 21.2692C232.222 21.9909 231.65 22.8045 230.923 23.7532C230.322 24.541 229.563 25.4236 228.525 26.5161C227.559 27.5109 226.467 28.5085 225.285 29.4774L220.857 33.097C220.354 33.5081 219.828 33.9307 219.293 34.3591C217.157 36.0784 214.944 37.8551 213.391 39.5054C212.793 40.1321 212.327 40.779 212.316 40.802C212.186 40.9774 212.06 41.1614 211.962 41.331C210.634 43.3435 210.275 45.1174 210.148 47.1557C210.111 47.7882 210.105 48.4581 210.093 49.1654C210.073 50.7064 210.05 52.4572 209.757 54.6796C209.654 55.3552 209.498 55.959 209.286 56.4909C209.093 56.9221 208.851 57.3189 208.529 57.7041C208.291 58.006 207.94 58.2791 207.627 58.5091C207.193 58.8139 206.807 59.0554 206.393 59.2739L206.149 59.409C205.715 59.639 205.275 59.8776 204.858 60.1306C204.3 60.4469 203.697 60.8062 203.107 61.2547C201.73 62.2667 200.525 63.4886 199.315 65.09C198.016 66.8179 196.848 68.7039 195.862 70.6531C195.428 71.4552 195.054 72.2861 194.683 73.0825L194.448 73.6029C194.085 74.4539 193.66 75.4601 193.286 76.4721C191.481 81.3912 191.248 84.5077 192.559 86.2902C192.498 86.3937 192.438 86.4972 192.381 86.6065C192.297 86.7617 192.26 86.9141 192.257 87.0607C175.363 100.519 159.031 114.675 143.316 129.481C144.699 121.23 145.521 112.916 145.788 104.581C146.027 104.36 146.176 104.035 146.119 103.641C146.09 103.457 146.073 103.276 146.05 103.095C146.815 102.701 147.525 102.037 148.18 101.096C148.839 100.536 149.488 99.9522 150.104 99.3629C150.762 98.7361 151.326 98.1151 151.866 97.5114L151.947 97.4251C153.263 95.9186 154.215 94.6939 154.954 93.564C155.759 92.3335 156.48 91.0627 157.113 89.7949C157.748 88.5212 158.174 87.2821 158.559 86.1062C159.859 82.0094 160.031 77.924 159.077 74.0054C158.772 72.5909 158.249 71.2799 157.74 70.0091L157.513 69.4485C157.406 69.1811 157.3 68.9166 157.193 68.6492C157.009 68.2007 156.828 67.7551 156.636 67.2951C156.282 66.5016 156.009 65.8375 155.773 65.2165C155.486 64.4632 155.256 63.7675 155.057 63.043C154.793 62.1977 154.612 61.4847 154.482 60.8005C154.327 59.9926 154.232 59.1934 154.189 58.305C154.109 57.3965 154.091 56.4966 154.14 55.5421C154.157 55.1396 154.221 54.6365 154.29 54.0644C154.376 53.3485 154.477 52.5377 154.531 51.6062L154.537 51.4941C154.638 49.7806 154.773 47.6445 154.451 45.0426L154.393 44.5337C154.29 43.6137 154.163 42.4724 153.91 41.1987C153.542 39.468 153.079 37.835 152.519 36.3055C151.978 34.983 151.234 33.4621 150.36 31.9096C149.563 30.5066 148.52 29.0231 147.255 27.5022C146.714 26.8381 146.093 26.2114 145.417 25.6277C144.759 25.0614 144.118 24.5927 143.517 24.2506C141.947 23.3479 140.461 23.1639 139.225 23.6727C137.201 24.5094 136.959 26.4356 136.594 29.348L136.577 29.4975C136.493 30.1731 136.396 30.935 136.263 31.7745C136.14 32.5335 135.953 33.4276 135.674 34.5805C135.389 35.7247 135.073 36.8345 134.711 37.9471C134.323 39.0885 133.794 40.4167 133.124 41.9146L130.956 47.0177C130.329 48.5012 129.734 50.0796 129.162 51.612C128.472 53.4549 128.032 54.9757 127.82 56.2177C127.641 57.0515 127.598 57.8392 127.592 57.8651C127.584 58.0807 127.578 58.305 127.578 58.5292C127.584 59.8201 127.851 60.858 128.087 61.6314C128.366 62.5197 128.794 63.3822 129.447 64.377L129.57 64.5552C130.082 65.297 130.646 66.1106 131.321 67.045L132.471 68.6406C132.808 69.1265 133.153 69.6785 133.515 70.2679L133.676 70.5237C134.035 71.1131 134.308 71.6795 134.464 72.151C134.587 72.5851 134.645 73.0192 134.639 73.4591C134.625 74.2354 134.458 74.9829 134.061 76.0322L133.966 76.2737C133.59 77.2541 133.167 78.3639 132.92 79.7295L132.888 79.9365C132.782 80.569 132.664 81.2849 132.652 82.0784C132.609 83.053 132.724 84.1081 132.836 84.985C132.949 86.0459 133.167 87.1441 133.478 88.274C133.547 88.5097 133.618 88.7455 133.682 88.9755C133.9 89.746 134.13 90.5452 134.441 91.3531C135.128 93.0982 135.985 95.1337 137.097 97.0025L137.278 97.2957C137.718 98.0231 138.141 98.7102 138.607 99.3571C139.147 100.119 139.699 100.786 140.257 101.355C141.134 102.249 142.002 102.865 142.847 103.207C142.646 111.518 141.873 119.81 140.53 128.035C140.53 128.041 140.53 128.041 140.53 128.041C138.607 122.964 136.192 118.105 133.342 113.534C133.696 113.281 133.923 112.803 133.791 112.338C134.191 111.659 134.444 110.857 134.49 110.006C135.019 108.241 135.099 106.225 134.737 103.877C134.607 103.04 134.429 102.169 134.168 101.119C133.963 100.32 133.739 99.5267 133.483 98.7102C132.641 95.9359 131.428 93.3484 129.66 90.5769L129.622 90.5222C128.895 89.4729 128.096 88.4609 127.25 87.4977C126.816 87.009 126.425 86.5749 125.985 86.1522C125.574 85.767 125.146 85.3875 124.723 85.0281C123.915 84.3525 123.067 83.7114 122.185 83.1105C121.328 82.5556 120.471 82.11 119.675 81.7075C118.944 81.3567 118.16 81.006 117.242 80.638C116.552 80.3821 115.851 80.155 115.175 79.9365L112.369 79.0366C112.096 78.9504 111.82 78.8699 111.547 78.7865C111.015 78.6312 110.486 78.4702 109.951 78.2862C109.1 78.0045 108.333 77.7141 107.562 77.3835C106.651 77.0299 105.903 76.6964 105.173 76.3226C104.544 76.0121 103.894 75.6154 103.21 75.1927L102.755 74.9139C101.924 74.3935 101.088 73.7955 100.297 73.1515C99.9637 72.8697 99.6044 72.5535 99.2047 72.2056C98.5837 71.6594 97.8592 71.0211 96.9881 70.2937L96.623 69.9947C95.9905 69.4744 95.2804 68.885 94.4437 68.3215C93.3685 67.5884 92.276 66.9041 91.1346 66.2457C90.1715 65.6564 88.9554 65.0612 87.2907 64.2907L87.0176 64.1671C86.3535 63.8796 85.6031 63.5404 84.7952 63.2672C83.8695 62.951 82.938 62.675 82.0122 62.4335L81.8944 62.4019C81.1756 62.2236 80.3677 62.0195 79.4794 61.8757C78.5479 61.732 77.5991 61.6141 76.6877 61.5221C74.8736 61.3094 72.7691 61.2806 70.725 61.4359C68.839 61.5509 66.9817 61.962 65.4781 62.5945C63.6841 63.3592 62.6117 64.4345 62.2955 65.7915C61.7722 67.9909 63.3736 69.2817 65.7915 71.2396L66.3492 71.691C66.8092 72.0647 67.2865 72.45 67.7954 72.9129C68.5716 73.623 69.2904 74.3245 70.0005 75.0576C71.6335 76.7021 73.3585 78.8986 74.9972 81.4142L75.2531 81.8052C75.4084 82.0295 75.6297 82.3716 75.9086 82.8057C76.6935 84.0161 77.464 85.1719 78.2086 86.2586C78.5622 86.7589 78.9216 87.2936 79.2925 87.8456C79.8847 88.7225 80.5 89.6339 81.144 90.4992L81.4372 90.8902C82.3745 92.1294 83.3405 93.403 84.3295 94.392C84.64 94.7025 84.9562 94.9814 85.2035 95.1855C85.4392 95.3896 85.6031 95.5132 85.6031 95.5132C85.7756 95.6512 85.9567 95.7921 86.1494 95.9359C87.147 96.6517 88.1302 97.1606 89.171 97.4999C90.3009 97.8535 91.2525 98.0547 92.2444 98.1467C92.7475 98.2014 93.3024 98.2387 93.9147 98.2646L97.888 98.555C98.4601 98.6067 99.0926 98.6987 99.7567 98.7879L100.26 98.8655C101.168 99.0035 101.769 99.1587 102.212 99.3571C102.706 99.5699 103.141 99.8286 103.532 100.139C103.874 100.412 104.19 100.723 104.495 101.091C104.774 101.439 105.029 101.841 105.303 102.269L105.501 102.591C105.78 103.034 106.067 103.491 106.384 103.946C106.57 104.224 106.769 104.498 106.99 104.776C107.22 105.101 107.444 105.392 107.669 105.665C108.226 106.338 108.836 106.95 109.555 107.548C109.698 107.666 109.842 107.784 109.995 107.907C110.567 108.373 111.214 108.899 111.996 109.385C112.447 109.681 112.933 109.969 113.496 110.279C113.982 110.578 114.491 110.863 114.988 111.124C115.701 111.501 116.429 111.817 117.136 112.122C117.464 112.266 117.783 112.407 118.137 112.565C119.16 113.005 120.247 113.401 121.388 113.749C122.406 114.043 123.363 114.198 124.246 114.215H124.43C124.792 114.215 125.134 114.198 125.407 114.16C125.525 114.152 125.643 114.135 125.755 114.12C125.853 114.103 125.945 114.08 126.083 114.086L126.181 114.091C126.802 114.103 127.437 114.172 127.92 114.232L128.199 114.264C128.829 114.344 129.424 114.419 130.019 114.419C130.143 114.419 130.26 114.413 130.378 114.408C134.087 120.232 137.048 126.546 139.159 133.196C139.176 133.256 139.196 133.308 139.222 133.363C117.527 154.1 97.014 176.074 77.7917 199.145C78.1626 194.221 78.5364 189.299 78.9015 184.374C79.2695 184.132 79.6432 183.845 80.0256 183.497C83.2744 181.637 86.1781 179.158 88.6564 176.134C90.6315 173.725 92.2156 171.062 93.5122 167.978C95.3062 163.567 96.025 159.1 95.6599 154.704C95.4874 152.746 95.1136 150.871 94.7427 149.057C94.4754 147.738 94.1965 146.375 94.0154 145.024C93.909 144.196 93.8457 143.434 93.8112 142.701C93.7911 141.924 93.8112 141.162 93.886 140.392C93.9665 139.621 94.1189 138.839 94.3316 138.032C94.5789 137.175 94.8951 136.338 95.2516 135.585C95.6857 134.734 96.4131 133.618 97.336 132.207C98.1697 130.927 99.1185 129.476 100.185 127.707C100.398 127.339 100.628 126.969 100.881 126.601C101.122 126.235 101.367 125.833 101.62 125.416L101.752 125.198C102.123 124.651 102.439 124.137 102.706 123.654L102.905 123.323C103.149 122.915 103.408 122.492 103.638 122.021C104.003 121.368 104.354 120.618 104.699 119.896L105.035 119.183L105.084 119.082C105.179 118.835 105.285 118.599 105.395 118.369C105.512 118.125 105.625 117.872 105.731 117.616L105.754 117.556C105.832 117.326 105.924 117.113 106.01 116.897C106.116 116.63 106.228 116.363 106.315 116.104C106.378 115.917 106.438 115.719 106.493 115.526L106.55 115.333C106.642 115.072 106.717 114.81 106.775 114.563C106.892 114.103 106.947 113.631 106.984 113.252L107.022 112.93C107.117 111.628 106.806 110.414 106.116 109.417C105.521 108.56 104.756 108.042 103.718 107.795C103.29 107.695 102.813 107.634 102.192 107.608L102.057 107.603C101.87 107.597 101.669 107.591 101.453 107.591C101.025 107.591 100.659 107.614 100.343 107.657C99.7079 107.715 98.9632 107.801 98.049 107.925C97.3504 108.031 96.623 108.18 95.7892 108.353L95.0964 108.491C94.2137 108.678 93.3254 108.919 92.3019 109.204L91.3272 109.471C90.7982 109.627 90.2635 109.802 89.7 109.992L88.5874 110.36C87.9664 110.57 87.3224 110.782 86.7014 111.03C86.6755 111.041 86.0114 111.285 84.9562 111.768C83.7401 112.303 82.2796 113.111 80.7214 114.109C77.7917 115.992 73.83 119.35 71.4955 123.13C70.9004 124.105 70.4346 125.123 70.4202 125.16C70.2966 125.428 70.173 125.712 70.0379 126.054C68.9425 128.998 68.6349 131.606 69.0201 134.748C69.1725 136.212 69.4887 137.695 69.851 139.417L71.2597 145.159C72.2545 149.083 71.4581 150.914 70.541 153.03L70.3972 153.361C70.173 153.876 69.9315 154.428 69.6957 155.014C69.6641 154.856 69.6382 154.701 69.6037 154.546C69.4657 153.815 69.3047 153.076 69.1351 152.392C68.4365 149.276 67.1859 146.749 66.1624 144.886C65.8519 144.322 65.5672 143.819 65.2251 143.296C64.9031 142.839 64.5725 142.384 64.2304 141.944C63.5979 141.125 62.9222 140.334 62.2265 139.578C61.9016 139.23 61.5681 138.883 61.2317 138.546C60.9471 138.262 60.6567 138.02 60.3807 137.784L60.1019 137.549C59.3342 136.902 58.5695 136.298 57.9169 135.778C57.6581 135.585 57.408 135.381 57.1521 135.182C56.6749 134.803 56.1976 134.423 55.683 134.047C54.8176 133.437 54.1161 132.917 53.4721 132.42C52.6844 131.81 51.9886 131.232 51.3417 130.649L51.2929 130.605C50.5971 130.033 49.8525 129.401 49.1366 128.688C48.4006 127.972 47.7279 127.23 47.0752 126.428L47.0206 126.371C46.2501 125.52 45.5572 124.663 44.8902 123.728C44.6257 123.378 44.3497 122.938 44.022 122.423C43.5304 121.647 42.9726 120.77 42.2452 119.821C41.5322 118.852 40.8422 117.964 40.1091 117.076C40.0056 116.952 39.905 116.828 39.7986 116.705C39.4824 116.325 39.123 115.891 38.7205 115.494C38.203 114.971 37.6567 114.434 37.0875 113.905C36.9121 113.738 36.7195 113.562 36.5154 113.37C35.7334 112.637 34.7587 111.725 33.5714 110.8C31.8665 109.526 30.153 108.396 28.4769 107.442L28.4136 107.404C26.9157 106.639 25.0182 105.82 22.9684 105.052C22.0369 104.673 21.068 104.429 20.1365 104.193L19.6909 104.078C18.5897 103.808 17.5174 103.575 16.4996 103.399L16.2064 103.35C15.7895 103.281 15.3554 103.207 14.8896 103.175C14.3692 103.138 13.8661 103.115 13.3889 103.109H13.0899C12.19 103.109 11.3706 103.164 10.6576 103.276C8.5876 103.598 7.21623 104.406 6.60097 105.673C5.57747 107.746 7.0121 109.371 9.19135 111.817L9.38972 112.042C9.91585 112.637 10.488 113.289 11.0774 114.002C11.6322 114.692 12.2216 115.543 12.9289 116.604C13.6505 117.7 14.3002 118.786 14.9097 119.902C15.4876 121 16.0827 122.337 16.7785 124.131L18.1182 127.452L18.9635 129.683L19.9209 132.109C20.0387 132.394 20.1509 132.673 20.2687 132.954C20.4901 133.475 20.7086 134.004 20.9271 134.579C21.7005 136.537 22.4336 138.08 23.1725 139.299C23.6124 140.11 24.1097 140.794 24.1241 140.815C24.265 141.007 24.4087 141.2 24.5812 141.404C24.9924 141.901 25.4035 142.335 25.8434 142.726C26.1165 142.974 26.3954 143.198 26.6742 143.419C26.7979 143.514 26.9186 143.612 27.0796 143.744C27.899 144.371 28.8305 144.9 30.0581 145.426C30.6245 145.645 31.2081 145.898 31.8406 146.171C32.3294 146.378 32.8469 146.605 33.4046 146.835L35.4717 147.697C35.9892 147.927 36.547 148.221 37.1306 148.531L37.7372 148.847C38.4474 149.227 39.0684 149.635 39.5887 150.058C39.974 150.423 40.3104 150.834 40.6209 151.311C40.8796 151.711 41.0981 152.156 41.2965 152.654C41.4949 153.189 41.6616 153.64 41.768 154.175L41.837 154.468C42.0957 155.604 42.389 156.883 42.9927 158.323C43.0905 158.539 43.1825 158.763 43.2774 158.993L43.4384 159.39C43.6252 159.824 43.8409 160.264 44.0594 160.669C44.4992 161.512 45.0829 162.34 45.6981 163.219L45.8217 163.395C46.4859 164.392 47.2621 165.381 48.1332 166.356L48.6967 166.966L49.2804 167.647C49.6714 168.095 50.0882 168.547 50.5597 169.021C50.8817 169.329 51.198 169.634 51.5114 169.933C52.9 171.267 54.2052 172.529 55.6744 173.644C56.0107 173.894 56.3327 174.142 56.6432 174.383C57.1291 174.763 57.5834 175.122 58.0721 175.447C58.8972 176.022 59.6994 176.502 60.4612 176.873C61.7032 177.482 62.8101 177.793 63.7589 177.793C64.009 177.793 64.2562 177.773 64.492 177.724C68.1547 186.467 71.0297 195.549 73.0796 204.858C63.8106 216.188 54.8579 227.766 46.207 239.571C45.0656 241.129 47.6675 242.624 48.7974 241.086C52.5464 235.974 56.3529 230.903 60.2197 225.88C60.375 225.929 60.5504 225.946 60.7487 225.929C69.0805 225.239 77.4266 225.115 85.744 225.555C85.6951 226.904 86.4167 228.22 87.8945 229.468C91.8907 235.08 96.002 239.321 100.125 242.078C103.465 244.3 106.947 245.637 110.469 246.057C112.027 246.238 113.591 246.249 115.106 246.261C119.172 246.281 123.01 246.307 127.181 249.418C127.63 249.751 128.176 250.243 128.814 250.812C130.131 251.999 131.937 253.621 134.544 255.366L134.699 255.47C136.229 256.493 138.555 258.04 141.387 259.175C144.014 260.219 148.341 261.438 151.892 261.438C154.905 261.438 156.903 260.561 157.829 258.83C158.872 256.861 157.846 255.153 156.42 252.781L156.271 252.528C154.911 250.274 152.855 246.865 150.457 241.204C150.414 241.109 149.44 238.795 147.881 235.951C146.447 233.312 144.207 229.672 141.691 227.3C141.007 226.656 140.277 226.142 140.251 226.127C140.058 225.986 139.849 225.848 139.619 225.71C137.402 224.351 135.292 223.793 132.336 223.793C131.063 223.793 129.66 223.888 128.032 223.997C126.877 224.077 125.56 224.161 124.079 224.233C120.744 224.397 119.39 223.347 117.501 221.855C116.777 221.28 115.989 220.65 115.02 220.05C117.628 219.492 120.097 218.589 122.4 217.336C123.829 216.597 125.108 215.68 126.35 214.797L129.001 212.879C129.795 212.281 130.453 211.804 131.074 211.376C131.833 210.855 132.546 210.407 133.285 209.984C134.162 209.458 134.906 209.053 135.637 208.711C136.496 208.297 137.359 207.954 138.313 207.638C139.294 207.279 140.277 206.991 141.326 206.75C141.798 206.638 142.37 206.546 143.034 206.439C143.807 206.316 144.673 206.178 145.647 205.962L145.745 205.948C147.597 205.551 149.9 205.056 152.614 204.007L153.154 203.806C154.103 203.446 155.29 203.001 156.587 202.403C158.349 201.56 159.988 200.661 161.492 199.692C162.803 198.803 164.28 197.659 165.77 196.374C167.129 195.201 168.527 193.766 169.924 192.116C170.536 191.403 171.103 190.627 171.612 189.813C172.109 189.017 172.506 188.261 172.785 187.565C173.518 185.754 173.523 184.23 172.799 183.04C171.934 181.599 170.462 181.435 169.432 181.435C168.576 181.435 167.546 181.562 166.204 181.723C165.465 181.815 164.634 181.916 163.708 182.002C162.869 182.077 161.871 182.131 160.592 182.157C159.387 182.183 158.053 182.169 156.785 182.108C155.48 182.039 153.985 181.884 152.197 181.631L146.22 180.952C144.417 180.76 142.468 180.653 140.797 180.567C138.661 180.461 136.824 180.513 135.389 180.705C134.435 180.809 133.558 181.021 133.526 181.027C133.291 181.085 133.043 181.151 132.793 181.226C131.362 181.654 130.269 182.249 129.473 182.723C128.547 183.275 127.667 183.971 126.687 184.926C125.879 185.739 125.008 186.628 123.99 187.703L122.371 189.408C121.863 189.925 121.279 190.472 120.664 191.049L120.445 191.259C119.813 191.849 119.192 192.329 118.631 192.68C118.111 192.979 117.585 193.203 117.024 193.37C116.156 193.614 115.287 193.717 114.117 193.717L113.479 193.712C113.094 193.7 112.703 193.694 112.3 193.694C111.536 193.694 110.501 193.717 109.293 193.899L109.126 193.924C108.356 194.042 107.482 194.183 106.55 194.456C105.65 194.698 104.67 195.051 103.29 195.635C102.117 196.115 100.93 196.699 99.7395 197.38L99.0811 197.765C98.2244 198.263 97.336 198.783 96.4792 199.375C94.001 201.112 92.2645 202.498 90.8672 203.846C88.0986 206.428 84.9764 210.108 85.8561 212.997C85.905 213.152 85.9625 213.308 86.0315 213.454C78.8727 215.734 71.714 218.017 64.5552 220.303C64.5552 220.303 64.5524 220.303 64.5495 220.303H64.5552C81.8397 198.225 100.268 177.037 119.781 156.894C119.836 156.894 119.899 156.889 119.956 156.883C125.597 156.273 131.249 155.831 136.905 155.558C137.98 156.869 139.998 157.34 140.941 157.533C148.801 161.29 155.178 164.151 160.715 165.87C165.514 167.394 169.984 168.208 174.392 168.348C175.944 168.397 177.497 168.363 179.064 168.325C180.061 168.3 181.067 168.279 182.085 168.279C183.301 168.279 184.328 168.311 185.314 168.386C189.678 168.708 193.312 169.869 196.745 172.026C197.478 172.491 198.34 173.141 199.421 173.96C201.215 175.315 203.449 176.999 206.586 178.983L206.859 179.158C208.84 180.418 211.827 182.318 215.378 183.977C218.066 185.23 222.375 186.938 226.418 187.976C228.614 188.54 230.471 188.824 231.941 188.824C233.967 188.824 235.425 188.272 236.265 187.191C237.791 185.23 236.426 183.181 234.542 180.343L234.413 180.15C232.605 177.456 229.868 173.38 226.49 166.848C226.472 166.822 226.13 166.163 225.521 165.097C224.977 164.151 224.083 162.644 222.884 160.868C221.243 158.415 217.899 153.853 214.029 150.828C213.075 150.089 212.069 149.468 212.031 149.448C211.764 149.281 211.485 149.115 211.16 148.939C208.187 147.332 205.516 146.544 201.934 146.214C200.048 146.036 197.912 145.967 194.571 145.967C193.226 145.967 191.765 145.978 190.15 145.987L189.109 145.992C184.158 145.992 181.743 144.86 178.937 143.534L178.825 143.483C178.063 143.135 177.281 142.775 176.404 142.41C175.43 142.019 174.418 141.677 173.299 141.355C170.643 140.616 167.768 140.26 164.507 140.26H164.404C160.865 140.268 157.17 140.751 153.396 141.709C151.403 142.252 149.839 142.755 148.491 143.301C147.646 143.632 146.95 143.917 146.254 144.236C145.561 144.564 144.877 144.906 144.224 145.254C140.976 147.004 137.767 149.434 136.634 151.846C136.016 152.01 135.395 152.188 134.78 152.392C134.579 152.458 134.429 152.568 134.32 152.7C130.548 152.915 126.779 153.203 123.015 153.571C137.965 138.305 153.536 123.645 169.694 109.647C171.166 108.373 172.644 107.099 174.133 105.837C174.136 105.837 174.136 105.834 174.139 105.834C178.9 105.305 183.669 104.903 188.45 104.636C189.034 105.728 190.23 106.536 192.021 107.051C198.438 110.805 203.84 113.258 208.529 114.551C211.278 115.285 213.926 115.661 216.413 115.661C217.563 115.661 218.71 115.581 219.843 115.42C221.355 115.172 222.761 114.896 224.144 114.563L224.802 114.413C225.279 114.301 225.751 114.189 226.225 114.097C227.03 113.948 227.703 113.841 228.341 113.761C229.091 113.663 229.793 113.611 230.446 113.588H230.538C231.21 113.588 231.918 113.637 232.636 113.732C233.407 113.836 234.177 113.997 234.885 114.198C235.681 114.451 236.492 114.779 237.288 115.172C238.059 115.563 239.002 116.153 240.384 117.047C241.71 117.904 243.354 118.829 245.565 119.977C246.215 120.304 247.273 120.828 248.636 121.437C250.102 122.118 251.473 122.642 252.779 123.018C253.69 123.306 255.15 123.714 256.933 124.036C258.434 124.303 260.024 124.577 261.559 124.64C262.025 124.666 262.476 124.683 262.899 124.683C266.265 124.683 268.37 123.789 269.33 121.957C270.385 119.916 269.195 118.134 267.691 115.88ZM241.572 23.1639C242.446 27.0135 242.328 31.3979 241.957 33.9969C241.411 38.0276 239.858 41.5092 239.2 42.9812C237.397 46.9171 235.531 49.266 234.172 50.9795C233.729 51.543 233.344 52.0289 233.027 52.486C230.003 56.6777 228.514 60.3922 227.453 63.4714C227.185 64.2476 226.929 65.0181 226.671 65.7857C225.825 68.333 225.026 70.7365 223.801 72.9819C222.479 75.4026 219.914 78.8555 215.245 81.5149C212.713 82.9121 210.18 83.8494 207.486 84.3927C204.982 84.8987 202.357 85.0885 199.718 84.9534C198.947 84.916 198.174 84.8527 197.397 84.755L197.211 84.7349L197.024 84.755C196.751 84.7924 196.5 84.8125 196.268 84.8154C198.148 83.0214 200.551 81.8225 202.923 80.6236C206.074 79.028 208.92 77.2714 211.18 74.5114C215.818 68.8476 217.246 61.5451 220.228 55.0275C225.949 42.5184 241.014 33.4276 239.643 18.3281C240.301 19.182 241.046 20.7661 241.572 23.1639ZM196.098 77.5042C196.446 76.5584 196.851 75.5981 197.185 74.8161L197.409 74.3302C197.757 73.5741 198.116 72.7921 198.524 72.0389C199.444 70.2132 200.514 68.4825 201.71 66.8926C202.742 65.527 203.748 64.5035 204.901 63.6582C205.373 63.2989 205.87 62.9999 206.373 62.7152C206.773 62.4709 207.181 62.2552 207.572 62.0425L207.802 61.9189C208.322 61.6457 208.814 61.341 209.38 60.9385C209.858 60.5849 210.41 60.1565 210.858 59.5959C211.335 59.0122 211.721 58.3941 212.048 57.6524C212.37 56.8474 212.589 56.0194 212.724 55.0907C213.043 52.6729 213.072 50.7495 213.086 49.2027C213.098 48.5012 213.109 47.8946 213.141 47.3397C213.242 45.6952 213.495 44.4532 214.489 42.9324C214.576 42.7915 214.662 42.6707 214.748 42.5471C214.751 42.5414 215.11 42.0497 215.562 41.5725C216.985 40.0631 219.115 38.3496 221.171 36.6936C221.714 36.2595 222.243 35.8311 222.746 35.42L227.18 31.8004C228.453 30.7567 229.632 29.6786 230.693 28.5861C231.811 27.4045 232.648 26.4414 233.306 25.5674C234.082 24.5554 234.703 23.6785 235.218 22.8792C235.736 22.0656 236.17 21.3325 236.578 20.6367L236.828 20.1854C237.093 19.711 237.4 19.1705 237.693 18.699C238.366 26.4874 233.663 33.3672 228.942 39.1575C224.606 44.4762 220.294 49.5477 217.652 55.9647C214.915 62.6002 213.262 70.3225 207.67 75.2905C203.786 78.7405 198.392 80.0112 194.727 83.5302C194.675 82.5757 194.893 80.7904 196.098 77.5042ZM70.9291 64.4287C72.841 64.2792 74.6982 64.3022 76.3629 64.5006C77.2455 64.5897 78.1396 64.7019 79.0079 64.837C79.764 64.9606 80.4741 65.136 81.167 65.3085L81.2734 65.3401C82.1129 65.5529 82.9754 65.8116 83.8321 66.1049C84.5135 66.3349 85.1661 66.6252 85.8015 66.9099L86.0545 67.022C87.5581 67.7177 88.7311 68.2899 89.6109 68.8189C90.712 69.4571 91.7412 70.104 92.759 70.8026C93.4806 71.2885 94.1131 71.8089 94.7169 72.312L95.082 72.6052C95.9157 73.3067 96.6172 73.922 97.2296 74.4539C97.6407 74.8161 98.0174 75.1496 98.3796 75.4544C99.2967 76.199 100.234 76.8746 101.186 77.4611L101.64 77.7457C102.353 78.1799 103.086 78.6341 103.819 78.9992C104.618 79.4046 105.487 79.7927 106.427 80.155C107.232 80.5029 108.071 80.8191 108.991 81.1296C109.555 81.3165 110.121 81.489 110.685 81.6557C110.952 81.7362 111.219 81.8167 111.472 81.8944L114.261 82.7885C114.931 83.0041 115.566 83.2082 116.156 83.4325C116.969 83.7602 117.694 84.0736 118.346 84.3956C119.059 84.7492 119.818 85.146 120.526 85.6117C121.302 86.135 122.067 86.71 122.797 87.3252C123.182 87.6472 123.567 87.9894 123.927 88.3257C124.269 88.6592 124.605 89.033 125.008 89.4815C125.767 90.344 126.486 91.2611 127.15 92.2127C128.76 94.7399 129.858 97.0801 130.62 99.5986C130.864 100.375 131.074 101.114 131.261 101.847C131.497 102.798 131.663 103.586 131.776 104.331C132.08 106.306 132.017 107.927 131.577 109.293L131.543 109.399C127.546 104.288 123.539 98.7102 118.41 94.9037C112.737 90.6919 105.435 90.5165 99.3772 87.1614C93.3512 83.8264 89.6684 77.3087 84.1484 73.2205C78.9015 69.3306 72.8295 66.7115 66.4384 65.4465C66.5074 65.4149 66.5764 65.3832 66.6511 65.3516C67.8385 64.8485 69.3479 64.5207 70.9291 64.4287ZM128.567 111.291L128.285 111.254H128.262C127.722 111.191 127.006 111.11 126.27 111.099C125.902 111.073 125.574 111.116 125.333 111.153C125.264 111.162 125.189 111.173 125.083 111.185C124.89 111.205 124.671 111.222 124.43 111.222L124.295 111.216C123.68 111.211 122.984 111.093 122.245 110.88C121.227 110.57 120.241 110.204 119.347 109.825C119.016 109.675 118.674 109.523 118.326 109.374C117.677 109.092 117.004 108.796 116.386 108.471C115.92 108.229 115.466 107.971 115.032 107.703L114.968 107.666C114.459 107.393 114.02 107.131 113.608 106.864C112.959 106.455 112.415 106.013 111.889 105.584C111.728 105.449 111.573 105.326 111.444 105.225C110.897 104.771 110.423 104.288 109.977 103.753C109.767 103.5 109.581 103.256 109.411 103.008L109.374 102.954C109.184 102.718 109.014 102.482 108.853 102.246C108.56 101.824 108.295 101.407 108.04 100.999L107.83 100.662C107.531 100.191 107.22 99.6992 106.823 99.2019C106.363 98.6499 105.892 98.1899 105.389 97.7874C104.794 97.3159 104.153 96.9306 103.428 96.6144C102.732 96.3039 101.924 96.0911 100.7 95.8985L100.179 95.8237C99.4721 95.7202 98.8022 95.6282 98.1237 95.565L94.0901 95.2775C93.4979 95.2487 92.9947 95.2114 92.5376 95.1625C91.7527 95.0935 90.9966 94.9296 90.0852 94.6392C89.3406 94.4035 88.6506 94.0384 87.9002 93.4979C87.7507 93.3915 87.6185 93.2794 87.446 93.1442C87.4402 93.1385 86.9227 92.7504 86.4512 92.2731C85.6031 91.4307 84.7492 90.2922 83.8321 89.0819L83.5417 88.7024C82.9495 87.8974 82.3544 87.0205 81.7765 86.1695C81.397 85.6002 81.0204 85.0454 80.6725 84.5509C79.9566 83.4957 79.1947 82.3601 78.4242 81.1785C78.131 80.7185 77.8952 80.3534 77.74 80.1349L77.5042 79.7697C75.762 77.0931 73.9047 74.7356 72.1424 72.9589C71.4035 72.1999 70.6445 71.4552 69.8136 70.6934C69.2415 70.1816 68.7125 69.7475 68.241 69.3651L67.6775 68.9051C67.0134 68.3704 66.3377 67.8241 65.8634 67.3756C72.3494 68.6521 78.4674 71.3402 83.7171 75.4026C88.9669 79.4707 92.4916 85.6462 98.3624 88.895C104.121 92.0805 111.099 92.3249 116.593 96.0566C119.637 98.1266 122.001 101.045 124.324 103.856C126.391 106.361 128.455 108.868 130.519 111.375C130.091 111.461 129.369 111.392 128.567 111.291ZM142.494 256.39C139.952 255.372 137.787 253.929 136.358 252.974L136.209 252.876C133.777 251.249 132.135 249.771 130.818 248.584C130.125 247.969 129.533 247.431 128.975 247.014C124.016 243.314 119.295 243.288 115.124 243.262C113.629 243.251 112.217 243.245 110.823 243.078C107.729 242.716 104.768 241.569 101.786 239.582C97.9311 237.006 94.0441 232.97 90.2261 227.573L90.1082 227.401L89.9472 227.274C89.2687 226.728 88.8461 226.199 88.7599 225.817C101.424 227.228 115.078 229.626 125.629 237.15C130.62 240.712 135.619 243.774 141.05 246.62C146.378 249.415 151.627 252.572 154.922 257.729C154.399 258.186 153.335 258.442 151.892 258.442C148.968 258.442 145.064 257.407 142.494 256.39ZM115.644 224.198C117.533 225.699 119.482 227.246 123.395 227.246C123.662 227.246 123.941 227.234 124.226 227.226C125.724 227.157 127.058 227.065 128.236 226.99C129.806 226.883 131.166 226.791 132.336 226.791C134.757 226.791 136.307 227.194 138.057 228.263C138.221 228.364 138.371 228.468 138.523 228.574C138.526 228.58 139.115 228.991 139.636 229.485C141.375 231.118 143.368 233.927 145.254 237.389C146.734 240.091 147.683 242.339 147.694 242.368C149.396 246.387 150.929 249.306 152.177 251.491C149.799 249.363 147.071 247.609 144.236 246.048C141.217 244.384 138.098 242.912 135.113 241.187C132.144 239.47 129.43 237.406 126.641 235.416C116.15 227.933 102.732 225.429 90.0881 223.96C90.5021 223.64 91.0081 223.307 91.6377 222.968C92.4255 222.545 93.3944 222.117 94.5616 221.717C97.0514 220.86 99.889 220.346 102.652 220.242C104.587 220.564 106.499 220.725 108.382 220.725C108.468 220.725 108.56 220.725 108.643 220.719C112.211 221.478 113.951 222.861 115.644 224.198ZM167.65 190.173C166.345 191.708 165.054 193.036 163.815 194.103C162.429 195.29 161.011 196.4 159.844 197.193C158.479 198.07 156.946 198.91 155.313 199.686C154.134 200.232 153.005 200.658 152.102 201L151.538 201.207C149.043 202.176 146.869 202.641 145.118 203.012L145.021 203.032C144.118 203.231 143.293 203.36 142.56 203.478C141.835 203.596 141.208 203.697 140.648 203.832C139.486 204.099 138.382 204.421 137.327 204.806C136.309 205.143 135.309 205.545 134.352 205.999C133.532 206.385 132.701 206.836 131.77 207.402C130.988 207.848 130.206 208.34 129.381 208.903C128.717 209.357 128.021 209.861 127.219 210.47L124.605 212.356C123.401 213.219 122.259 214.038 120.997 214.685C117.47 216.608 113.522 217.623 109.261 217.715C109.152 217.715 109.052 217.721 108.945 217.721C108.672 217.666 108.387 217.614 108.094 217.566C106.674 217.341 105.179 217.223 103.658 217.223C103.408 217.223 103.155 217.229 102.905 217.235C99.7711 216.689 96.5482 215.691 93.3484 214.268C92.5807 213.929 91.8217 213.572 91.0599 213.184L90.8845 213.101L90.6919 213.058C90.6027 213.037 90.5309 213.017 90.4475 212.997C97.4395 209.507 104.506 206.132 112.122 204.234C119.908 202.291 127.932 201.667 135.867 200.609C148.005 198.993 160.756 196.003 169.677 187.151C169.504 187.49 169.303 187.85 169.064 188.229C168.642 188.919 168.164 189.572 167.65 190.173ZM92.9286 206.02C94.231 204.769 95.8525 203.472 98.1985 201.834C98.9489 201.31 99.7452 200.845 100.59 200.35L101.246 199.971C102.304 199.361 103.376 198.835 104.44 198.401C105.711 197.866 106.573 197.55 107.355 197.343C108.134 197.116 108.879 196.998 109.598 196.88L109.747 196.86C110.748 196.71 111.636 196.693 112.3 196.693C112.686 196.693 113.056 196.699 113.422 196.705L113.703 196.71C113.844 196.716 113.976 196.716 114.117 196.716C115.563 196.716 116.708 196.569 117.855 196.25C118.657 196.015 119.402 195.693 120.161 195.253C120.943 194.773 121.704 194.183 122.492 193.45L122.722 193.234C123.358 192.636 123.964 192.067 124.531 191.484L126.164 189.764C127.161 188.709 128.021 187.838 128.797 187.05C129.591 186.286 130.292 185.722 131.005 185.299C131.689 184.891 132.54 184.431 133.664 184.095C133.863 184.037 134.047 183.983 134.228 183.94C134.234 183.94 134.955 183.764 135.749 183.678C137.06 183.505 138.704 183.462 140.648 183.56C142.275 183.641 144.175 183.747 145.906 183.928L148.658 184.23L151.8 184.598C153.654 184.86 155.233 185.026 156.636 185.095C157.984 185.161 159.378 185.182 160.658 185.156C162.012 185.124 163.067 185.069 163.987 184.983C164.944 184.891 165.801 184.791 166.612 184.696C167.811 184.549 168.757 184.431 169.432 184.431C169.461 184.431 169.481 184.434 169.504 184.434C159.706 195.23 144.693 197.564 130.936 199.217C123.639 200.097 116.282 200.899 109.195 202.94C102.054 204.996 95.3637 208.294 88.7397 211.611C88.9582 210.617 90.1111 208.647 92.9286 206.02ZM88.9122 215.68C89.2141 215.783 89.5304 215.872 89.8725 215.947C91.7182 216.878 93.5611 217.672 95.3925 218.325C94.7772 218.497 94.1706 218.678 93.5812 218.882C91.9914 219.429 88.872 220.691 87.0866 222.634C80.5891 222.246 74.0715 222.197 67.551 222.49C74.6724 220.222 81.7909 217.951 88.9122 215.68ZM104.009 112.93C103.971 113.24 103.937 113.568 103.868 113.847C103.825 114.022 103.773 114.198 103.707 114.37L103.612 114.712C103.575 114.842 103.537 114.977 103.488 115.115C103.414 115.333 103.322 115.549 103.235 115.762C103.135 116.009 103.034 116.259 102.936 116.524C102.856 116.722 102.764 116.92 102.675 117.113C102.551 117.38 102.428 117.654 102.315 117.935L101.988 118.611C101.646 119.338 101.324 120.025 101.004 120.592L100.961 120.672C100.783 121.037 100.57 121.397 100.34 121.771L100.105 122.167C99.8516 122.616 99.5727 123.07 99.2536 123.553L99.061 123.858C98.831 124.243 98.6039 124.614 98.3911 124.93C98.1122 125.347 97.8391 125.775 97.6034 126.187C96.5799 127.88 95.6484 129.309 94.8261 130.568C93.8544 132.057 93.0896 133.227 92.5664 134.262C92.1207 135.2 91.747 136.189 91.4422 137.232C91.1835 138.224 91.0081 139.15 90.9046 140.093C90.8184 141.007 90.7867 141.893 90.8184 142.807C90.8529 143.644 90.9276 144.495 91.0512 145.42C91.2439 146.872 91.5256 148.284 91.8045 149.655C92.1754 151.466 92.5232 153.174 92.6727 154.957C92.9976 158.881 92.3507 162.88 90.7436 166.833C89.5735 169.628 88.1331 172.049 86.3391 174.234C84.2605 176.769 81.8627 178.88 79.1947 180.507C78.9331 180.668 78.6715 180.823 78.4041 180.973L78.2489 181.059L78.1137 181.182C78.0447 181.246 77.9844 181.297 77.9211 181.352C77.6997 174.489 83.0444 169.266 85.4249 163.119C87.7249 157.176 86.2097 151.147 84.8067 145.19C83.1105 137.983 82.9351 131.399 87.2304 125.031C91.2554 119.065 97.6292 115.316 104.035 112.381C104.038 112.481 104.043 112.579 104.035 112.683L104.009 112.93ZM71.8117 158.062C72.1797 156.751 72.6685 155.641 73.14 154.571L73.2952 154.224C74.4941 151.455 75.3192 148.977 74.1635 144.426L73.4246 141.47L72.7864 138.791C72.4385 137.155 72.1395 135.746 71.9986 134.418C71.6737 131.718 71.9181 129.599 72.841 127.124C72.9416 126.868 73.0422 126.632 73.1457 126.408C73.1515 126.396 73.5511 125.514 74.0485 124.7C76.1156 121.348 79.6892 118.332 82.3371 116.63C84.1426 115.48 85.4162 114.842 86.1839 114.505C87.1527 114.06 87.745 113.841 87.7795 113.824C88.3516 113.594 88.9554 113.396 89.539 113.203L90.643 112.835C91.172 112.657 91.6722 112.49 92.138 112.358L93.0954 112.096C94.0757 111.823 94.921 111.59 95.703 111.426L96.3872 111.285C97.1865 111.122 97.8822 110.981 98.4774 110.892C99.3111 110.777 100.024 110.696 100.677 110.633C100.907 110.607 101.154 110.59 101.453 110.59C101.64 110.59 101.818 110.595 101.979 110.601H102.097C102.439 110.616 102.709 110.647 102.931 110.69C90.9564 116.202 79.7467 125.844 81.7909 140.314C82.8402 147.732 86.4024 155.152 83.4871 162.587C80.9197 169.139 75.3221 174.515 75.946 181.973C75.6901 181.743 75.3077 181.292 74.842 180.38C74.52 179.748 74.221 178.997 73.9479 178.302C73.7121 177.698 73.508 177.048 73.2895 176.358L73.1055 175.786C72.9675 175.346 72.8439 174.898 72.7202 174.42L72.6771 174.254C72.5621 173.837 72.4442 173.408 72.3465 173L72.2085 172.379C72.0245 171.589 71.8376 170.763 71.7082 169.938C71.3029 167.71 71.1045 165.58 71.1217 163.412C71.1275 161.44 71.3517 159.689 71.8117 158.062ZM11.1147 106.237C11.6811 106.151 12.3395 106.108 13.0899 106.108H13.3515C13.7799 106.113 14.2255 106.136 14.6797 106.162C14.996 106.188 15.3439 106.248 15.709 106.306L16.0022 106.355C16.9337 106.516 17.9371 106.729 18.9577 106.982L19.3919 107.094C20.2716 107.318 21.0996 107.528 21.8816 107.85C23.8481 108.583 25.6249 109.348 27.0221 110.061C28.5804 110.955 30.1817 112.01 31.7515 113.183C32.8095 114.005 33.6892 114.83 34.4712 115.561C34.6782 115.753 34.8766 115.94 35.0491 116.101C35.5781 116.598 36.0927 117.102 36.6074 117.616C36.9121 117.921 37.2054 118.275 37.49 118.617C37.6021 118.755 37.7142 118.89 37.812 119.002C38.4905 119.827 39.1546 120.672 39.8504 121.621C40.5087 122.484 41.0349 123.306 41.4891 124.03C41.8312 124.565 42.1532 125.074 42.4695 125.502C43.1825 126.494 43.9357 127.426 44.7724 128.351C45.4882 129.228 46.2329 130.042 47.0379 130.83C47.8227 131.606 48.6162 132.282 49.3609 132.897C50.0566 133.524 50.8012 134.145 51.635 134.786C52.3106 135.312 53.0495 135.858 53.9379 136.485C54.3979 136.821 54.8435 137.175 55.2891 137.528C55.5507 137.738 55.8181 137.945 56.0711 138.144C56.695 138.635 57.4339 139.225 58.1641 139.831L58.4459 140.076C58.6874 140.28 58.9174 140.472 59.1157 140.665C59.4205 140.976 59.731 141.292 60.0329 141.62C60.6682 142.304 61.2864 143.031 61.8642 143.782C62.1632 144.173 62.468 144.587 62.7411 144.972C63.0027 145.377 63.25 145.811 63.5404 146.332C64.4604 148.011 65.596 150.299 66.217 153.082C66.3837 153.746 66.5332 154.433 66.6655 155.118C66.7891 155.756 66.9127 156.446 66.9559 157.191C67.0795 158.743 67.1226 160.327 67.0737 161.929C67.068 162.613 66.9674 163.38 66.8639 164.183L66.8437 164.344C66.7201 165.209 66.5764 166.094 66.4039 166.94L66.3061 167.411C66.1509 168.15 66.0071 168.852 65.7771 169.573C65.5672 170.249 65.3372 170.93 65.0929 171.603C65.0066 171.85 64.9146 172.097 64.8255 172.342L64.7536 172.526L64.7335 172.718C64.7162 172.874 64.6961 173.015 64.676 173.15C62.3674 165.882 59.9236 158.573 55.9762 152.016C54.0845 148.873 51.8506 145.895 49.2286 143.322C46.4082 140.556 43.0704 138.492 39.9539 136.097C33.6087 131.229 31.2886 123.843 26.3666 117.832C22.1116 112.634 16.5025 108.776 10.2378 106.435C10.4822 106.361 10.7668 106.292 11.1147 106.237ZM59.7684 172.98C59.3515 172.695 58.9289 172.368 58.4832 172.02C58.1526 171.764 57.8162 171.497 57.4684 171.244C56.1602 170.249 54.9125 169.044 53.59 167.773C53.2737 167.469 52.9546 167.158 52.6642 166.879C52.2617 166.48 51.8822 166.071 51.5459 165.686L50.945 164.979L50.3499 164.338C49.5851 163.487 48.9009 162.613 48.2942 161.701L48.1505 161.494C47.5669 160.664 47.0637 159.948 46.7044 159.261C46.5175 158.913 46.345 158.559 46.1955 158.223L46.0517 157.863C45.9396 157.59 45.8332 157.329 45.7355 157.119C45.2525 155.963 45.0024 154.865 44.7551 153.801L44.6976 153.542C44.5539 152.829 44.3325 152.214 44.091 151.579C43.8179 150.883 43.5074 150.265 43.1451 149.693C42.688 148.985 42.1849 148.382 41.6012 147.835L41.5322 147.781C40.8566 147.22 40.0487 146.682 39.1345 146.197L38.5279 145.88C37.9011 145.55 37.3089 145.233 36.6649 144.943L34.5546 144.066C34.0055 143.839 33.5024 143.621 33.0251 143.416C32.361 143.129 31.7457 142.867 31.1937 142.652C30.245 142.243 29.5176 141.838 28.9397 141.392C28.8046 141.28 28.6666 141.174 28.5315 141.068C28.3015 140.884 28.0715 140.702 27.853 140.504C27.5252 140.211 27.209 139.877 26.887 139.492C26.7662 139.343 26.657 139.205 26.5506 139.058C26.5506 139.052 26.1337 138.48 25.7916 137.845L25.7542 137.773C25.0987 136.698 24.4317 135.289 23.7245 133.501C23.5031 132.917 23.2702 132.356 23.0374 131.799C22.9252 131.525 22.8074 131.258 22.7067 130.996L21.758 128.602L20.9012 126.336L19.5701 123.033C18.8341 121.138 18.193 119.698 17.549 118.482C16.9021 117.294 16.1891 116.11 15.4244 114.948C14.6711 113.813 14.0386 112.898 13.3946 112.105C12.7678 111.346 12.1785 110.67 11.6351 110.055L11.431 109.831C11.0831 109.437 10.718 109.026 10.3902 108.64C16.6089 111.119 22.1116 115.259 26.0647 120.695C30.2364 126.434 32.5277 132.822 38.2777 137.327C41.0952 139.535 44.1715 141.407 46.828 143.819C49.6512 146.383 52.0145 149.399 54.0069 152.645C58.1871 159.456 60.6539 167.101 63.0545 174.676C62.7325 174.593 62.3156 174.446 61.778 174.185C61.157 173.88 60.4814 173.477 59.7684 172.98ZM66.9559 175.832C67.3239 175.142 67.5654 174.277 67.6947 173.224C68.0311 172.316 68.3531 171.39 68.6377 170.473C68.6636 170.384 68.6952 170.292 68.7182 170.206C68.7269 170.286 68.7384 170.361 68.7556 170.441C68.8936 171.33 69.092 172.204 69.2846 173.043L69.4284 173.67C69.5347 174.13 69.6641 174.596 69.7877 175.053L69.8251 175.185C69.9545 175.683 70.0925 176.177 70.2477 176.686L70.4289 177.27C70.6646 177.997 70.886 178.687 71.1534 179.383C71.4581 180.159 71.7916 180.984 72.1654 181.729C73.0854 183.537 74.1146 184.621 75.2962 185.026C75.4745 185.092 75.6614 185.138 75.8482 185.167C75.4946 189.825 75.1467 194.476 74.7931 199.137V199.131C72.7806 191.167 70.1557 183.376 66.9559 175.832ZM216.643 181.263C213.273 179.687 210.384 177.847 208.472 176.631L208.193 176.45C205.157 174.533 202.978 172.888 201.233 171.566C200.091 170.709 199.191 170.025 198.346 169.49C194.479 167.058 190.411 165.755 185.532 165.393C184.483 165.318 183.359 165.281 182.085 165.281C181.042 165.281 180.012 165.307 178.995 165.327C177.479 165.367 175.987 165.404 174.481 165.35C170.358 165.22 166.155 164.456 161.615 163.01C156.486 161.414 150.544 158.786 143.276 155.322C142.876 155.132 142.473 154.937 142.065 154.744L141.896 154.663L141.709 154.626C139.524 154.198 139.213 153.634 139.207 153.634C139.196 153.559 139.222 153.444 139.265 153.315C147.522 151.722 155.972 153.315 164.099 155.434C168.737 156.641 173.337 158.007 178.026 159.013C182.41 159.956 186.858 160.531 191.285 161.23C199.646 162.555 207.607 164.709 214.857 169.211C221.614 173.408 227.297 179.104 231.55 185.814C230.388 185.768 228.916 185.521 227.162 185.075C223.318 184.083 219.207 182.456 216.643 181.263ZM145.639 147.899C146.243 147.574 146.887 147.257 147.522 146.953C148.143 146.668 148.796 146.401 149.601 146.084C150.848 145.581 152.303 145.11 154.157 144.612C157.616 143.73 161.161 143.264 164.41 143.258H164.507C167.489 143.258 170.108 143.577 172.486 144.242C173.492 144.532 174.406 144.842 175.269 145.185C176.082 145.521 176.844 145.872 177.577 146.208L177.672 146.251C180.662 147.663 183.482 148.991 189.109 148.991L190.175 148.985C191.783 148.971 193.237 148.959 194.571 148.959C197.817 148.959 199.867 149.028 201.655 149.201C204.809 149.491 207.149 150.176 209.72 151.567C209.987 151.711 210.229 151.857 210.459 151.995C210.47 152.001 211.373 152.565 212.186 153.194C215.726 155.963 218.854 160.235 220.4 162.538C221.547 164.246 222.404 165.68 222.919 166.586C223.502 167.598 223.822 168.219 223.827 168.231C227.286 174.912 230.078 179.066 231.923 181.821L232.047 182.002C232.806 183.149 233.959 184.877 233.898 185.348C233.867 185.391 233.786 185.472 233.617 185.555C233.608 185.403 233.565 185.245 233.464 185.084C229.301 178.42 223.799 172.716 217.249 168.363C209.815 163.424 201.552 160.882 192.797 159.453C187.881 158.648 182.93 158.042 178.057 156.966C173.04 155.862 168.121 154.37 163.139 153.114C155.937 151.297 148.459 150.04 141.122 150.983C142.149 150.055 143.621 148.982 145.639 147.899ZM143.46 27.8961C144.009 28.3676 144.509 28.8707 144.943 29.4084C146.099 30.7999 147.045 32.1425 147.752 33.3787C148.551 34.799 149.258 36.2394 149.724 37.3865C150.216 38.7349 150.644 40.227 150.975 41.7967C151.202 42.9324 151.314 43.9559 151.415 44.8586L151.475 45.3962C151.763 47.7394 151.639 49.7174 151.544 51.313L151.538 51.4251C151.489 52.2704 151.4 53.0294 151.314 53.6992C151.239 54.3432 151.17 54.8952 151.147 55.407C151.093 56.4794 151.11 57.5115 151.196 58.5091C151.245 59.4665 151.363 60.4296 151.538 61.3611C151.688 62.1546 151.898 62.9682 152.182 63.8882C152.395 64.6616 152.651 65.4436 152.967 66.2774C153.226 66.953 153.519 67.6602 153.884 68.494C154.071 68.9166 154.244 69.345 154.413 69.7676C154.52 70.0407 154.632 70.3196 154.741 70.5726L154.96 71.1246C155.443 72.3292 155.897 73.4677 156.158 74.6724C156.989 78.0879 156.834 81.6327 155.704 85.1891C155.345 86.2874 154.983 87.3569 154.431 88.4551C153.853 89.6281 153.183 90.7954 152.45 91.9252C151.786 92.9315 150.912 94.0556 149.701 95.4327L149.638 95.5075C149.112 96.0911 148.614 96.6431 148.037 97.1894C147.41 97.7874 146.757 98.3767 146.087 98.9489L145.926 99.084L145.889 99.1214V99.1386L145.82 99.2392C145.831 93.9492 147.03 88.6995 147.671 83.444C148.057 80.2959 148.244 77.1104 147.832 73.9536C147.395 70.6042 146.059 67.5826 145.121 64.3655C143.112 57.4655 145.791 50.4591 145.604 43.4614C145.446 37.5504 143.94 31.8119 141.338 26.5276C141.533 26.5995 141.755 26.6944 142.022 26.8467C142.462 27.0997 142.945 27.4534 143.46 27.8961ZM142.399 99.2565C141.947 98.7994 141.493 98.2474 141.045 97.612C140.642 97.0542 140.251 96.4131 139.84 95.7375L139.662 95.4471C138.667 93.7825 137.873 91.8879 137.232 90.2606C136.974 89.5907 136.775 88.895 136.562 88.1561C136.493 87.9146 136.422 87.6674 136.358 87.4489C136.097 86.4944 135.91 85.56 135.806 84.6314C135.711 83.8551 135.614 82.9552 135.645 82.1646C135.657 81.558 135.755 80.9801 135.844 80.4224L135.878 80.2297C136.065 79.1717 136.422 78.2431 136.767 77.349L136.861 77.0989C137.232 76.1242 137.612 74.9369 137.638 73.4965C137.643 72.7519 137.549 72.0446 137.327 71.2799C137.083 70.518 136.723 69.759 136.226 68.9482L136.059 68.6866C135.68 68.0656 135.315 67.482 134.924 66.9099L133.745 65.2826C133.081 64.3712 132.535 63.5777 132.031 62.8504L131.931 62.7009C131.448 61.9735 131.137 61.3525 130.95 60.7459C130.758 60.1134 130.582 59.4119 130.577 58.5034C130.577 58.3424 130.577 58.1929 130.585 58.0434C130.585 58.0376 130.626 57.4367 130.758 56.7726C130.95 55.6715 131.347 54.326 131.968 52.6671C132.532 51.1606 133.115 49.6081 133.719 48.185L135.872 43.125C136.583 41.5294 137.129 40.1494 137.551 38.8901C137.948 37.6912 138.282 36.5182 138.586 35.2849C138.88 34.0544 139.084 33.0912 139.225 32.2517C139.363 31.3662 139.463 30.5756 139.55 29.8684L139.573 29.7189C139.656 29.0289 139.731 28.451 139.808 27.9737C142.588 33.8186 143.928 40.2356 143.549 46.7302C143.163 53.2967 141.39 59.3371 143.468 65.8145C144.515 69.0747 145.722 72.1424 145.987 75.5924C146.254 79.0596 145.817 82.547 145.311 85.9711C144.595 90.7896 143.738 95.5535 143.865 100.383C143.629 100.277 143.307 100.082 142.902 99.7309C142.747 99.5986 142.58 99.4376 142.399 99.2565ZM195.566 97.3532C199.37 94.4696 204.487 92.3651 209.26 91.7154C211.571 91.4279 213.584 91.448 215.372 91.7815C216.927 92.0862 218.169 92.552 219.368 93.0005L219.909 93.2046C221.082 93.6502 222.292 94.1045 223.701 94.2971C224.517 94.415 225.411 94.4409 226.254 94.3776C227.217 94.3345 228.229 94.185 229.347 93.9234L234.729 92.6699C236.25 92.3364 237.561 92.0431 238.757 91.9195C240.008 91.7757 241.014 91.747 242.012 91.839C242.949 91.9195 243.949 92.1754 245.16 92.6382C245.378 92.7216 245.582 92.8079 245.769 92.8941C245.781 92.8999 246.537 93.2477 247.21 93.6589C248.446 94.4696 249.786 95.5937 251.194 97.0054C252.537 98.3451 253.747 99.8717 254.653 101.048C255.82 102.574 256.622 103.822 257.005 104.437C257.551 105.3 257.856 105.834 257.862 105.852C258.664 107.255 259.423 108.523 260.098 109.638L260.21 109.825C260.88 110.949 261.556 112.042 262.214 113.059C262.651 113.744 263.071 114.365 263.456 114.937L265.196 117.541C266.248 119.12 266.708 119.893 266.717 120.336C259.267 120.615 253.678 115.282 248.664 110.446C244.067 106.013 239.324 101.953 232.915 100.57C226.26 99.1386 219.27 99.9436 212.54 100.289C205.588 100.642 198.634 100.996 191.679 101.349C192.32 100.314 193.516 98.9259 195.566 97.3532ZM253.647 120.149C252.454 119.804 251.226 119.338 249.883 118.712C248.561 118.119 247.543 117.622 246.937 117.311C244.818 116.213 243.248 115.328 242.006 114.531C240.548 113.583 239.533 112.953 238.634 112.496C237.691 112.024 236.733 111.639 235.753 111.329C234.864 111.073 233.947 110.886 233.022 110.762C232.176 110.65 231.34 110.595 230.538 110.595H230.397C229.612 110.618 228.813 110.682 227.962 110.788C227.272 110.874 226.541 110.992 225.664 111.153C225.144 111.254 224.632 111.372 224.118 111.495L223.465 111.645C222.143 111.961 220.803 112.228 219.394 112.453C216.289 112.893 212.931 112.625 209.317 111.656C204.858 110.434 199.657 108.051 193.416 104.394C193.398 104.391 193.384 104.38 193.367 104.368L193.194 104.268L192.999 104.213C192.018 103.954 191.466 103.641 191.219 103.382C198.154 103.028 205.085 102.675 212.02 102.321C219.27 101.953 227.076 100.884 234.16 102.957C244.777 106.062 250.677 118.387 260.964 121.592C259.811 121.492 258.615 121.29 257.465 121.086C255.838 120.796 254.515 120.419 253.647 120.149Z" fill="#45474B" fill-opacity="0.1"/>
</g>
</svg>
