<svg width="357" height="357" viewBox="0 0 357 357" fill="none" xmlns="http://www.w3.org/2000/svg">
<path d="M312.866 138.469C294.265 127.477 271.28 128.313 251.161 134.367C228.655 141.139 208.935 154.523 188.299 165.4C171.45 174.285 153.444 179.941 134.801 183.723C114.802 187.787 94.4084 189.781 74.052 190.376C52.5799 190.974 30.9889 189.978 9.6767 187.029C6.92854 186.631 5.69392 190.814 8.52017 191.253C27.1251 194.161 46.0089 195.039 64.8109 194.838C85.2045 194.6 105.643 192.927 125.72 189.461C144.243 186.233 162.685 181.454 179.776 173.526C200.768 163.805 219.57 149.904 240.964 140.942C263.113 131.66 290.082 127.477 311.911 139.983C312.948 140.541 313.822 139.027 312.866 138.469Z" fill="#379777"/>
<path d="M256.181 118.671C251.202 117.916 247.097 122.099 243.791 125.245C241.838 127.079 240.009 129.031 238.495 131.259C237.298 133.055 235.464 135.963 236.182 138.153C236.502 139.146 237.777 139.548 238.532 138.748C239.849 137.395 240.165 135.126 241.083 133.453C242.199 131.418 243.593 129.589 245.107 127.875C247.855 124.728 251.399 119.749 256.022 119.987C256.776 120.028 256.936 118.793 256.181 118.671Z" fill="#379777"/>
<path d="M258.77 151.697C251.559 147.234 242.556 143.928 233.951 144.646C231.842 144.806 231.76 147.952 233.951 147.952C238.134 147.993 242.158 148.03 246.26 148.83C250.406 149.625 254.307 150.938 258.052 152.891C258.848 153.37 259.565 152.173 258.77 151.697Z" fill="#379777"/>
<path d="M156.192 154.765C150.695 166.434 142.451 176.114 132.57 184.321C130.897 185.675 133.288 187.988 134.92 186.672C145.039 178.546 152.57 167.234 157.11 155.163C157.307 154.642 156.433 154.244 156.192 154.765Z" fill="#379777"/>
<path d="M182.245 184.641C175.432 183.128 168.821 180.737 161.93 179.58C160.256 179.301 159.539 181.692 161.212 182.172C167.984 183.964 175.035 184.481 181.888 185.917C182.725 186.073 183.041 184.838 182.245 184.641Z" fill="#379777"/>
<path d="M105.003 192.25C113.21 191.729 120.86 193.484 128.189 197.147C135.318 200.695 141.651 205.515 148.505 209.538C161.811 217.385 176.667 221.368 191.847 223.558C200.411 224.796 209.054 225.51 217.7 226.228C217.261 225.231 216.863 224.198 216.424 223.201C203.758 235.272 184.157 237.224 167.467 237.143C150.457 237.064 131.655 233 121.02 218.5C115.84 211.409 113.01 202.566 115.163 193.841C115.88 190.933 111.377 189.658 110.659 192.607C106.32 210.256 118.629 227.463 134.125 234.792C143.046 239.017 152.886 240.768 162.685 241.088C172.246 241.445 182.048 240.727 191.449 238.857C201.527 236.826 211.404 232.963 218.934 225.752C220.128 224.595 219.132 222.844 217.659 222.725C202.085 221.528 186.388 220.252 171.331 215.99C163.722 213.841 156.471 210.851 149.621 206.909C142.648 202.885 135.958 198.345 128.587 195.117C121.336 191.93 112.772 189.58 104.925 191.77C104.646 191.77 104.687 192.25 105.003 192.25Z" fill="#379777"/>
<path d="M183.599 230.453C169.456 231.129 155.236 227.782 143.325 220.055C137.948 216.589 133.206 212.286 129.186 207.307C125.081 202.246 122.373 196.552 119.424 190.814C118.428 188.862 115.442 190.216 115.959 192.287C118.629 202.328 126.278 211.651 134.166 218.143C142.849 225.272 153.444 230.014 164.6 231.527C171.011 232.405 177.307 232.282 183.681 231.048C183.997 231.01 183.96 230.453 183.599 230.453Z" fill="#379777"/>
<path d="M165.634 224.952C155.039 221.568 146.475 214.358 138.386 206.95C134.563 203.443 130.938 199.698 126.795 196.59C122.89 193.681 117.833 190.814 112.812 191.015C110.782 191.093 110.064 194.481 112.296 194.797C114.884 195.195 117.275 195.556 119.703 196.709C122.094 197.824 124.285 199.338 126.315 200.974C130.421 204.28 134.244 207.906 138.345 211.249C146.352 217.783 155.236 223.402 165.436 225.711C165.912 225.83 166.113 225.112 165.634 224.952Z" fill="#379777"/>
<path d="M171.967 170.696C183.8 168.944 191.806 159.424 196.109 148.83C201.687 135.085 201.564 119.708 207.86 106.164C211.166 99.0319 215.669 92.5799 221.207 87.0017C222.2 86.0088 221.605 84.5734 220.448 84.1346C213.077 81.2674 204.673 82.502 197.823 86.2468C191.01 89.9507 185.789 96.0048 181.647 102.42C173.045 115.803 168.501 131.738 168.464 147.632C168.423 156.316 169.337 166.155 173.082 174.084C174.038 176.114 176.946 174.601 176.548 172.611C175.83 168.944 174.715 165.4 174.038 161.734C173.361 158.149 172.963 154.523 172.766 150.901C172.405 143.53 173.082 136.119 174.715 128.949C176.351 121.82 178.898 114.967 182.405 108.556C185.83 102.26 190.092 96.1647 195.871 91.784C202.602 86.6856 211.445 84.2945 219.533 87.4405C219.291 86.4848 219.013 85.5291 218.775 84.5734C209.295 94.2942 203.041 106.243 200.051 119.429C197.024 132.735 196.306 146.877 188.102 158.35C184.157 163.846 178.541 168.506 171.848 170.019C171.331 170.142 171.528 170.778 171.967 170.696Z" fill="#379777"/>
<path d="M210.411 95.0491C199.813 95.8449 193.439 105.406 190.731 114.77C187.463 125.922 186.786 137.673 183.8 148.949C182.963 152.095 182.007 155.2 180.773 158.231C179.497 161.455 177.664 164.326 176.109 167.39C175.154 169.305 177.783 171.733 179.259 169.822C183.521 164.363 185.789 156.955 187.425 150.302C189.058 143.53 190.014 136.558 190.969 129.626C192.684 116.64 194.952 98.7158 210.448 95.3689C210.649 95.328 210.608 95.0082 210.411 95.0491Z" fill="#379777"/>
<path d="M183.759 118.514C181.847 126.96 179.973 135.442 178.303 143.928C177.504 148.071 176.708 152.214 175.953 156.315C175.154 160.581 173.96 164.962 173.759 169.305C173.64 171.455 176.868 171.812 177.467 169.822C178.66 165.716 178.939 161.176 179.575 156.955C180.252 152.653 180.851 148.309 181.449 144.006C182.643 135.561 183.599 127.116 184.555 118.633C184.596 118.154 183.841 118.035 183.759 118.514Z" fill="#379777"/>
<path d="M49.9507 191.134C63.4163 187.906 77.1571 184.44 87.6737 174.842C93.4117 169.584 97.6362 162.931 101.935 156.516C106.636 149.506 111.377 142.493 116.078 135.483C117.71 133.092 121.217 129.548 120.339 126.32C119.465 123.092 115.639 123.371 113.01 123.494C106.717 123.773 100.503 125.085 94.6055 127.317C82.6571 131.779 72.0996 139.626 63.9741 149.425C59.3517 155.044 55.4098 161.258 52.6208 167.989C49.5937 175.24 48.0393 183.842 52.1039 191.015C53.4947 193.443 57.0833 191.294 55.8077 188.821C50.1106 177.788 58.158 164.047 64.61 155.122C71.3038 145.881 80.1879 138.19 90.3847 133.092C95.5612 130.545 101.061 128.711 106.758 127.715C109.585 127.239 112.493 126.919 115.323 126.96C116.118 126.96 116.873 126.919 116.754 127.953C116.676 128.592 115.959 129.388 115.639 129.905C114.564 131.537 113.489 133.133 112.415 134.765C108.231 141.02 104.047 147.312 99.8638 153.567C95.9628 159.424 92.2552 165.597 87.5175 170.856C77.8376 181.532 63.2155 186.672 49.7536 190.654C49.4338 190.695 49.5937 191.212 49.9507 191.134Z" fill="#379777"/>
<path d="M99.8637 134.884C88.6703 139.864 78.6334 146.676 70.1063 155.479C65.9264 159.822 62.2188 164.605 58.9947 169.703C57.3621 172.25 55.8858 174.92 54.5322 177.628C53.8963 178.903 53.3385 180.179 52.7806 181.491C52.2228 182.849 51.3452 184.202 51.903 185.675C52.26 186.594 53.1785 187.029 54.0525 186.553C55.3689 185.876 55.6887 184.522 56.2056 183.206C56.8043 181.811 57.4402 180.417 58.0761 179.022C59.2736 176.475 60.6272 173.965 62.0626 171.533C65.0488 166.516 68.5147 161.775 72.3785 157.394C80.1469 148.51 89.626 140.819 100.184 135.483C100.622 135.282 100.265 134.724 99.8637 134.884Z" fill="#379777"/>
<path d="M89.0683 156.795C81.5825 161.336 74.4908 166.196 67.9979 172.09C61.702 177.788 55.369 184.6 51.1073 191.971C49.9099 194.042 52.8588 195.597 54.2125 193.804C56.7635 190.495 59.032 186.991 61.6611 183.686C64.2903 180.38 67.1611 177.23 70.0692 174.125C75.9225 167.989 82.3783 162.132 89.429 157.394C89.8269 157.193 89.4699 156.557 89.0683 156.795Z" fill="#379777"/>
<path d="M66.5624 209.059C64.0113 206.351 61.5421 203.603 59.0319 200.855C56.7226 198.304 54.5731 194.879 51.7431 192.927C50.3486 191.971 48.876 193.804 49.5528 195.117C50.4304 196.749 51.9031 198.025 53.2158 199.338C54.4132 200.576 55.6478 201.811 56.8825 203.004C59.5525 205.593 62.3007 208.062 65.0897 210.535C66.0864 211.409 67.4772 210.055 66.5624 209.059Z" fill="#379777"/>
<path d="M265.463 131.221C275.861 125.007 288.449 116.164 300.795 122.538C305.775 125.126 309.839 129.068 314.023 132.776C318.363 136.599 322.944 140.065 328.083 142.813C334.138 146.078 340.671 148.391 347.406 149.663C347.246 148.51 347.086 147.353 346.967 146.2C336.889 151.816 324.896 150.622 314.22 147.472C302.829 144.125 292.391 138.19 281.157 134.327C274.824 132.136 268.093 130.545 261.358 130.623C258.569 130.664 258.569 134.884 261.358 134.966C285.939 135.721 305.935 154.047 330.672 154.047C337.046 154.047 343.301 152.653 348.879 149.506C350.232 148.748 350.072 146.319 348.44 146.041C342.107 144.884 335.93 142.891 330.196 139.946C324.577 137.116 319.679 133.412 314.979 129.31C310.676 125.602 306.295 121.701 301.037 119.388C295.299 116.878 289.245 117.079 283.388 119.072C276.698 121.341 269.643 125.085 264.746 130.225C264.188 130.704 264.824 131.619 265.463 131.221Z" fill="#379777"/>
<path d="M307.05 130.704C304.183 127.993 299.761 126.48 296.058 125.405C291.915 124.171 287.53 123.65 283.228 123.613C278.966 123.572 274.705 124.171 270.603 125.286C268.45 125.881 266.378 126.64 264.348 127.517C262.593 128.272 260.923 129.228 260.443 131.221C260.205 132.337 260.763 133.252 261.838 133.65C263.191 134.167 263.868 132.735 264.385 132.177C265.623 130.861 268.13 130.225 269.766 129.626C273.79 128.231 277.97 127.395 282.231 127.116C286.415 126.837 290.598 127.116 294.7 127.874C298.843 128.629 302.588 130.426 306.652 131.418C307.009 131.459 307.329 130.98 307.05 130.704Z" fill="#379777"/>
<path d="M212.839 156.795C220.608 157.115 228.097 158.03 235.226 161.418C242.039 164.642 247.535 169.74 253.311 174.522C258.889 179.104 264.824 182.73 271.715 184.998C278.687 187.308 286.017 188.267 293.306 188.981C292.871 187.947 292.473 186.951 292.034 185.917C283.228 196.749 268.372 199.777 255.066 198.382C247.777 197.627 240.087 195.597 234.152 191.175C228.495 186.951 225.546 180.499 222.999 174.125C220.128 166.992 217.462 159.662 211.962 154.125C210.009 152.136 206.945 155.2 208.935 157.152C214.115 162.373 216.502 169.424 219.172 176.077C221.921 182.886 225.148 189.539 231.043 194.161C237.26 199.022 245.025 201.331 252.756 202.287C260.123 203.242 267.732 202.885 274.864 200.892C282.51 198.784 289.643 194.719 294.581 188.423C295.578 187.189 294.942 185.478 293.306 185.359C281.714 184.362 269.803 182.57 259.844 176.077C254.947 172.89 250.603 168.944 245.903 165.519C241.362 162.213 236.461 159.584 231.084 157.911C225.267 156.118 218.815 155.163 212.761 156.196C212.442 156.278 212.52 156.795 212.839 156.795Z" fill="#379777"/>
<path d="M271.518 192.168C248.692 185.597 235.345 163.768 214.353 153.887C212.163 152.85 210.251 156.118 212.441 157.152C233.274 166.832 247.338 189.978 271.439 192.607C271.715 192.648 271.756 192.209 271.518 192.168Z" fill="#379777"/>
<path d="M248.573 190.855C240.206 188.743 235.345 180.696 231.125 173.846C229.053 170.417 226.982 166.992 224.431 163.846C222.081 160.897 218.934 157.55 215.309 156.278C213.754 155.72 212.282 158.108 213.635 159.145C215.268 160.421 217.023 161.377 218.577 162.771C220.128 164.203 221.523 165.798 222.798 167.472C225.386 170.856 227.54 174.563 229.927 178.066C234.39 184.559 240.288 190.338 248.294 191.811C248.889 191.93 249.168 191.015 248.573 190.855Z" fill="#379777"/>
<path d="M216.662 133.609C214.989 136.718 213.278 139.745 211.765 142.932C210.37 145.881 208.615 149.146 207.938 152.333C207.503 154.486 210.448 155.241 211.166 153.21C212.282 150.183 212.798 146.836 213.754 143.727C214.792 140.422 215.948 137.156 217.462 134.048C217.741 133.531 216.941 133.055 216.662 133.609Z" fill="#379777"/>
<path d="M115.761 172.73C112.574 177.59 108.707 182.172 105.84 187.229C104.966 188.821 107.275 190.138 108.231 188.624C111.459 183.804 113.768 178.304 116.676 173.247C117.074 172.648 116.118 172.131 115.761 172.73Z" fill="#379777"/>
<path d="M95.6021 204.399C91.8982 199.42 87.1568 194.202 81.5006 191.491C79.8271 190.695 78.5925 192.845 80.0651 193.923C82.5753 195.753 85.3234 197.266 87.7555 199.26C90.1058 201.134 92.3779 203.083 94.4864 205.236C95.0071 205.834 96.0818 205.076 95.6021 204.399Z" fill="#379777"/>
<path d="M33.4209 172.648C31.1896 175.798 29.0774 178.985 27.125 182.328C25.4516 185.199 23.0604 188.624 22.6625 191.93C22.5435 192.767 23.8972 193.325 24.4178 192.648C25.5334 191.253 26.0503 189.502 26.7271 187.906C27.4448 186.233 28.1626 184.6 28.9175 182.968C30.5128 179.58 32.2643 176.315 34.1758 173.087C34.4956 172.611 33.737 172.213 33.4209 172.648Z" fill="#379777"/>
<path d="M20.673 190.019C33.0193 192.808 43.1008 201.889 48.995 212.885C52.063 218.619 53.1786 225.034 55.9268 230.85C58.7158 236.905 63.7733 240.53 69.7903 243.04C77.7967 246.346 86.361 248.496 94.8844 249.972C94.6464 249.095 94.4084 248.217 94.2076 247.343C81.8613 259.012 62.9366 260.21 47.2807 255.588C38.8763 253.118 30.9107 248.697 25.1727 242.003C19.7954 235.711 16.7683 227.184 17.605 218.898C18.1628 213.521 20.911 209.259 23.2613 204.559C25.4516 200.137 26.649 195.277 24.5368 190.617C23.6592 188.702 20.8701 190.376 21.7477 192.25C24.098 197.467 20.4722 202.885 18.081 207.307C15.9725 211.249 14.578 215.313 14.2991 219.817C13.7413 228.459 16.9654 237.224 22.4654 243.836C33.6589 257.339 53.5765 262.958 70.5861 261.006C80.1879 259.89 89.3881 256.305 96.4388 249.571C97.2346 248.816 96.9185 247.142 95.762 246.941C88.1534 245.629 80.623 243.758 73.3751 241.129C66.4843 238.656 60.8653 235.034 57.8791 228.139C55.328 222.286 53.8963 216.15 50.6275 210.613C47.6005 205.515 43.6958 201.011 39.0362 197.348C33.737 193.246 27.5638 190.495 20.9519 189.461C20.4722 189.461 20.3123 189.937 20.673 190.019Z" fill="#379777"/>
<path d="M66.3244 245.949C59.6307 245.309 54.6922 240.969 50.3115 236.228C45.9271 231.486 42.6992 226.466 41.5055 220.055C40.3898 214.157 40.5497 207.984 38.1995 202.368C36.3662 197.947 33.0193 193.562 28.0399 192.607C26.1693 192.25 25.4925 194.76 27.2441 195.437C39.7539 200.215 35.8902 217.147 40.1518 227.065C42.543 232.602 46.8047 237.302 51.4234 241.129C55.488 244.472 60.9062 247.979 66.3616 246.227C66.5215 246.146 66.4843 245.949 66.3244 245.949Z" fill="#379777"/>
<path d="M71.3819 253.873C68.5556 252.918 65.5286 252.52 62.6577 251.765C59.5897 250.928 56.5627 250.009 53.6174 248.775C48.0393 246.465 42.7401 243.357 38.4784 239.095C34.3766 234.993 31.1487 229.932 29.4753 224.357C28.6795 221.647 28.2816 218.898 28.3188 216.072C28.3597 213.004 29.1555 210.174 29.8732 207.188C31.2268 201.692 31.1896 194.797 25.1318 192.25C23.4212 191.532 22.1865 194.44 23.86 195.277C29.8732 198.345 26.2474 206.47 25.3735 211.372C24.3769 216.909 25.0946 222.643 27.125 227.901C31.3867 238.738 40.4307 246.625 51.1444 250.768C54.3314 252.003 57.6783 252.958 61.0661 253.635C64.3311 254.275 67.916 254.989 71.222 254.632C71.7017 254.591 71.8207 254.033 71.3819 253.873Z" fill="#379777"/>
</svg>
